<ttFont>
    <TTGlyph name=".notdef" xMin="50" yMin="0" xMax="943" yMax="1400">
      <contour>
        <pt x="273" y="1127" on="1"/>
        <pt x="291" y="1145" on="0"/>
        <pt x="335" y="1181" on="0"/>
        <pt x="389" y="1208" on="0"/>
        <pt x="454" y="1225" on="0"/>
        <pt x="492" y="1225" on="1"/>
        <pt x="537" y="1225" on="0"/>
        <pt x="622" y="1197" on="0"/>
        <pt x="686" y="1144" on="0"/>
        <pt x="725" y="1067" on="0"/>
        <pt x="725" y="1019" on="1"/>
        <pt x="725" y="965" on="0"/>
        <pt x="690" y="885" on="0"/>
        <pt x="637" y="825" on="0"/>
        <pt x="575" y="779" on="0"/>
        <pt x="521" y="738" on="0"/>
        <pt x="485" y="697" on="0"/>
        <pt x="484" y="671" on="1"/>
        <pt x="479" y="548" on="1"/>
        <pt x="463" y="548" on="1"/>
        <pt x="463" y="673" on="1"/>
        <pt x="463" y="701" on="0"/>
        <pt x="498" y="745" on="0"/>
        <pt x="552" y="787" on="0"/>
        <pt x="613" y="832" on="0"/>
        <pt x="667" y="890" on="0"/>
        <pt x="702" y="966" on="0"/>
        <pt x="702" y="1018" on="1"/>
        <pt x="702" y="1062" on="0"/>
        <pt x="667" y="1132" on="0"/>
        <pt x="608" y="1180" on="0"/>
        <pt x="532" y="1205" on="0"/>
        <pt x="492" y="1205" on="1"/>
        <pt x="442" y="1205" on="0"/>
        <pt x="367" y="1177" on="0"/>
        <pt x="316" y="1143" on="0"/>
        <pt x="289" y="1115" on="0"/>
        <pt x="286" y="1115" on="1"/>
        <pt x="282" y="1115" on="0"/>
        <pt x="279" y="1118" on="1"/>
      </contour>
      <contour>
        <pt x="422" y="241" on="1"/>
        <pt x="422" y="262" on="0"/>
        <pt x="450" y="292" on="0"/>
        <pt x="471" y="292" on="1"/>
        <pt x="491" y="292" on="0"/>
        <pt x="520" y="262" on="0"/>
        <pt x="520" y="241" on="1"/>
        <pt x="520" y="221" on="0"/>
        <pt x="491" y="192" on="0"/>
        <pt x="471" y="192" on="1"/>
        <pt x="450" y="192" on="0"/>
        <pt x="422" y="221" on="0"/>
      </contour>
      <contour>
        <pt x="50" y="1400" on="1"/>
        <pt x="943" y="1400" on="1"/>
        <pt x="943" y="0" on="1"/>
        <pt x="50" y="0" on="1"/>
      </contour>
      <contour>
        <pt x="70" y="20" on="1"/>
        <pt x="923" y="20" on="1"/>
        <pt x="923" y="1380" on="1"/>
        <pt x="70" y="1380" on="1"/>
      </contour>
    </TTGlyph>
    <TTGlyph name="A" xMin="-42" yMin="0" xMax="1054" yMax="1400">
      <contour>
        <pt x="1054" y="0" on="1"/>
        <pt x="1036" y="0" on="1"/>
        <pt x="1027" y="0" on="0"/>
        <pt x="1024" y="10" on="1"/>
        <pt x="903" y="478" on="1"/>
        <pt x="226" y="478" on="1"/>
        <pt x="-10" y="10" on="1"/>
        <pt x="-15" y="0" on="0"/>
        <pt x="-26" y="0" on="1"/>
        <pt x="-42" y="0" on="1"/>
        <pt x="668" y="1400" on="1"/>
        <pt x="688" y="1400" on="1"/>
      </contour>
      <contour>
        <pt x="236" y="498" on="1"/>
        <pt x="898" y="498" on="1"/>
        <pt x="684" y="1326" on="1"/>
        <pt x="681" y="1337" on="0"/>
        <pt x="676" y="1356" on="0"/>
        <pt x="674" y="1368" on="1"/>
        <pt x="669" y="1357" on="0"/>
        <pt x="659" y="1337" on="0"/>
        <pt x="654" y="1326" on="1"/>
      </contour>
    </TTGlyph>
    <TTGlyph name="AE" xMin="-72" yMin="0" xMax="1672" yMax="1400">
      <contour>
        <pt x="1670" y="1378" on="1"/>
        <pt x="868" y="1378" on="1"/>
        <pt x="868" y="722" on="1"/>
        <pt x="1480" y="722" on="1"/>
        <pt x="1476" y="700" on="1"/>
        <pt x="868" y="700" on="1"/>
        <pt x="868" y="22" on="1"/>
        <pt x="1506" y="22" on="1"/>
        <pt x="1500" y="0" on="1"/>
        <pt x="846" y="0" on="1"/>
        <pt x="846" y="478" on="1"/>
        <pt x="265" y="478" on="1"/>
        <pt x="-38" y="10" on="1"/>
        <pt x="-45" y="0" on="0"/>
        <pt x="-54" y="0" on="1"/>
        <pt x="-72" y="0" on="1"/>
        <pt x="838" y="1400" on="1"/>
        <pt x="1672" y="1400" on="1"/>
      </contour>
      <contour>
        <pt x="278" y="498" on="1"/>
        <pt x="846" y="498" on="1"/>
        <pt x="846" y="1378" on="1"/>
        <pt x="840" y="1364" on="0"/>
        <pt x="826" y="1341" on="0"/>
        <pt x="816" y="1326" on="1"/>
      </contour>
    </TTGlyph>
    <TTGlyph name="Aacute" xMin="-42" yMin="0" xMax="1054" yMax="1760">
      <component glyphName="A" x="0" y="0" flags="0x204"/>
      <component glyphName="acute.case" x="308" y="0" flags="0x4"/>
    </TTGlyph>
    <TTGlyph name="Acircumflex" xMin="-42" yMin="0" xMax="1054" yMax="1728">
      <component glyphName="A" x="0" y="0" flags="0x204"/>
      <component glyphName="circumflex.case" x="308" y="0" flags="0x4"/>
    </TTGlyph>
    <TTGlyph name="Adieresis" xMin="-42" yMin="0" xMax="1054" yMax="1720">
      <component glyphName="A" x="0" y="0" flags="0x204"/>
      <component glyphName="dieresis.case" x="308" y="0" flags="0x4"/>
    </TTGlyph>
    <TTGlyph name="Agrave" xMin="-42" yMin="0" xMax="1054" yMax="1760">
      <component glyphName="A" x="0" y="0" flags="0x204"/>
      <component glyphName="grave.case" x="308" y="0" flags="0x4"/>
    </TTGlyph>
    <TTGlyph name="Aogonek" xMin="-42" yMin="-334" xMax="1140" yMax="1400">
      <contour>
        <pt x="1128" y="-270" on="1"/>
        <pt x="1132" y="-270" on="0"/>
        <pt x="1136" y="-274" on="1"/>
        <pt x="1140" y="-280" on="1"/>
        <pt x="1114" y="-306" on="0"/>
        <pt x="1039" y="-334" on="0"/>
        <pt x="1000" y="-334" on="1"/>
        <pt x="944" y="-334" on="0"/>
        <pt x="874" y="-273" on="0"/>
        <pt x="874" y="-214" on="1"/>
        <pt x="874" y="-177" on="0"/>
        <pt x="903" y="-112" on="0"/>
        <pt x="948" y="-57" on="0"/>
        <pt x="1002" y="-12" on="0"/>
        <pt x="1027" y="4" on="1"/>
        <pt x="1024" y="5" on="0"/>
        <pt x="1024" y="10" on="1"/>
        <pt x="903" y="478" on="1"/>
        <pt x="226" y="478" on="1"/>
        <pt x="-10" y="10" on="1"/>
        <pt x="-17" y="0" on="0"/>
        <pt x="-26" y="0" on="1"/>
        <pt x="-42" y="0" on="1"/>
        <pt x="668" y="1400" on="1"/>
        <pt x="688" y="1400" on="1"/>
        <pt x="1054" y="0" on="1"/>
        <pt x="1033" y="-12" on="0"/>
        <pt x="978" y="-51" on="0"/>
        <pt x="928" y="-105" on="0"/>
        <pt x="894" y="-171" on="0"/>
        <pt x="894" y="-210" on="1"/>
        <pt x="894" y="-258" on="0"/>
        <pt x="956" y="-314" on="0"/>
        <pt x="1004" y="-314" on="1"/>
        <pt x="1034" y="-314" on="0"/>
        <pt x="1077" y="-300" on="0"/>
        <pt x="1106" y="-284" on="0"/>
        <pt x="1123" y="-270" on="0"/>
      </contour>
      <contour>
        <pt x="236" y="498" on="1"/>
        <pt x="898" y="498" on="1"/>
        <pt x="684" y="1326" on="1"/>
        <pt x="681" y="1337" on="0"/>
        <pt x="676" y="1356" on="0"/>
        <pt x="674" y="1367" on="1"/>
        <pt x="669" y="1356" on="0"/>
        <pt x="659" y="1337" on="0"/>
        <pt x="654" y="1326" on="1"/>
      </contour>
    </TTGlyph>
    <TTGlyph name="Aring" xMin="-42" yMin="0" xMax="1054" yMax="1748">
      <component glyphName="A" x="0" y="0" flags="0x204"/>
      <component glyphName="ring.case" x="306" y="0" flags="0x4"/>
    </TTGlyph>
    <TTGlyph name="Atilde" xMin="-42" yMin="0" xMax="1054" yMax="1692">
      <component glyphName="A" x="0" y="0" flags="0x204"/>
      <component glyphName="tilde.case" x="308" y="0" flags="0x4"/>
    </TTGlyph>
    <TTGlyph name="B" xMin="160" yMin="0" xMax="1036" yMax="1400">
      <contour>
        <pt x="160" y="0" on="1"/>
        <pt x="332" y="1400" on="1"/>
        <pt x="668" y="1400" on="1"/>
        <pt x="854" y="1400" on="0"/>
        <pt x="1036" y="1245" on="0"/>
        <pt x="1036" y="1104" on="1"/>
        <pt x="1036" y="1029" on="0"/>
        <pt x="982" y="894" on="0"/>
        <pt x="888" y="788" on="0"/>
        <pt x="763" y="721" on="0"/>
        <pt x="692" y="714" on="1"/>
        <pt x="767" y="708" on="0"/>
        <pt x="886" y="660" on="0"/>
        <pt x="968" y="582" on="0"/>
        <pt x="1012" y="476" on="0"/>
        <pt x="1012" y="410" on="1"/>
        <pt x="1012" y="312" on="0"/>
        <pt x="948" y="160" on="0"/>
        <pt x="828" y="55" on="0"/>
        <pt x="655" y="0" on="0"/>
        <pt x="546" y="0" on="1"/>
      </contour>
      <contour>
        <pt x="270" y="700" on="1"/>
        <pt x="186" y="20" on="1"/>
        <pt x="548" y="20" on="1"/>
        <pt x="651" y="20" on="0"/>
        <pt x="814" y="70" on="0"/>
        <pt x="928" y="169" on="0"/>
        <pt x="988" y="313" on="0"/>
        <pt x="988" y="408" on="1"/>
        <pt x="988" y="475" on="0"/>
        <pt x="939" y="583" on="0"/>
        <pt x="848" y="659" on="0"/>
        <pt x="716" y="700" on="0"/>
        <pt x="634" y="700" on="1"/>
      </contour>
      <contour>
        <pt x="272" y="720" on="1"/>
        <pt x="594" y="720" on="1"/>
        <pt x="705" y="720" on="0"/>
        <pt x="864" y="790" on="0"/>
        <pt x="966" y="901" on="0"/>
        <pt x="1014" y="1035" on="0"/>
        <pt x="1014" y="1100" on="1"/>
        <pt x="1014" y="1232" on="0"/>
        <pt x="843" y="1380" on="0"/>
        <pt x="666" y="1380" on="1"/>
        <pt x="354" y="1380" on="1"/>
      </contour>
    </TTGlyph>
    <TTGlyph name="C" xMin="158" yMin="-16" xMax="1264" yMax="1416">
      <contour>
        <pt x="680" y="4" on="1"/>
        <pt x="759" y="4" on="0"/>
        <pt x="887" y="31" on="0"/>
        <pt x="987" y="73" on="0"/>
        <pt x="1061" y="120" on="0"/>
        <pt x="1111" y="162" on="0"/>
        <pt x="1140" y="189" on="0"/>
        <pt x="1145" y="189" on="1"/>
        <pt x="1149" y="189" on="0"/>
        <pt x="1154" y="183" on="0"/>
        <pt x="1155" y="182" on="1"/>
        <pt x="1158" y="178" on="1"/>
        <pt x="1112" y="135" on="0"/>
        <pt x="1010" y="64" on="0"/>
        <pt x="893" y="13" on="0"/>
        <pt x="757" y="-16" on="0"/>
        <pt x="678" y="-16" on="1"/>
        <pt x="561" y="-16" on="0"/>
        <pt x="369" y="69" on="0"/>
        <pt x="233" y="227" on="0"/>
        <pt x="158" y="451" on="0"/>
        <pt x="158" y="590" on="1"/>
        <pt x="158" y="774" on="0"/>
        <pt x="267" y="1079" on="0"/>
        <pt x="459" y="1296" on="0"/>
        <pt x="720" y="1416" on="0"/>
        <pt x="872" y="1416" on="1"/>
        <pt x="942" y="1416" on="0"/>
        <pt x="1052" y="1396" on="0"/>
        <pt x="1144" y="1355" on="0"/>
        <pt x="1224" y="1293" on="0"/>
        <pt x="1264" y="1252" on="1"/>
        <pt x="1262" y="1249" on="1"/>
        <pt x="1258" y="1242" on="0"/>
        <pt x="1248" y="1242" on="1"/>
        <pt x="1240" y="1242" on="0"/>
        <pt x="1198" y="1290" on="0"/>
        <pt x="1113" y="1348" on="0"/>
        <pt x="975" y="1396" on="0"/>
        <pt x="870" y="1396" on="1"/>
        <pt x="725" y="1396" on="0"/>
        <pt x="474" y="1283" on="0"/>
        <pt x="288" y="1073" on="0"/>
        <pt x="182" y="775" on="0"/>
        <pt x="182" y="590" on="1"/>
        <pt x="182" y="455" on="0"/>
        <pt x="255" y="238" on="0"/>
        <pt x="387" y="86" on="0"/>
        <pt x="570" y="4" on="0"/>
      </contour>
    </TTGlyph>
    <TTGlyph name="Cacute" xMin="158" yMin="-16" xMax="1264" yMax="1760">
      <component glyphName="C" x="0" y="0" flags="0x4"/>
      <component glyphName="acute.case" x="490" y="0" flags="0x4"/>
    </TTGlyph>
    <TTGlyph name="Ccedilla" xMin="158" yMin="-358" xMax="1264" yMax="1416">
      <contour>
        <pt x="532" y="-296" on="1"/>
        <pt x="536" y="-296" on="0"/>
        <pt x="551" y="-310" on="0"/>
        <pt x="578" y="-326" on="0"/>
        <pt x="620" y="-340" on="0"/>
        <pt x="652" y="-340" on="1"/>
        <pt x="712" y="-340" on="0"/>
        <pt x="782" y="-279" on="0"/>
        <pt x="782" y="-228" on="1"/>
        <pt x="782" y="-201" on="0"/>
        <pt x="757" y="-166" on="0"/>
        <pt x="712" y="-143" on="0"/>
        <pt x="652" y="-131" on="0"/>
        <pt x="618" y="-126" on="1"/>
        <pt x="665" y="-15" on="1"/>
        <pt x="551" y="-13" on="0"/>
        <pt x="364" y="74" on="0"/>
        <pt x="231" y="232" on="0"/>
        <pt x="158" y="453" on="0"/>
        <pt x="158" y="590" on="1"/>
        <pt x="158" y="774" on="0"/>
        <pt x="267" y="1079" on="0"/>
        <pt x="459" y="1296" on="0"/>
        <pt x="720" y="1416" on="0"/>
        <pt x="872" y="1416" on="1"/>
        <pt x="942" y="1416" on="0"/>
        <pt x="1052" y="1396" on="0"/>
        <pt x="1144" y="1355" on="0"/>
        <pt x="1224" y="1293" on="0"/>
        <pt x="1264" y="1252" on="1"/>
        <pt x="1260" y="1246" on="1"/>
        <pt x="1256" y="1242" on="0"/>
        <pt x="1248" y="1242" on="1"/>
        <pt x="1240" y="1242" on="0"/>
        <pt x="1198" y="1290" on="0"/>
        <pt x="1113" y="1348" on="0"/>
        <pt x="975" y="1396" on="0"/>
        <pt x="870" y="1396" on="1"/>
        <pt x="725" y="1396" on="0"/>
        <pt x="474" y="1283" on="0"/>
        <pt x="288" y="1073" on="0"/>
        <pt x="182" y="775" on="0"/>
        <pt x="182" y="590" on="1"/>
        <pt x="182" y="455" on="0"/>
        <pt x="255" y="238" on="0"/>
        <pt x="387" y="86" on="0"/>
        <pt x="570" y="4" on="0"/>
        <pt x="680" y="4" on="1"/>
        <pt x="759" y="4" on="0"/>
        <pt x="887" y="31" on="0"/>
        <pt x="987" y="73" on="0"/>
        <pt x="1061" y="120" on="0"/>
        <pt x="1111" y="162" on="0"/>
        <pt x="1140" y="189" on="0"/>
        <pt x="1145" y="189" on="1"/>
        <pt x="1147" y="189" on="0"/>
        <pt x="1149" y="187" on="1"/>
        <pt x="1158" y="178" on="1"/>
        <pt x="1112" y="135" on="0"/>
        <pt x="1011" y="64" on="0"/>
        <pt x="894" y="13" on="0"/>
        <pt x="760" y="-16" on="0"/>
        <pt x="681" y="-16" on="1"/>
        <pt x="643" y="-110" on="1"/>
        <pt x="679" y="-116" on="0"/>
        <pt x="738" y="-133" on="0"/>
        <pt x="781" y="-160" on="0"/>
        <pt x="804" y="-197" on="0"/>
        <pt x="804" y="-224" on="1"/>
        <pt x="804" y="-256" on="0"/>
        <pt x="779" y="-305" on="0"/>
        <pt x="736" y="-340" on="0"/>
        <pt x="678" y="-358" on="0"/>
        <pt x="644" y="-358" on="1"/>
        <pt x="606" y="-358" on="0"/>
        <pt x="536" y="-329" on="0"/>
        <pt x="518" y="-306" on="1"/>
        <pt x="522" y="-302" on="1"/>
        <pt x="528" y="-296" on="0"/>
      </contour>
    </TTGlyph>
    <TTGlyph name="D" xMin="160" yMin="0" xMax="1312" yMax="1400">
      <contour>
        <pt x="1312" y="812" on="1"/>
        <pt x="1312" y="621" on="0"/>
        <pt x="1207" y="320" on="0"/>
        <pt x="1022" y="111" on="0"/>
        <pt x="768" y="0" on="0"/>
        <pt x="620" y="0" on="1"/>
        <pt x="160" y="0" on="1"/>
        <pt x="332" y="1400" on="1"/>
        <pt x="792" y="1400" on="1"/>
        <pt x="911" y="1400" on="0"/>
        <pt x="1104" y="1319" on="0"/>
        <pt x="1239" y="1167" on="0"/>
        <pt x="1312" y="949" on="0"/>
      </contour>
      <contour>
        <pt x="1286" y="812" on="1"/>
        <pt x="1286" y="945" on="0"/>
        <pt x="1216" y="1156" on="0"/>
        <pt x="1087" y="1303" on="0"/>
        <pt x="903" y="1380" on="0"/>
        <pt x="790" y="1380" on="1"/>
        <pt x="354" y="1380" on="1"/>
        <pt x="186" y="20" on="1"/>
        <pt x="622" y="20" on="1"/>
        <pt x="764" y="20" on="0"/>
        <pt x="1008" y="126" on="0"/>
        <pt x="1185" y="329" on="0"/>
        <pt x="1286" y="624" on="0"/>
      </contour>
    </TTGlyph>
    <TTGlyph name="Delta" xMin="-42" yMin="0" xMax="1054" yMax="1400">
      <contour>
        <pt x="1054" y="0" on="1"/>
        <pt x="-42" y="0" on="1"/>
        <pt x="668" y="1400" on="1"/>
        <pt x="688" y="1400" on="1"/>
      </contour>
      <contour>
        <pt x="-5" y="20" on="1"/>
        <pt x="1021" y="20" on="1"/>
        <pt x="684" y="1326" on="1"/>
        <pt x="681" y="1337" on="0"/>
        <pt x="676" y="1356" on="0"/>
        <pt x="674" y="1367" on="1"/>
        <pt x="669" y="1356" on="0"/>
        <pt x="659" y="1337" on="0"/>
        <pt x="654" y="1326" on="1"/>
      </contour>
    </TTGlyph>
    <TTGlyph name="E" xMin="160" yMin="0" xMax="1086" yMax="1400">
      <contour>
        <pt x="1086" y="1400" on="1"/>
        <pt x="1082" y="1378" on="1"/>
        <pt x="353" y="1378" on="1"/>
        <pt x="272" y="722" on="1"/>
        <pt x="892" y="722" on="1"/>
        <pt x="888" y="700" on="1"/>
        <pt x="270" y="700" on="1"/>
        <pt x="186" y="22" on="1"/>
        <pt x="918" y="22" on="1"/>
        <pt x="914" y="0" on="1"/>
        <pt x="160" y="0" on="1"/>
        <pt x="332" y="1400" on="1"/>
      </contour>
    </TTGlyph>
    <TTGlyph name="Eacute" xMin="160" yMin="0" xMax="1086" yMax="1760">
      <component glyphName="E" x="0" y="0" flags="0x204"/>
      <component glyphName="acute.case" x="358" y="0" flags="0x4"/>
    </TTGlyph>
    <TTGlyph name="Ecircumflex" xMin="160" yMin="0" xMax="1086" yMax="1728">
      <component glyphName="E" x="0" y="0" flags="0x204"/>
      <component glyphName="circumflex.case" x="358" y="0" flags="0x4"/>
    </TTGlyph>
    <TTGlyph name="Edieresis" xMin="160" yMin="0" xMax="1086" yMax="1720">
      <component glyphName="E" x="0" y="0" flags="0x204"/>
      <component glyphName="dieresis.case" x="358" y="0" flags="0x4"/>
    </TTGlyph>
    <TTGlyph name="Egrave" xMin="160" yMin="0" xMax="1086" yMax="1760">
      <component glyphName="E" x="0" y="0" flags="0x204"/>
      <component glyphName="grave.case" x="358" y="0" flags="0x4"/>
    </TTGlyph>
    <TTGlyph name="Eogonek" xMin="160" yMin="-334" xMax="1086" yMax="1400">
      <contour>
        <pt x="872" y="-270" on="1"/>
        <pt x="876" y="-270" on="0"/>
        <pt x="880" y="-274" on="1"/>
        <pt x="884" y="-280" on="1"/>
        <pt x="858" y="-306" on="0"/>
        <pt x="783" y="-334" on="0"/>
        <pt x="744" y="-334" on="1"/>
        <pt x="688" y="-334" on="0"/>
        <pt x="618" y="-273" on="0"/>
        <pt x="618" y="-214" on="1"/>
        <pt x="618" y="-178" on="0"/>
        <pt x="645" y="-115" on="0"/>
        <pt x="688" y="-60" on="0"/>
        <pt x="740" y="-16" on="0"/>
        <pt x="765" y="0" on="1"/>
        <pt x="160" y="0" on="1"/>
        <pt x="332" y="1400" on="1"/>
        <pt x="1086" y="1400" on="1"/>
        <pt x="1082" y="1378" on="1"/>
        <pt x="353" y="1378" on="1"/>
        <pt x="272" y="722" on="1"/>
        <pt x="892" y="722" on="1"/>
        <pt x="888" y="700" on="1"/>
        <pt x="270" y="700" on="1"/>
        <pt x="186" y="22" on="1"/>
        <pt x="918" y="22" on="1"/>
        <pt x="914" y="0" on="1"/>
        <pt x="798" y="0" on="1"/>
        <pt x="777" y="-12" on="0"/>
        <pt x="722" y="-51" on="0"/>
        <pt x="672" y="-105" on="0"/>
        <pt x="638" y="-171" on="0"/>
        <pt x="638" y="-210" on="1"/>
        <pt x="638" y="-258" on="0"/>
        <pt x="700" y="-314" on="0"/>
        <pt x="748" y="-314" on="1"/>
        <pt x="778" y="-314" on="0"/>
        <pt x="821" y="-300" on="0"/>
        <pt x="850" y="-284" on="0"/>
        <pt x="867" y="-270" on="0"/>
      </contour>
    </TTGlyph>
    <TTGlyph name="Eth" xMin="70" yMin="0" xMax="1348" yMax="1400">
      <contour>
        <pt x="72" y="722" on="1"/>
        <pt x="286" y="722" on="1"/>
        <pt x="370" y="1400" on="1"/>
        <pt x="830" y="1400" on="1"/>
        <pt x="948" y="1400" on="0"/>
        <pt x="1140" y="1319" on="0"/>
        <pt x="1275" y="1167" on="0"/>
        <pt x="1348" y="949" on="0"/>
        <pt x="1348" y="812" on="1"/>
        <pt x="1348" y="621" on="0"/>
        <pt x="1244" y="320" on="0"/>
        <pt x="1059" y="111" on="0"/>
        <pt x="806" y="0" on="0"/>
        <pt x="658" y="0" on="1"/>
        <pt x="198" y="0" on="1"/>
        <pt x="284" y="702" on="1"/>
        <pt x="70" y="702" on="1"/>
      </contour>
      <contour>
        <pt x="1322" y="812" on="1"/>
        <pt x="1322" y="945" on="0"/>
        <pt x="1252" y="1156" on="0"/>
        <pt x="1123" y="1303" on="0"/>
        <pt x="940" y="1380" on="0"/>
        <pt x="828" y="1380" on="1"/>
        <pt x="390" y="1380" on="1"/>
        <pt x="309" y="722" on="1"/>
        <pt x="700" y="722" on="1"/>
        <pt x="698" y="702" on="1"/>
        <pt x="307" y="702" on="1"/>
        <pt x="224" y="20" on="1"/>
        <pt x="660" y="20" on="1"/>
        <pt x="802" y="20" on="0"/>
        <pt x="1045" y="126" on="0"/>
        <pt x="1222" y="329" on="0"/>
        <pt x="1322" y="624" on="0"/>
      </contour>
    </TTGlyph>
    <TTGlyph name="Euro" xMin="40" yMin="-16" xMax="1202" yMax="1416">
      <contour>
        <pt x="70" y="832" on="1"/>
        <pt x="243" y="832" on="1"/>
        <pt x="270" y="969" on="0"/>
        <pt x="378" y="1186" on="0"/>
        <pt x="533" y="1336" on="0"/>
        <pt x="731" y="1416" on="0"/>
        <pt x="848" y="1416" on="1"/>
        <pt x="910" y="1416" on="0"/>
        <pt x="1011" y="1396" on="0"/>
        <pt x="1096" y="1355" on="0"/>
        <pt x="1168" y="1293" on="0"/>
        <pt x="1202" y="1252" on="1"/>
        <pt x="1199" y="1248" on="1"/>
        <pt x="1194" y="1242" on="0"/>
        <pt x="1188" y="1242" on="1"/>
        <pt x="1183" y="1242" on="0"/>
        <pt x="1164" y="1265" on="0"/>
        <pt x="1131" y="1299" on="0"/>
        <pt x="1081" y="1339" on="0"/>
        <pt x="1009" y="1373" on="0"/>
        <pt x="910" y="1396" on="0"/>
        <pt x="846" y="1396" on="1"/>
        <pt x="736" y="1396" on="0"/>
        <pt x="547" y="1321" on="0"/>
        <pt x="398" y="1177" on="0"/>
        <pt x="293" y="967" on="0"/>
        <pt x="266" y="832" on="1"/>
        <pt x="922" y="832" on="1"/>
        <pt x="922" y="824" on="1"/>
        <pt x="922" y="812" on="0"/>
        <pt x="906" y="812" on="1"/>
        <pt x="262" y="812" on="1"/>
        <pt x="254" y="763" on="0"/>
        <pt x="244" y="660" on="0"/>
        <pt x="242" y="604" on="1"/>
        <pt x="804" y="604" on="1"/>
        <pt x="804" y="596" on="1"/>
        <pt x="804" y="584" on="0"/>
        <pt x="788" y="584" on="1"/>
        <pt x="242" y="584" on="1"/>
        <pt x="242" y="560" on="1"/>
        <pt x="242" y="427" on="0"/>
        <pt x="300" y="220" on="0"/>
        <pt x="411" y="78" on="0"/>
        <pt x="569" y="4" on="0"/>
        <pt x="670" y="4" on="1"/>
        <pt x="738" y="4" on="0"/>
        <pt x="849" y="31" on="0"/>
        <pt x="936" y="72" on="0"/>
        <pt x="1002" y="120" on="0"/>
        <pt x="1047" y="161" on="0"/>
        <pt x="1075" y="188" on="0"/>
        <pt x="1082" y="188" on="1"/>
        <pt x="1085" y="188" on="0"/>
        <pt x="1087" y="186" on="0"/>
        <pt x="1090" y="183" on="1"/>
        <pt x="1094" y="178" on="1"/>
        <pt x="1053" y="135" on="0"/>
        <pt x="962" y="64" on="0"/>
        <pt x="857" y="13" on="0"/>
        <pt x="736" y="-16" on="0"/>
        <pt x="666" y="-16" on="1"/>
        <pt x="560" y="-16" on="0"/>
        <pt x="394" y="62" on="0"/>
        <pt x="279" y="209" on="0"/>
        <pt x="218" y="422" on="0"/>
        <pt x="218" y="558" on="1"/>
        <pt x="218" y="584" on="1"/>
        <pt x="40" y="584" on="1"/>
        <pt x="42" y="604" on="1"/>
        <pt x="219" y="604" on="1"/>
        <pt x="221" y="659" on="0"/>
        <pt x="230" y="763" on="0"/>
        <pt x="239" y="812" on="1"/>
        <pt x="68" y="812" on="1"/>
      </contour>
    </TTGlyph>
    <TTGlyph name="F" xMin="160" yMin="0" xMax="1086" yMax="1400">
      <contour>
        <pt x="1082" y="1378" on="1"/>
        <pt x="353" y="1378" on="1"/>
        <pt x="270" y="702" on="1"/>
        <pt x="908" y="702" on="1"/>
        <pt x="904" y="680" on="1"/>
        <pt x="267" y="680" on="1"/>
        <pt x="184" y="0" on="1"/>
        <pt x="160" y="0" on="1"/>
        <pt x="332" y="1400" on="1"/>
        <pt x="1086" y="1400" on="1"/>
      </contour>
    </TTGlyph>
    <TTGlyph name="G" xMin="158" yMin="-16" xMax="1300" yMax="1416">
      <contour>
        <pt x="696" y="4" on="1"/>
        <pt x="775" y="4" on="0"/>
        <pt x="906" y="23" on="0"/>
        <pt x="1020" y="60" on="0"/>
        <pt x="1124" y="113" on="0"/>
        <pt x="1178" y="147" on="1"/>
        <pt x="1232" y="582" on="1"/>
        <pt x="944" y="582" on="1"/>
        <pt x="934" y="582" on="0"/>
        <pt x="934" y="592" on="1"/>
        <pt x="934" y="602" on="1"/>
        <pt x="1256" y="602" on="1"/>
        <pt x="1198" y="138" on="1"/>
        <pt x="1146" y="103" on="0"/>
        <pt x="1037" y="46" on="0"/>
        <pt x="915" y="6" on="0"/>
        <pt x="776" y="-16" on="0"/>
        <pt x="694" y="-16" on="1"/>
        <pt x="569" y="-16" on="0"/>
        <pt x="371" y="69" on="0"/>
        <pt x="232" y="227" on="0"/>
        <pt x="158" y="450" on="0"/>
        <pt x="158" y="588" on="1"/>
        <pt x="158" y="777" on="0"/>
        <pt x="264" y="1083" on="0"/>
        <pt x="457" y="1299" on="0"/>
        <pt x="726" y="1416" on="0"/>
        <pt x="890" y="1416" on="1"/>
        <pt x="962" y="1416" on="0"/>
        <pt x="1079" y="1397" on="0"/>
        <pt x="1178" y="1358" on="0"/>
        <pt x="1262" y="1297" on="0"/>
        <pt x="1300" y="1256" on="1"/>
        <pt x="1298" y="1252" on="1"/>
        <pt x="1296" y="1249" on="0"/>
        <pt x="1291" y="1244" on="0"/>
        <pt x="1284" y="1244" on="1"/>
        <pt x="1279" y="1244" on="0"/>
        <pt x="1258" y="1267" on="0"/>
        <pt x="1220" y="1300" on="0"/>
        <pt x="1161" y="1340" on="0"/>
        <pt x="1076" y="1373" on="0"/>
        <pt x="962" y="1396" on="0"/>
        <pt x="888" y="1396" on="1"/>
        <pt x="731" y="1396" on="0"/>
        <pt x="471" y="1284" on="0"/>
        <pt x="285" y="1075" on="0"/>
        <pt x="182" y="775" on="0"/>
        <pt x="182" y="588" on="1"/>
        <pt x="182" y="454" on="0"/>
        <pt x="254" y="238" on="0"/>
        <pt x="388" y="86" on="0"/>
        <pt x="578" y="4" on="0"/>
      </contour>
    </TTGlyph>
    <TTGlyph name="H" xMin="160" yMin="0" xMax="1282" yMax="1400">
      <contour>
        <pt x="1110" y="0" on="1"/>
        <pt x="1086" y="0" on="1"/>
        <pt x="1172" y="700" on="1"/>
        <pt x="270" y="700" on="1"/>
        <pt x="184" y="0" on="1"/>
        <pt x="160" y="0" on="1"/>
        <pt x="332" y="1400" on="1"/>
        <pt x="356" y="1400" on="1"/>
        <pt x="272" y="722" on="1"/>
        <pt x="1174" y="722" on="1"/>
        <pt x="1258" y="1400" on="1"/>
        <pt x="1282" y="1400" on="1"/>
      </contour>
    </TTGlyph>
    <TTGlyph name="I" xMin="196" yMin="0" xMax="392" yMax="1400">
      <contour>
        <pt x="220" y="0" on="1"/>
        <pt x="196" y="0" on="1"/>
        <pt x="368" y="1400" on="1"/>
        <pt x="392" y="1400" on="1"/>
      </contour>
    </TTGlyph>
    <TTGlyph name="Iacute" xMin="196" yMin="0" xMax="652" yMax="1760">
      <component glyphName="I" x="0" y="0" flags="0x204"/>
      <component glyphName="acute.case" x="10" y="0" flags="0x4"/>
    </TTGlyph>
    <TTGlyph name="Icircumflex" xMin="164" yMin="0" xMax="608" yMax="1728">
      <component glyphName="I" x="0" y="0" flags="0x204"/>
      <component glyphName="circumflex.case" x="10" y="0" flags="0x4"/>
    </TTGlyph>
    <TTGlyph name="Idieresis" xMin="182" yMin="0" xMax="622" yMax="1720">
      <component glyphName="I" x="0" y="0" flags="0x204"/>
      <component glyphName="dieresis.case" x="10" y="0" flags="0x4"/>
    </TTGlyph>
    <TTGlyph name="Igrave" xMin="166" yMin="0" xMax="434" yMax="1760">
      <component glyphName="I" x="0" y="0" flags="0x204"/>
      <component glyphName="grave.case" x="10" y="0" flags="0x4"/>
    </TTGlyph>
    <TTGlyph name="J" xMin="46" yMin="-16" xMax="742" yMax="1400">
      <contour>
        <pt x="620" y="412" on="1"/>
        <pt x="606" y="297" on="0"/>
        <pt x="537" y="135" on="0"/>
        <pt x="435" y="32" on="0"/>
        <pt x="305" y="-16" on="0"/>
        <pt x="229" y="-16" on="1"/>
        <pt x="224" y="-16" on="1"/>
        <pt x="170" y="-16" on="0"/>
        <pt x="85" y="-1" on="0"/>
        <pt x="46" y="14" on="1"/>
        <pt x="48" y="20" on="1"/>
        <pt x="49" y="23" on="0"/>
        <pt x="54" y="30" on="0"/>
        <pt x="62" y="30" on="1"/>
        <pt x="71" y="30" on="0"/>
        <pt x="94" y="22" on="0"/>
        <pt x="131" y="12" on="0"/>
        <pt x="185" y="4" on="0"/>
        <pt x="226" y="4" on="1"/>
        <pt x="291" y="4" on="0"/>
        <pt x="412" y="44" on="0"/>
        <pt x="511" y="138" on="0"/>
        <pt x="582" y="295" on="0"/>
        <pt x="596" y="412" on="1"/>
        <pt x="718" y="1400" on="1"/>
        <pt x="742" y="1400" on="1"/>
      </contour>
    </TTGlyph>
    <TTGlyph name="K" xMin="196" yMin="0" xMax="1214" yMax="1402">
      <contour>
        <pt x="309" y="724" on="1"/>
        <pt x="396" y="724" on="1"/>
        <pt x="413" y="724" on="0"/>
        <pt x="438" y="726" on="0"/>
        <pt x="459" y="733" on="0"/>
        <pt x="478" y="747" on="0"/>
        <pt x="490" y="758" on="1"/>
        <pt x="1164" y="1384" on="1"/>
        <pt x="1175" y="1395" on="0"/>
        <pt x="1191" y="1400" on="0"/>
        <pt x="1200" y="1400" on="1"/>
        <pt x="1214" y="1400" on="1"/>
        <pt x="510" y="748" on="1"/>
        <pt x="493" y="731" on="0"/>
        <pt x="469" y="717" on="0"/>
        <pt x="452" y="714" on="1"/>
        <pt x="468" y="711" on="0"/>
        <pt x="489" y="696" on="0"/>
        <pt x="500" y="682" on="1"/>
        <pt x="1078" y="0" on="1"/>
        <pt x="1068" y="0" on="1"/>
        <pt x="1053" y="0" on="0"/>
        <pt x="1042" y="6" on="0"/>
        <pt x="1036" y="14" on="1"/>
        <pt x="484" y="664" on="1"/>
        <pt x="478" y="671" on="0"/>
        <pt x="467" y="685" on="0"/>
        <pt x="449" y="697" on="0"/>
        <pt x="419" y="704" on="0"/>
        <pt x="394" y="704" on="1"/>
        <pt x="306" y="704" on="1"/>
        <pt x="220" y="0" on="1"/>
        <pt x="196" y="0" on="1"/>
        <pt x="368" y="1402" on="1"/>
        <pt x="392" y="1402" on="1"/>
      </contour>
    </TTGlyph>
    <TTGlyph name="L" xMin="160" yMin="0" xMax="844" yMax="1400">
      <contour>
        <pt x="186" y="22" on="1"/>
        <pt x="844" y="22" on="1"/>
        <pt x="840" y="0" on="1"/>
        <pt x="160" y="0" on="1"/>
        <pt x="332" y="1400" on="1"/>
        <pt x="356" y="1400" on="1"/>
      </contour>
    </TTGlyph>
    <TTGlyph name="Lslash" xMin="66" yMin="0" xMax="874" yMax="1400">
      <contour>
        <pt x="293" y="650" on="1"/>
        <pt x="730" y="886" on="1"/>
        <pt x="730" y="880" on="1"/>
        <pt x="730" y="874" on="0"/>
        <pt x="725" y="865" on="0"/>
        <pt x="716" y="860" on="1"/>
        <pt x="291" y="629" on="1"/>
        <pt x="216" y="22" on="1"/>
        <pt x="874" y="22" on="1"/>
        <pt x="870" y="0" on="1"/>
        <pt x="190" y="0" on="1"/>
        <pt x="266" y="617" on="1"/>
        <pt x="66" y="510" on="1"/>
        <pt x="67" y="518" on="1"/>
        <pt x="68" y="526" on="0"/>
        <pt x="74" y="533" on="0"/>
        <pt x="82" y="538" on="1"/>
        <pt x="268" y="639" on="1"/>
        <pt x="362" y="1400" on="1"/>
        <pt x="386" y="1400" on="1"/>
      </contour>
    </TTGlyph>
    <TTGlyph name="M" xMin="160" yMin="0" xMax="1546" yMax="1400">
      <contour>
        <pt x="808" y="314" on="1"/>
        <pt x="812" y="307" on="0"/>
        <pt x="813" y="300" on="1"/>
        <pt x="1524" y="1392" on="1"/>
        <pt x="1529" y="1400" on="0"/>
        <pt x="1538" y="1400" on="1"/>
        <pt x="1546" y="1400" on="1"/>
        <pt x="1374" y="0" on="1"/>
        <pt x="1354" y="0" on="1"/>
        <pt x="1518" y="1338" on="1"/>
        <pt x="1519" y="1344" on="0"/>
        <pt x="1519" y="1350" on="0"/>
        <pt x="1520" y="1352" on="1"/>
        <pt x="828" y="290" on="1"/>
        <pt x="821" y="280" on="0"/>
        <pt x="814" y="280" on="1"/>
        <pt x="808" y="280" on="1"/>
        <pt x="799" y="280" on="0"/>
        <pt x="796" y="290" on="1"/>
        <pt x="345" y="1357" on="1"/>
        <pt x="345" y="1352" on="0"/>
        <pt x="345" y="1343" on="0"/>
        <pt x="344" y="1338" on="1"/>
        <pt x="180" y="0" on="1"/>
        <pt x="160" y="0" on="1"/>
        <pt x="332" y="1400" on="1"/>
        <pt x="340" y="1400" on="1"/>
        <pt x="345" y="1400" on="0"/>
        <pt x="352" y="1397" on="0"/>
        <pt x="354" y="1392" on="1"/>
        <pt x="808" y="314" on="1"/>
      </contour>
    </TTGlyph>
    <TTGlyph name="N" xMin="160" yMin="0" xMax="1282" yMax="1400">
      <contour>
        <pt x="340" y="1400" on="1"/>
        <pt x="347" y="1400" on="0"/>
        <pt x="352" y="1392" on="1"/>
        <pt x="1097" y="43" on="1"/>
        <pt x="1097" y="48" on="0"/>
        <pt x="1097" y="59" on="0"/>
        <pt x="1098" y="64" on="1"/>
        <pt x="1262" y="1400" on="1"/>
        <pt x="1282" y="1400" on="1"/>
        <pt x="1110" y="0" on="1"/>
        <pt x="1106" y="0" on="1"/>
        <pt x="1099" y="0" on="0"/>
        <pt x="1092" y="10" on="1"/>
        <pt x="346" y="1362" on="1"/>
        <pt x="345" y="1357" on="0"/>
        <pt x="345" y="1353" on="1"/>
        <pt x="345" y="1349" on="0"/>
        <pt x="344" y="1341" on="0"/>
        <pt x="344" y="1338" on="1"/>
        <pt x="180" y="0" on="1"/>
        <pt x="160" y="0" on="1"/>
        <pt x="332" y="1400" on="1"/>
        <pt x="340" y="1400" on="1"/>
      </contour>
    </TTGlyph>
    <TTGlyph name="Nacute" xMin="160" yMin="0" xMax="1282" yMax="1760">
      <component glyphName="N" x="0" y="0" flags="0x204"/>
      <component glyphName="acute.case" x="440" y="0" flags="0x4"/>
    </TTGlyph>
    <TTGlyph name="Ntilde" xMin="160" yMin="0" xMax="1282" yMax="1692">
      <component glyphName="N" x="0" y="0" flags="0x204"/>
      <component glyphName="tilde.case" x="440" y="0" flags="0x4"/>
    </TTGlyph>
    <TTGlyph name="O" xMin="158" yMin="-14" xMax="1368" yMax="1416">
      <contour>
        <pt x="1368" y="814" on="1"/>
        <pt x="1368" y="623" on="0"/>
        <pt x="1262" y="317" on="0"/>
        <pt x="1076" y="102" on="0"/>
        <pt x="822" y="-14" on="0"/>
        <pt x="674" y="-14" on="1"/>
        <pt x="556" y="-14" on="0"/>
        <pt x="366" y="71" on="0"/>
        <pt x="231" y="227" on="0"/>
        <pt x="158" y="449" on="0"/>
        <pt x="158" y="586" on="1"/>
        <pt x="158" y="712" on="0"/>
        <pt x="206" y="934" on="0"/>
        <pt x="295" y="1118" on="0"/>
        <pt x="420" y="1263" on="0"/>
        <pt x="574" y="1363" on="0"/>
        <pt x="752" y="1416" on="0"/>
        <pt x="850" y="1416" on="1"/>
        <pt x="968" y="1416" on="0"/>
        <pt x="1160" y="1331" on="0"/>
        <pt x="1295" y="1174" on="0"/>
        <pt x="1368" y="951" on="0"/>
      </contour>
      <contour>
        <pt x="1342" y="814" on="1"/>
        <pt x="1342" y="948" on="0"/>
        <pt x="1272" y="1164" on="0"/>
        <pt x="1143" y="1315" on="0"/>
        <pt x="960" y="1396" on="0"/>
        <pt x="848" y="1396" on="1"/>
        <pt x="755" y="1396" on="0"/>
        <pt x="584" y="1346" on="0"/>
        <pt x="436" y="1250" on="0"/>
        <pt x="315" y="1109" on="0"/>
        <pt x="229" y="930" on="0"/>
        <pt x="182" y="713" on="0"/>
        <pt x="182" y="588" on="1"/>
        <pt x="182" y="454" on="0"/>
        <pt x="253" y="238" on="0"/>
        <pt x="383" y="87" on="0"/>
        <pt x="565" y="6" on="0"/>
        <pt x="676" y="6" on="1"/>
        <pt x="818" y="6" on="0"/>
        <pt x="1062" y="117" on="0"/>
        <pt x="1241" y="326" on="0"/>
        <pt x="1342" y="626" on="0"/>
      </contour>
    </TTGlyph>
    <TTGlyph name="OE" xMin="158" yMin="-12" xMax="2062" yMax="1416">
      <contour>
        <pt x="2062" y="1400" on="1"/>
        <pt x="2060" y="1378" on="1"/>
        <pt x="1337" y="1378" on="1"/>
        <pt x="1256" y="722" on="1"/>
        <pt x="1868" y="722" on="1"/>
        <pt x="1866" y="700" on="1"/>
        <pt x="1254" y="700" on="1"/>
        <pt x="1170" y="22" on="1"/>
        <pt x="1894" y="22" on="1"/>
        <pt x="1890" y="0" on="1"/>
        <pt x="1144" y="0" on="1"/>
        <pt x="1202" y="470" on="1"/>
        <pt x="1167" y="356" on="0"/>
        <pt x="1052" y="177" on="0"/>
        <pt x="902" y="53" on="0"/>
        <pt x="719" y="-12" on="0"/>
        <pt x="616" y="-12" on="1"/>
        <pt x="511" y="-12" on="0"/>
        <pt x="342" y="70" on="0"/>
        <pt x="222" y="223" on="0"/>
        <pt x="158" y="441" on="0"/>
        <pt x="158" y="576" on="1"/>
        <pt x="158" y="768" on="0"/>
        <pt x="256" y="1078" on="0"/>
        <pt x="427" y="1297" on="0"/>
        <pt x="657" y="1416" on="0"/>
        <pt x="790" y="1416" on="1"/>
        <pt x="894" y="1416" on="0"/>
        <pt x="1060" y="1338" on="0"/>
        <pt x="1179" y="1196" on="0"/>
        <pt x="1246" y="993" on="0"/>
        <pt x="1251" y="869" on="1"/>
        <pt x="1316" y="1400" on="1"/>
      </contour>
      <contour>
        <pt x="1232" y="824" on="1"/>
        <pt x="1232" y="955" on="0"/>
        <pt x="1170" y="1167" on="0"/>
        <pt x="1056" y="1316" on="0"/>
        <pt x="893" y="1396" on="0"/>
        <pt x="792" y="1396" on="1"/>
        <pt x="664" y="1396" on="0"/>
        <pt x="442" y="1282" on="0"/>
        <pt x="277" y="1070" on="0"/>
        <pt x="182" y="767" on="0"/>
        <pt x="182" y="578" on="1"/>
        <pt x="182" y="446" on="0"/>
        <pt x="245" y="235" on="0"/>
        <pt x="360" y="87" on="0"/>
        <pt x="522" y="8" on="0"/>
        <pt x="622" y="8" on="1"/>
        <pt x="752" y="8" on="0"/>
        <pt x="975" y="121" on="0"/>
        <pt x="1139" y="332" on="0"/>
        <pt x="1232" y="634" on="0"/>
      </contour>
    </TTGlyph>
    <TTGlyph name="Oacute" xMin="158" yMin="-14" xMax="1368" yMax="1760">
      <component glyphName="O" x="0" y="0" flags="0x204"/>
      <component glyphName="acute.case" x="472" y="0" flags="0x4"/>
    </TTGlyph>
    <TTGlyph name="Ocircumflex" xMin="158" yMin="-14" xMax="1368" yMax="1728">
      <component glyphName="O" x="0" y="0" flags="0x204"/>
      <component glyphName="circumflex.case" x="472" y="0" flags="0x4"/>
    </TTGlyph>
    <TTGlyph name="Odieresis" xMin="158" yMin="-14" xMax="1368" yMax="1720">
      <component glyphName="O" x="0" y="0" flags="0x204"/>
      <component glyphName="dieresis.case" x="472" y="0" flags="0x4"/>
    </TTGlyph>
    <TTGlyph name="Ograve" xMin="158" yMin="-14" xMax="1368" yMax="1760">
      <component glyphName="O" x="0" y="0" flags="0x204"/>
      <component glyphName="grave.case" x="472" y="0" flags="0x4"/>
    </TTGlyph>
    <TTGlyph name="Omega" xMin="52" yMin="0" xMax="1334" yMax="1416">
      <contour>
        <pt x="762" y="0" on="1"/>
        <pt x="798" y="298" on="1"/>
        <pt x="912" y="326" on="0"/>
        <pt x="1100" y="427" on="0"/>
        <pt x="1235" y="578" on="0"/>
        <pt x="1310" y="781" on="0"/>
        <pt x="1310" y="910" on="1"/>
        <pt x="1310" y="1031" on="0"/>
        <pt x="1231" y="1213" on="0"/>
        <pt x="1095" y="1335" on="0"/>
        <pt x="914" y="1396" on="0"/>
        <pt x="812" y="1396" on="1"/>
        <pt x="731" y="1396" on="0"/>
        <pt x="575" y="1361" on="0"/>
        <pt x="433" y="1291" on="0"/>
        <pt x="313" y="1186" on="0"/>
        <pt x="226" y="1045" on="0"/>
        <pt x="176" y="868" on="0"/>
        <pt x="176" y="762" on="1"/>
        <pt x="176" y="669" on="0"/>
        <pt x="229" y="518" on="0"/>
        <pt x="328" y="401" on="0"/>
        <pt x="469" y="320" on="0"/>
        <pt x="556" y="298" on="1"/>
        <pt x="520" y="0" on="1"/>
        <pt x="65" y="0" on="1"/>
        <pt x="60" y="0" on="0"/>
        <pt x="52" y="7" on="0"/>
        <pt x="52" y="12" on="1"/>
        <pt x="52" y="24" on="1"/>
        <pt x="501" y="24" on="1"/>
        <pt x="533" y="285" on="1"/>
        <pt x="453" y="304" on="0"/>
        <pt x="314" y="385" on="0"/>
        <pt x="211" y="505" on="0"/>
        <pt x="152" y="665" on="0"/>
        <pt x="152" y="764" on="1"/>
        <pt x="152" y="871" on="0"/>
        <pt x="203" y="1052" on="0"/>
        <pt x="293" y="1197" on="0"/>
        <pt x="417" y="1306" on="0"/>
        <pt x="564" y="1379" on="0"/>
        <pt x="728" y="1416" on="0"/>
        <pt x="814" y="1416" on="1"/>
        <pt x="922" y="1416" on="0"/>
        <pt x="1111" y="1351" on="0"/>
        <pt x="1252" y="1224" on="0"/>
        <pt x="1334" y="1036" on="0"/>
        <pt x="1334" y="912" on="1"/>
        <pt x="1334" y="776" on="0"/>
        <pt x="1250" y="564" on="0"/>
        <pt x="1108" y="408" on="0"/>
        <pt x="921" y="309" on="0"/>
        <pt x="819" y="285" on="1"/>
        <pt x="787" y="24" on="1"/>
        <pt x="1234" y="24" on="1"/>
        <pt x="1234" y="12" on="1"/>
        <pt x="1234" y="0" on="0"/>
        <pt x="1220" y="0" on="1"/>
      </contour>
    </TTGlyph>
    <TTGlyph name="Oslash" xMin="106" yMin="-102" xMax="1404" yMax="1464">
      <contour>
        <pt x="1368" y="814" on="1"/>
        <pt x="1368" y="623" on="0"/>
        <pt x="1262" y="317" on="0"/>
        <pt x="1076" y="102" on="0"/>
        <pt x="822" y="-14" on="0"/>
        <pt x="674" y="-14" on="1"/>
        <pt x="564" y="-14" on="0"/>
        <pt x="385" y="58" on="0"/>
        <pt x="318" y="127" on="1"/>
        <pt x="142" y="-90" on="1"/>
        <pt x="137" y="-97" on="0"/>
        <pt x="124" y="-102" on="0"/>
        <pt x="118" y="-102" on="1"/>
        <pt x="106" y="-102" on="1"/>
        <pt x="304" y="142" on="1"/>
        <pt x="234" y="221" on="0"/>
        <pt x="158" y="445" on="0"/>
        <pt x="158" y="586" on="1"/>
        <pt x="158" y="712" on="0"/>
        <pt x="206" y="934" on="0"/>
        <pt x="295" y="1118" on="0"/>
        <pt x="420" y="1263" on="0"/>
        <pt x="574" y="1363" on="0"/>
        <pt x="752" y="1416" on="0"/>
        <pt x="850" y="1416" on="1"/>
        <pt x="964" y="1416" on="0"/>
        <pt x="1148" y="1338" on="0"/>
        <pt x="1216" y="1265" on="1"/>
        <pt x="1368" y="1452" on="1"/>
        <pt x="1377" y="1464" on="0"/>
        <pt x="1390" y="1464" on="1"/>
        <pt x="1404" y="1464" on="1"/>
        <pt x="1230" y="1249" on="1"/>
        <pt x="1296" y="1171" on="0"/>
        <pt x="1368" y="951" on="0"/>
      </contour>
      <contour>
        <pt x="182" y="588" on="1"/>
        <pt x="182" y="452" on="0"/>
        <pt x="253" y="237" on="0"/>
        <pt x="319" y="161" on="1"/>
        <pt x="1201" y="1246" on="1"/>
        <pt x="1136" y="1318" on="0"/>
        <pt x="958" y="1396" on="0"/>
        <pt x="848" y="1396" on="1"/>
        <pt x="755" y="1396" on="0"/>
        <pt x="584" y="1346" on="0"/>
        <pt x="436" y="1250" on="0"/>
        <pt x="315" y="1109" on="0"/>
        <pt x="229" y="930" on="0"/>
        <pt x="182" y="713" on="0"/>
      </contour>
      <contour>
        <pt x="1342" y="814" on="1"/>
        <pt x="1342" y="945" on="0"/>
        <pt x="1276" y="1155" on="0"/>
        <pt x="1214" y="1230" on="1"/>
        <pt x="333" y="145" on="1"/>
        <pt x="398" y="77" on="0"/>
        <pt x="570" y="6" on="0"/>
        <pt x="676" y="6" on="1"/>
        <pt x="818" y="6" on="0"/>
        <pt x="1062" y="117" on="0"/>
        <pt x="1241" y="326" on="0"/>
        <pt x="1342" y="626" on="0"/>
      </contour>
    </TTGlyph>
    <TTGlyph name="Otilde" xMin="158" yMin="-14" xMax="1368" yMax="1692">
      <component glyphName="O" x="0" y="0" flags="0x204"/>
      <component glyphName="tilde.case" x="472" y="0" flags="0x4"/>
    </TTGlyph>
    <TTGlyph name="P" xMin="196" yMin="0" xMax="1052" yMax="1400">
      <contour>
        <pt x="293" y="600" on="1"/>
        <pt x="220" y="0" on="1"/>
        <pt x="196" y="0" on="1"/>
        <pt x="368" y="1400" on="1"/>
        <pt x="660" y="1400" on="1"/>
        <pt x="853" y="1400" on="0"/>
        <pt x="1052" y="1232" on="0"/>
        <pt x="1052" y="1064" on="1"/>
        <pt x="1052" y="960" on="0"/>
        <pt x="978" y="790" on="0"/>
        <pt x="846" y="667" on="0"/>
        <pt x="667" y="600" on="0"/>
        <pt x="562" y="600" on="1"/>
      </contour>
      <contour>
        <pt x="389" y="1380" on="1"/>
        <pt x="296" y="620" on="1"/>
        <pt x="564" y="620" on="1"/>
        <pt x="666" y="620" on="0"/>
        <pt x="836" y="687" on="0"/>
        <pt x="959" y="804" on="0"/>
        <pt x="1028" y="965" on="0"/>
        <pt x="1028" y="1060" on="1"/>
        <pt x="1028" y="1215" on="0"/>
        <pt x="844" y="1380" on="0"/>
        <pt x="658" y="1380" on="1"/>
      </contour>
    </TTGlyph>
    <TTGlyph name="Q" xMin="158" yMin="-326" xMax="1368" yMax="1416">
      <contour>
        <pt x="1368" y="814" on="1"/>
        <pt x="1368" y="678" on="0"/>
        <pt x="1313" y="443" on="0"/>
        <pt x="1213" y="253" on="0"/>
        <pt x="1072" y="108" on="0"/>
        <pt x="986" y="62" on="1"/>
        <pt x="1278" y="-326" on="1"/>
        <pt x="1264" y="-326" on="1"/>
        <pt x="1249" y="-326" on="0"/>
        <pt x="1244" y="-318" on="1"/>
        <pt x="967" y="52" on="1"/>
        <pt x="901" y="20" on="0"/>
        <pt x="754" y="-14" on="0"/>
        <pt x="674" y="-14" on="1"/>
        <pt x="556" y="-14" on="0"/>
        <pt x="366" y="71" on="0"/>
        <pt x="231" y="227" on="0"/>
        <pt x="158" y="449" on="0"/>
        <pt x="158" y="586" on="1"/>
        <pt x="158" y="712" on="0"/>
        <pt x="206" y="934" on="0"/>
        <pt x="295" y="1118" on="0"/>
        <pt x="420" y="1263" on="0"/>
        <pt x="574" y="1363" on="0"/>
        <pt x="752" y="1416" on="0"/>
        <pt x="850" y="1416" on="1"/>
        <pt x="968" y="1416" on="0"/>
        <pt x="1160" y="1331" on="0"/>
        <pt x="1295" y="1174" on="0"/>
        <pt x="1368" y="951" on="0"/>
      </contour>
      <contour>
        <pt x="1342" y="814" on="1"/>
        <pt x="1342" y="948" on="0"/>
        <pt x="1272" y="1164" on="0"/>
        <pt x="1143" y="1315" on="0"/>
        <pt x="960" y="1396" on="0"/>
        <pt x="848" y="1396" on="1"/>
        <pt x="755" y="1396" on="0"/>
        <pt x="584" y="1346" on="0"/>
        <pt x="436" y="1250" on="0"/>
        <pt x="315" y="1109" on="0"/>
        <pt x="229" y="930" on="0"/>
        <pt x="182" y="713" on="0"/>
        <pt x="182" y="588" on="1"/>
        <pt x="182" y="454" on="0"/>
        <pt x="253" y="238" on="0"/>
        <pt x="383" y="87" on="0"/>
        <pt x="565" y="6" on="0"/>
        <pt x="676" y="6" on="1"/>
        <pt x="818" y="6" on="0"/>
        <pt x="1062" y="117" on="0"/>
        <pt x="1241" y="326" on="0"/>
        <pt x="1342" y="626" on="0"/>
      </contour>
    </TTGlyph>
    <TTGlyph name="R" xMin="196" yMin="0" xMax="1046" yMax="1400">
      <contour>
        <pt x="303" y="676" on="1"/>
        <pt x="220" y="0" on="1"/>
        <pt x="196" y="0" on="1"/>
        <pt x="368" y="1400" on="1"/>
        <pt x="668" y="1400" on="1"/>
        <pt x="852" y="1400" on="0"/>
        <pt x="1046" y="1254" on="0"/>
        <pt x="1046" y="1102" on="1"/>
        <pt x="1046" y="1004" on="0"/>
        <pt x="977" y="849" on="0"/>
        <pt x="853" y="739" on="0"/>
        <pt x="682" y="679" on="0"/>
        <pt x="580" y="676" on="1"/>
        <pt x="595" y="669" on="0"/>
        <pt x="608" y="650" on="1"/>
        <pt x="1030" y="0" on="1"/>
        <pt x="1014" y="0" on="1"/>
        <pt x="1006" y="0" on="0"/>
        <pt x="996" y="3" on="0"/>
        <pt x="990" y="12" on="1"/>
        <pt x="588" y="640" on="1"/>
        <pt x="581" y="650" on="0"/>
        <pt x="567" y="664" on="0"/>
        <pt x="549" y="673" on="0"/>
        <pt x="523" y="676" on="0"/>
        <pt x="504" y="676" on="1"/>
      </contour>
      <contour>
        <pt x="306" y="696" on="1"/>
        <pt x="564" y="696" on="1"/>
        <pt x="667" y="696" on="0"/>
        <pt x="836" y="751" on="0"/>
        <pt x="956" y="856" on="0"/>
        <pt x="1022" y="1005" on="0"/>
        <pt x="1022" y="1100" on="1"/>
        <pt x="1022" y="1243" on="0"/>
        <pt x="840" y="1380" on="0"/>
        <pt x="666" y="1380" on="1"/>
        <pt x="390" y="1380" on="1"/>
        <pt x="384" y="1328" on="1"/>
      </contour>
    </TTGlyph>
    <TTGlyph name="S" xMin="62" yMin="-16" xMax="912" yMax="1416">
      <contour>
        <pt x="909" y="1273" on="1"/>
        <pt x="905" y="1266" on="0"/>
        <pt x="898" y="1266" on="1"/>
        <pt x="892" y="1266" on="0"/>
        <pt x="875" y="1285" on="0"/>
        <pt x="849" y="1314" on="0"/>
        <pt x="810" y="1348" on="0"/>
        <pt x="753" y="1377" on="0"/>
        <pt x="675" y="1396" on="0"/>
        <pt x="624" y="1396" on="1"/>
        <pt x="538" y="1396" on="0"/>
        <pt x="402" y="1338" on="0"/>
        <pt x="307" y="1239" on="0"/>
        <pt x="256" y="1107" on="0"/>
        <pt x="256" y="1034" on="1"/>
        <pt x="256" y="965" on="0"/>
        <pt x="307" y="872" on="0"/>
        <pt x="391" y="807" on="0"/>
        <pt x="497" y="761" on="0"/>
        <pt x="609" y="718" on="0"/>
        <pt x="715" y="671" on="0"/>
        <pt x="799" y="604" on="0"/>
        <pt x="850" y="507" on="0"/>
        <pt x="850" y="436" on="1"/>
        <pt x="850" y="344" on="0"/>
        <pt x="787" y="180" on="0"/>
        <pt x="670" y="57" on="0"/>
        <pt x="503" y="-16" on="0"/>
        <pt x="400" y="-16" on="1"/>
        <pt x="335" y="-16" on="0"/>
        <pt x="235" y="9" on="0"/>
        <pt x="155" y="56" on="0"/>
        <pt x="90" y="123" on="0"/>
        <pt x="62" y="166" on="1"/>
        <pt x="66" y="170" on="1"/>
        <pt x="72" y="176" on="0"/>
        <pt x="80" y="176" on="1"/>
        <pt x="85" y="176" on="0"/>
        <pt x="104" y="151" on="0"/>
        <pt x="135" y="112" on="0"/>
        <pt x="182" y="68" on="0"/>
        <pt x="250" y="29" on="0"/>
        <pt x="341" y="4" on="0"/>
        <pt x="402" y="4" on="1"/>
        <pt x="499" y="4" on="0"/>
        <pt x="657" y="73" on="0"/>
        <pt x="768" y="190" on="0"/>
        <pt x="828" y="347" on="0"/>
        <pt x="828" y="436" on="1"/>
        <pt x="828" y="504" on="0"/>
        <pt x="777" y="596" on="0"/>
        <pt x="693" y="660" on="0"/>
        <pt x="587" y="705" on="0"/>
        <pt x="475" y="746" on="0"/>
        <pt x="369" y="793" on="0"/>
        <pt x="285" y="861" on="0"/>
        <pt x="234" y="960" on="0"/>
        <pt x="234" y="1032" on="1"/>
        <pt x="234" y="1108" on="0"/>
        <pt x="287" y="1247" on="0"/>
        <pt x="388" y="1353" on="0"/>
        <pt x="534" y="1416" on="0"/>
        <pt x="628" y="1416" on="1"/>
        <pt x="721" y="1416" on="0"/>
        <pt x="858" y="1350" on="0"/>
        <pt x="912" y="1278" on="1"/>
      </contour>
    </TTGlyph>
    <TTGlyph name="Sacute" xMin="62" yMin="-16" xMax="914" yMax="1760">
      <component glyphName="S" x="0" y="0" flags="0x204"/>
      <component glyphName="acute.case" x="272" y="0" flags="0x4"/>
    </TTGlyph>
    <TTGlyph name="Scaron" xMin="62" yMin="-16" xMax="912" yMax="1728">
      <component glyphName="S" x="0" y="0" flags="0x204"/>
      <component glyphName="caron.case" x="282" y="0" flags="0x4"/>
    </TTGlyph>
    <TTGlyph name="T" xMin="146" yMin="0" xMax="1142" yMax="1400">
      <contour>
        <pt x="1142" y="1400" on="1"/>
        <pt x="1140" y="1378" on="1"/>
        <pt x="657" y="1378" on="1"/>
        <pt x="488" y="0" on="1"/>
        <pt x="464" y="0" on="1"/>
        <pt x="633" y="1378" on="1"/>
        <pt x="146" y="1378" on="1"/>
        <pt x="148" y="1400" on="1"/>
      </contour>
    </TTGlyph>
    <TTGlyph name="Thorn" xMin="256" yMin="0" xMax="1076" yMax="1400">
      <contour>
        <pt x="415" y="1098" on="1"/>
        <pt x="684" y="1098" on="1"/>
        <pt x="874" y="1098" on="0"/>
        <pt x="1076" y="928" on="0"/>
        <pt x="1076" y="762" on="1"/>
        <pt x="1076" y="658" on="0"/>
        <pt x="1001" y="488" on="0"/>
        <pt x="869" y="365" on="0"/>
        <pt x="690" y="298" on="0"/>
        <pt x="586" y="298" on="1"/>
        <pt x="316" y="298" on="1"/>
        <pt x="280" y="0" on="1"/>
        <pt x="256" y="0" on="1"/>
        <pt x="428" y="1400" on="1"/>
        <pt x="452" y="1400" on="1"/>
      </contour>
      <contour>
        <pt x="412" y="1078" on="1"/>
        <pt x="319" y="318" on="1"/>
        <pt x="588" y="318" on="1"/>
        <pt x="690" y="318" on="0"/>
        <pt x="860" y="385" on="0"/>
        <pt x="983" y="502" on="0"/>
        <pt x="1052" y="663" on="0"/>
        <pt x="1052" y="758" on="1"/>
        <pt x="1052" y="913" on="0"/>
        <pt x="867" y="1078" on="0"/>
        <pt x="680" y="1078" on="1"/>
      </contour>
    </TTGlyph>
    <TTGlyph name="U" xMin="209" yMin="-18" xMax="1256" yMax="1400">
      <contour>
        <pt x="618" y="4" on="1"/>
        <pt x="721" y="4" on="0"/>
        <pt x="896" y="85" on="0"/>
        <pt x="1027" y="225" on="0"/>
        <pt x="1111" y="413" on="0"/>
        <pt x="1124" y="520" on="1"/>
        <pt x="1232" y="1400" on="1"/>
        <pt x="1256" y="1400" on="1"/>
        <pt x="1148" y="520" on="1"/>
        <pt x="1134" y="409" on="0"/>
        <pt x="1045" y="214" on="0"/>
        <pt x="906" y="67" on="0"/>
        <pt x="722" y="-18" on="0"/>
        <pt x="614" y="-18" on="1"/>
        <pt x="517" y="-18" on="0"/>
        <pt x="366" y="52" on="0"/>
        <pt x="263" y="173" on="0"/>
        <pt x="209" y="339" on="0"/>
        <pt x="209" y="435" on="1"/>
        <pt x="209" y="456" on="0"/>
        <pt x="211" y="498" on="0"/>
        <pt x="214" y="520" on="1"/>
        <pt x="322" y="1400" on="1"/>
        <pt x="346" y="1400" on="1"/>
        <pt x="238" y="522" on="1"/>
        <pt x="236" y="500" on="0"/>
        <pt x="233" y="458" on="0"/>
        <pt x="233" y="437" on="1"/>
        <pt x="233" y="345" on="0"/>
        <pt x="283" y="186" on="0"/>
        <pt x="380" y="70" on="0"/>
        <pt x="524" y="4" on="0"/>
      </contour>
    </TTGlyph>
    <TTGlyph name="Uacute" xMin="209" yMin="-18" xMax="1256" yMax="1760">
      <component glyphName="U" x="0" y="0" flags="0x204"/>
      <component glyphName="acute.case" x="420" y="0" flags="0x4"/>
    </TTGlyph>
    <TTGlyph name="Ucircumflex" xMin="209" yMin="-18" xMax="1256" yMax="1728">
      <component glyphName="U" x="0" y="0" flags="0x204"/>
      <component glyphName="circumflex.case" x="420" y="0" flags="0x4"/>
    </TTGlyph>
    <TTGlyph name="Udieresis" xMin="209" yMin="-18" xMax="1256" yMax="1720">
      <component glyphName="U" x="0" y="0" flags="0x204"/>
      <component glyphName="dieresis.case" x="420" y="0" flags="0x4"/>
    </TTGlyph>
    <TTGlyph name="Ugrave" xMin="209" yMin="-18" xMax="1256" yMax="1760">
      <component glyphName="U" x="0" y="0" flags="0x204"/>
      <component glyphName="grave.case" x="420" y="0" flags="0x4"/>
    </TTGlyph>
    <TTGlyph name="V" xMin="130" yMin="0" xMax="1224" yMax="1400">
      <contour>
        <pt x="130" y="1400" on="1"/>
        <pt x="145" y="1400" on="1"/>
        <pt x="155" y="1400" on="0"/>
        <pt x="158" y="1390" on="1"/>
        <pt x="500" y="74" on="1"/>
        <pt x="502" y="63" on="0"/>
        <pt x="508" y="44" on="0"/>
        <pt x="510" y="33" on="1"/>
        <pt x="515" y="44" on="0"/>
        <pt x="525" y="63" on="0"/>
        <pt x="530" y="74" on="1"/>
        <pt x="1194" y="1390" on="1"/>
        <pt x="1199" y="1400" on="0"/>
        <pt x="1208" y="1400" on="1"/>
        <pt x="1224" y="1400" on="1"/>
        <pt x="516" y="0" on="1"/>
        <pt x="496" y="0" on="1"/>
      </contour>
    </TTGlyph>
    <TTGlyph name="W" xMin="130" yMin="0" xMax="1860" yMax="1400">
      <contour>
        <pt x="130" y="1400" on="1"/>
        <pt x="148" y="1400" on="1"/>
        <pt x="156" y="1400" on="0"/>
        <pt x="158" y="1390" on="1"/>
        <pt x="374" y="74" on="1"/>
        <pt x="376" y="62" on="0"/>
        <pt x="379" y="42" on="0"/>
        <pt x="380" y="30" on="1"/>
        <pt x="385" y="42" on="0"/>
        <pt x="393" y="62" on="0"/>
        <pt x="398" y="74" on="1"/>
        <pt x="980" y="1390" on="1"/>
        <pt x="984" y="1400" on="0"/>
        <pt x="994" y="1400" on="1"/>
        <pt x="998" y="1400" on="1"/>
        <pt x="1007" y="1400" on="0"/>
        <pt x="1008" y="1390" on="1"/>
        <pt x="1266" y="74" on="1"/>
        <pt x="1268" y="63" on="0"/>
        <pt x="1271" y="42" on="0"/>
        <pt x="1272" y="30" on="1"/>
        <pt x="1277" y="42" on="0"/>
        <pt x="1285" y="62" on="0"/>
        <pt x="1290" y="74" on="1"/>
        <pt x="1828" y="1390" on="1"/>
        <pt x="1830" y="1395" on="0"/>
        <pt x="1839" y="1400" on="0"/>
        <pt x="1844" y="1400" on="1"/>
        <pt x="1860" y="1400" on="1"/>
        <pt x="1280" y="0" on="1"/>
        <pt x="1260" y="0" on="1"/>
        <pt x="996" y="1344" on="1"/>
        <pt x="994" y="1352" on="0"/>
        <pt x="992" y="1369" on="0"/>
        <pt x="992" y="1377" on="1"/>
        <pt x="990" y="1369" on="0"/>
        <pt x="983" y="1352" on="0"/>
        <pt x="980" y="1344" on="1"/>
        <pt x="386" y="0" on="1"/>
        <pt x="366" y="0" on="1"/>
      </contour>
    </TTGlyph>
    <TTGlyph name="X" xMin="-62" yMin="0" xMax="1090" yMax="1400">
      <contour>
        <pt x="535" y="747" on="1"/>
        <pt x="172" y="1400" on="1"/>
        <pt x="192" y="1400" on="1"/>
        <pt x="200" y="1400" on="0"/>
        <pt x="207" y="1392" on="0"/>
        <pt x="212" y="1384" on="1"/>
        <pt x="553" y="761" on="1"/>
        <pt x="555" y="766" on="0"/>
        <pt x="562" y="774" on="1"/>
        <pt x="1052" y="1390" on="1"/>
        <pt x="1057" y="1396" on="0"/>
        <pt x="1066" y="1400" on="0"/>
        <pt x="1072" y="1400" on="1"/>
        <pt x="1090" y="1400" on="1"/>
        <pt x="567" y="748" on="1"/>
        <pt x="980" y="0" on="1"/>
        <pt x="958" y="0" on="1"/>
        <pt x="950" y="0" on="0"/>
        <pt x="944" y="10" on="0"/>
        <pt x="942" y="14" on="1"/>
        <pt x="548" y="734" on="1"/>
        <pt x="545" y="729" on="0"/>
        <pt x="540" y="722" on="1"/>
        <pt x="-20" y="14" on="1"/>
        <pt x="-25" y="8" on="0"/>
        <pt x="-34" y="0" on="0"/>
        <pt x="-40" y="0" on="1"/>
        <pt x="-62" y="0" on="1"/>
      </contour>
    </TTGlyph>
    <TTGlyph name="Y" xMin="148" yMin="0" xMax="1132" yMax="1400">
      <contour>
        <pt x="554" y="595" on="1"/>
        <pt x="480" y="0" on="1"/>
        <pt x="456" y="0" on="1"/>
        <pt x="530" y="595" on="1"/>
        <pt x="148" y="1400" on="1"/>
        <pt x="168" y="1400" on="1"/>
        <pt x="176" y="1400" on="0"/>
        <pt x="180" y="1392" on="1"/>
        <pt x="532" y="642" on="1"/>
        <pt x="535" y="636" on="0"/>
        <pt x="541" y="623" on="0"/>
        <pt x="544" y="615" on="1"/>
        <pt x="549" y="623" on="0"/>
        <pt x="558" y="636" on="0"/>
        <pt x="562" y="642" on="1"/>
        <pt x="1098" y="1392" on="1"/>
        <pt x="1103" y="1400" on="0"/>
        <pt x="1112" y="1400" on="1"/>
        <pt x="1132" y="1400" on="1"/>
      </contour>
    </TTGlyph>
    <TTGlyph name="Yacute" xMin="148" yMin="0" xMax="1132" yMax="1760">
      <component glyphName="Y" x="0" y="0" flags="0x204"/>
      <component glyphName="acute.case" x="276" y="0" flags="0x4"/>
    </TTGlyph>
    <TTGlyph name="Ydieresis" xMin="148" yMin="0" xMax="1132" yMax="1720">
      <component glyphName="Y" x="0" y="0" flags="0x204"/>
      <component glyphName="dieresis.case" x="276" y="0" flags="0x4"/>
    </TTGlyph>
    <TTGlyph name="Z" xMin="68" yMin="0" xMax="1176" yMax="1400">
      <contour>
        <pt x="1176" y="1400" on="1"/>
        <pt x="1174" y="1390" on="1"/>
        <pt x="1172" y="1385" on="0"/>
        <pt x="1169" y="1380" on="0"/>
        <pt x="1164" y="1374" on="1"/>
        <pt x="103" y="22" on="1"/>
        <pt x="1004" y="22" on="1"/>
        <pt x="1000" y="0" on="1"/>
        <pt x="68" y="0" on="1"/>
        <pt x="70" y="10" on="1"/>
        <pt x="72" y="15" on="0"/>
        <pt x="75" y="19" on="0"/>
        <pt x="78" y="24" on="1"/>
        <pt x="1140" y="1378" on="1"/>
        <pt x="252" y="1378" on="1"/>
        <pt x="256" y="1400" on="1"/>
      </contour>
    </TTGlyph>
    <TTGlyph name="Zacute" xMin="68" yMin="0" xMax="1176" yMax="1760">
      <component glyphName="Z" x="0" y="0" flags="0x204"/>
      <component glyphName="acute.case" x="338" y="0" flags="0x4"/>
    </TTGlyph>
    <TTGlyph name="Zcaron" xMin="68" yMin="0" xMax="1176" yMax="1728">
      <component glyphName="Z" x="0" y="0" flags="0x204"/>
      <component glyphName="caron.case" x="338" y="0" flags="0x4"/>
    </TTGlyph>
    <TTGlyph name="Zdotaccent" xMin="68" yMin="0" xMax="1176" yMax="1724">
      <component glyphName="Z" x="0" y="0" flags="0x204"/>
      <component glyphName="dotaccent.case" x="338" y="0" flags="0x4"/>
    </TTGlyph>
    <TTGlyph name="a" xMin="70" yMin="-12" xMax="836" yMax="992">
      <contour>
        <pt x="722" y="0" on="1"/>
        <pt x="716" y="0" on="1"/>
        <pt x="709" y="0" on="0"/>
        <pt x="704" y="7" on="0"/>
        <pt x="704" y="12" on="1"/>
        <pt x="752" y="430" on="1"/>
        <pt x="714" y="333" on="0"/>
        <pt x="616" y="170" on="0"/>
        <pt x="503" y="53" on="0"/>
        <pt x="377" y="-12" on="0"/>
        <pt x="310" y="-12" on="1"/>
        <pt x="245" y="-12" on="0"/>
        <pt x="154" y="38" on="0"/>
        <pt x="97" y="128" on="0"/>
        <pt x="70" y="252" on="0"/>
        <pt x="70" y="326" on="1"/>
        <pt x="70" y="410" on="0"/>
        <pt x="114" y="574" on="0"/>
        <pt x="192" y="722" on="0"/>
        <pt x="300" y="848" on="0"/>
        <pt x="429" y="940" on="0"/>
        <pt x="574" y="992" on="0"/>
        <pt x="650" y="992" on="1"/>
        <pt x="704" y="992" on="0"/>
        <pt x="794" y="971" on="0"/>
        <pt x="836" y="944" on="1"/>
      </contour>
      <contour>
        <pt x="310" y="8" on="1"/>
        <pt x="374" y="8" on="0"/>
        <pt x="499" y="74" on="0"/>
        <pt x="613" y="198" on="0"/>
        <pt x="715" y="373" on="0"/>
        <pt x="757" y="483" on="1"/>
        <pt x="813" y="934" on="1"/>
        <pt x="776" y="954" on="0"/>
        <pt x="696" y="972" on="0"/>
        <pt x="650" y="972" on="1"/>
        <pt x="578" y="972" on="0"/>
        <pt x="440" y="922" on="0"/>
        <pt x="316" y="834" on="0"/>
        <pt x="212" y="712" on="0"/>
        <pt x="136" y="568" on="0"/>
        <pt x="94" y="408" on="0"/>
        <pt x="94" y="326" on="1"/>
        <pt x="94" y="253" on="0"/>
        <pt x="119" y="136" on="0"/>
        <pt x="171" y="53" on="0"/>
        <pt x="253" y="8" on="0"/>
      </contour>
    </TTGlyph>
    <TTGlyph name="aacute" xMin="70" yMin="-12" xMax="836" yMax="1416">
      <component glyphName="a" x="0" y="0" flags="0x204"/>
      <component glyphName="acute" x="302" y="0" flags="0x4"/>
    </TTGlyph>
    <TTGlyph name="acircumflex" xMin="70" yMin="-12" xMax="836" yMax="1400">
      <component glyphName="a" x="0" y="0" flags="0x204"/>
      <component glyphName="circumflex" x="282" y="0" flags="0x4"/>
    </TTGlyph>
    <TTGlyph name="acute" xMin="280" yMin="1158" xMax="528" yMax="1416">
      <contour>
        <pt x="528" y="1416" on="1"/>
        <pt x="310" y="1166" on="1"/>
        <pt x="305" y="1158" on="0"/>
        <pt x="294" y="1158" on="1"/>
        <pt x="280" y="1158" on="1"/>
        <pt x="460" y="1394" on="1"/>
        <pt x="471" y="1408" on="0"/>
        <pt x="487" y="1416" on="0"/>
        <pt x="502" y="1416" on="1"/>
      </contour>
    </TTGlyph>
    <TTGlyph name="acute.case" xMin="318" yMin="1538" xMax="642" yMax="1760">
      <contour>
        <pt x="642" y="1760" on="1"/>
        <pt x="348" y="1544" on="1"/>
        <pt x="339" y="1538" on="0"/>
        <pt x="330" y="1538" on="1"/>
        <pt x="318" y="1538" on="1"/>
        <pt x="566" y="1746" on="1"/>
        <pt x="575" y="1754" on="0"/>
        <pt x="591" y="1760" on="0"/>
        <pt x="606" y="1760" on="1"/>
      </contour>
    </TTGlyph>
    <TTGlyph name="adieresis" xMin="70" yMin="-12" xMax="862" yMax="1358">
      <component glyphName="a" x="0" y="0" flags="0x204"/>
      <component glyphName="dieresis" x="282" y="0" flags="0x4"/>
    </TTGlyph>
    <TTGlyph name="ae" xMin="67" yMin="-16" xMax="1363" yMax="996">
      <contour>
        <pt x="1111" y="996" on="1"/>
        <pt x="1162" y="996" on="0"/>
        <pt x="1247" y="968" on="0"/>
        <pt x="1309" y="916" on="0"/>
        <pt x="1343" y="843" on="0"/>
        <pt x="1343" y="798" on="1"/>
        <pt x="1343" y="739" on="0"/>
        <pt x="1275" y="638" on="0"/>
        <pt x="1125" y="565" on="0"/>
        <pt x="885" y="524" on="0"/>
        <pt x="714" y="524" on="1"/>
        <pt x="711" y="503" on="1"/>
        <pt x="709" y="480" on="0"/>
        <pt x="707" y="431" on="0"/>
        <pt x="707" y="406" on="1"/>
        <pt x="707" y="312" on="0"/>
        <pt x="747" y="164" on="0"/>
        <pt x="821" y="62" on="0"/>
        <pt x="927" y="8" on="0"/>
        <pt x="993" y="8" on="1"/>
        <pt x="1050" y="8" on="0"/>
        <pt x="1143" y="35" on="0"/>
        <pt x="1218" y="75" on="0"/>
        <pt x="1275" y="121" on="0"/>
        <pt x="1317" y="161" on="0"/>
        <pt x="1344" y="188" on="0"/>
        <pt x="1351" y="188" on="1"/>
        <pt x="1357" y="188" on="0"/>
        <pt x="1361" y="184" on="1"/>
        <pt x="1363" y="182" on="1"/>
        <pt x="1318" y="132" on="0"/>
        <pt x="1229" y="59" on="0"/>
        <pt x="1139" y="11" on="0"/>
        <pt x="1043" y="-12" on="0"/>
        <pt x="991" y="-12" on="1"/>
        <pt x="924" y="-12" on="0"/>
        <pt x="818" y="37" on="0"/>
        <pt x="741" y="130" on="0"/>
        <pt x="697" y="261" on="0"/>
        <pt x="691" y="344" on="1"/>
        <pt x="679" y="275" on="0"/>
        <pt x="631" y="169" on="0"/>
        <pt x="566" y="89" on="0"/>
        <pt x="489" y="34" on="0"/>
        <pt x="409" y="-1" on="0"/>
        <pt x="332" y="-16" on="0"/>
        <pt x="299" y="-16" on="1"/>
        <pt x="251" y="-16" on="0"/>
        <pt x="166" y="8" on="0"/>
        <pt x="103" y="61" on="0"/>
        <pt x="67" y="145" on="0"/>
        <pt x="67" y="206" on="1"/>
        <pt x="67" y="285" on="0"/>
        <pt x="142" y="407" on="0"/>
        <pt x="296" y="491" on="0"/>
        <pt x="534" y="538" on="0"/>
        <pt x="696" y="542" on="1"/>
        <pt x="709" y="648" on="1"/>
        <pt x="729" y="803" on="0"/>
        <pt x="629" y="974" on="0"/>
        <pt x="507" y="974" on="1"/>
        <pt x="436" y="974" on="0"/>
        <pt x="328" y="929" on="0"/>
        <pt x="253" y="875" on="0"/>
        <pt x="208" y="830" on="0"/>
        <pt x="201" y="830" on="1"/>
        <pt x="197" y="830" on="0"/>
        <pt x="191" y="836" on="1"/>
        <pt x="189" y="840" on="1"/>
        <pt x="264" y="916" on="0"/>
        <pt x="416" y="996" on="0"/>
        <pt x="509" y="996" on="1"/>
        <pt x="571" y="996" on="0"/>
        <pt x="660" y="954" on="0"/>
        <pt x="715" y="875" on="0"/>
        <pt x="737" y="762" on="0"/>
        <pt x="733" y="690" on="1"/>
        <pt x="757" y="761" on="0"/>
        <pt x="831" y="874" on="0"/>
        <pt x="927" y="954" on="0"/>
        <pt x="1044" y="996" on="0"/>
      </contour>
      <contour>
        <pt x="693" y="522" on="1"/>
        <pt x="387" y="512" on="0"/>
        <pt x="91" y="358" on="0"/>
        <pt x="91" y="210" on="1"/>
        <pt x="91" y="156" on="0"/>
        <pt x="122" y="78" on="0"/>
        <pt x="178" y="28" on="0"/>
        <pt x="255" y="4" on="0"/>
        <pt x="301" y="4" on="1"/>
        <pt x="369" y="4" on="0"/>
        <pt x="495" y="55" on="0"/>
        <pt x="596" y="151" on="0"/>
        <pt x="664" y="286" on="0"/>
        <pt x="675" y="370" on="1"/>
      </contour>
      <contour>
        <pt x="1111" y="974" on="1"/>
        <pt x="1031" y="974" on="0"/>
        <pt x="899" y="913" on="0"/>
        <pt x="797" y="800" on="0"/>
        <pt x="730" y="640" on="0"/>
        <pt x="716" y="542" on="1"/>
        <pt x="884" y="546" on="0"/>
        <pt x="1116" y="587" on="0"/>
        <pt x="1258" y="655" on="0"/>
        <pt x="1321" y="745" on="0"/>
        <pt x="1321" y="798" on="1"/>
        <pt x="1321" y="840" on="0"/>
        <pt x="1290" y="905" on="0"/>
        <pt x="1235" y="950" on="0"/>
        <pt x="1157" y="974" on="0"/>
      </contour>
    </TTGlyph>
    <TTGlyph name="agrave" xMin="70" yMin="-12" xMax="836" yMax="1416">
      <component glyphName="a" x="0" y="0" flags="0x204"/>
      <component glyphName="grave" x="322" y="0" flags="0x4"/>
    </TTGlyph>
    <TTGlyph name="ampersand" xMin="94" yMin="-16" xMax="1166" yMax="1416">
      <contour>
        <pt x="714" y="1416" on="1"/>
        <pt x="767" y="1416" on="0"/>
        <pt x="860" y="1380" on="0"/>
        <pt x="929" y="1311" on="0"/>
        <pt x="969" y="1213" on="0"/>
        <pt x="969" y="1152" on="1"/>
        <pt x="960" y="1152" on="1"/>
        <pt x="955" y="1152" on="0"/>
        <pt x="948" y="1159" on="0"/>
        <pt x="948" y="1168" on="1"/>
        <pt x="948" y="1199" on="0"/>
        <pt x="923" y="1278" on="0"/>
        <pt x="868" y="1348" on="0"/>
        <pt x="778" y="1396" on="0"/>
        <pt x="714" y="1396" on="1"/>
        <pt x="643" y="1396" on="0"/>
        <pt x="526" y="1348" on="0"/>
        <pt x="441" y="1262" on="0"/>
        <pt x="394" y="1144" on="0"/>
        <pt x="394" y="1074" on="1"/>
        <pt x="394" y="994" on="0"/>
        <pt x="468" y="833" on="0"/>
        <pt x="536" y="752" on="1"/>
        <pt x="916" y="298" on="1"/>
        <pt x="973" y="377" on="0"/>
        <pt x="1047" y="541" on="0"/>
        <pt x="1061" y="610" on="1"/>
        <pt x="1064" y="622" on="0"/>
        <pt x="1076" y="622" on="1"/>
        <pt x="1086" y="622" on="1"/>
        <pt x="1075" y="547" on="0"/>
        <pt x="995" y="369" on="0"/>
        <pt x="930" y="282" on="1"/>
        <pt x="1166" y="0" on="1"/>
        <pt x="1150" y="0" on="1"/>
        <pt x="1141" y="0" on="0"/>
        <pt x="1130" y="2" on="0"/>
        <pt x="1122" y="10" on="1"/>
        <pt x="914" y="261" on="1"/>
        <pt x="869" y="204" on="0"/>
        <pt x="759" y="103" on="0"/>
        <pt x="631" y="28" on="0"/>
        <pt x="488" y="-16" on="0"/>
        <pt x="410" y="-16" on="1"/>
        <pt x="350" y="-16" on="0"/>
        <pt x="236" y="26" on="0"/>
        <pt x="148" y="107" on="0"/>
        <pt x="94" y="224" on="0"/>
        <pt x="94" y="300" on="1"/>
        <pt x="94" y="384" on="0"/>
        <pt x="157" y="534" on="0"/>
        <pt x="264" y="657" on="0"/>
        <pt x="407" y="750" on="0"/>
        <pt x="487" y="777" on="1"/>
        <pt x="429" y="852" on="0"/>
        <pt x="370" y="989" on="0"/>
        <pt x="370" y="1066" on="1"/>
        <pt x="370" y="1143" on="0"/>
        <pt x="422" y="1272" on="0"/>
        <pt x="514" y="1365" on="0"/>
        <pt x="640" y="1416" on="0"/>
      </contour>
      <contour>
        <pt x="118" y="302" on="1"/>
        <pt x="118" y="227" on="0"/>
        <pt x="173" y="115" on="0"/>
        <pt x="259" y="41" on="0"/>
        <pt x="364" y="4" on="0"/>
        <pt x="414" y="4" on="1"/>
        <pt x="489" y="4" on="0"/>
        <pt x="628" y="47" on="0"/>
        <pt x="751" y="122" on="0"/>
        <pt x="857" y="221" on="0"/>
        <pt x="900" y="277" on="1"/>
        <pt x="499" y="761" on="1"/>
        <pt x="419" y="734" on="0"/>
        <pt x="281" y="644" on="0"/>
        <pt x="177" y="524" on="0"/>
        <pt x="118" y="381" on="0"/>
      </contour>
    </TTGlyph>
    <TTGlyph name="aogonek" xMin="70" yMin="-334" xMax="836" yMax="992">
      <contour>
        <pt x="796" y="-270" on="1"/>
        <pt x="800" y="-270" on="0"/>
        <pt x="804" y="-274" on="1"/>
        <pt x="808" y="-280" on="1"/>
        <pt x="782" y="-306" on="0"/>
        <pt x="707" y="-334" on="0"/>
        <pt x="668" y="-334" on="1"/>
        <pt x="612" y="-334" on="0"/>
        <pt x="542" y="-273" on="0"/>
        <pt x="542" y="-214" on="1"/>
        <pt x="542" y="-176" on="0"/>
        <pt x="574" y="-108" on="0"/>
        <pt x="622" y="-51" on="0"/>
        <pt x="679" y="-6" on="0"/>
        <pt x="704" y="9" on="1"/>
        <pt x="704" y="14" on="1"/>
        <pt x="752" y="430" on="1"/>
        <pt x="714" y="333" on="0"/>
        <pt x="616" y="170" on="0"/>
        <pt x="503" y="53" on="0"/>
        <pt x="377" y="-12" on="0"/>
        <pt x="310" y="-12" on="1"/>
        <pt x="245" y="-12" on="0"/>
        <pt x="154" y="38" on="0"/>
        <pt x="97" y="128" on="0"/>
        <pt x="70" y="252" on="0"/>
        <pt x="70" y="326" on="1"/>
        <pt x="70" y="410" on="0"/>
        <pt x="114" y="574" on="0"/>
        <pt x="192" y="722" on="0"/>
        <pt x="300" y="848" on="0"/>
        <pt x="429" y="940" on="0"/>
        <pt x="574" y="992" on="0"/>
        <pt x="650" y="992" on="1"/>
        <pt x="704" y="992" on="0"/>
        <pt x="794" y="971" on="0"/>
        <pt x="836" y="944" on="1"/>
        <pt x="722" y="0" on="1"/>
        <pt x="701" y="-12" on="0"/>
        <pt x="646" y="-51" on="0"/>
        <pt x="596" y="-105" on="0"/>
        <pt x="562" y="-171" on="0"/>
        <pt x="562" y="-210" on="1"/>
        <pt x="562" y="-258" on="0"/>
        <pt x="624" y="-314" on="0"/>
        <pt x="672" y="-314" on="1"/>
        <pt x="702" y="-314" on="0"/>
        <pt x="745" y="-300" on="0"/>
        <pt x="774" y="-284" on="0"/>
        <pt x="791" y="-270" on="0"/>
      </contour>
      <contour>
        <pt x="310" y="8" on="1"/>
        <pt x="374" y="8" on="0"/>
        <pt x="499" y="74" on="0"/>
        <pt x="613" y="198" on="0"/>
        <pt x="715" y="373" on="0"/>
        <pt x="757" y="483" on="1"/>
        <pt x="813" y="934" on="1"/>
        <pt x="776" y="954" on="0"/>
        <pt x="696" y="972" on="0"/>
        <pt x="650" y="972" on="1"/>
        <pt x="578" y="972" on="0"/>
        <pt x="440" y="922" on="0"/>
        <pt x="316" y="834" on="0"/>
        <pt x="212" y="712" on="0"/>
        <pt x="136" y="568" on="0"/>
        <pt x="94" y="408" on="0"/>
        <pt x="94" y="326" on="1"/>
        <pt x="94" y="253" on="0"/>
        <pt x="119" y="136" on="0"/>
        <pt x="171" y="53" on="0"/>
        <pt x="253" y="8" on="0"/>
      </contour>
    </TTGlyph>
    <TTGlyph name="approxequal" xMin="220" yMin="452" xMax="984" yMax="892">
      <contour>
        <pt x="810" y="768" on="1"/>
        <pt x="857" y="768" on="0"/>
        <pt x="943" y="811" on="0"/>
        <pt x="972" y="844" on="1"/>
        <pt x="984" y="834" on="1"/>
        <pt x="954" y="795" on="0"/>
        <pt x="859" y="748" on="0"/>
        <pt x="808" y="748" on="1"/>
        <pt x="757" y="748" on="0"/>
        <pt x="663" y="787" on="0"/>
        <pt x="571" y="833" on="0"/>
        <pt x="480" y="872" on="0"/>
        <pt x="432" y="872" on="1"/>
        <pt x="382" y="872" on="0"/>
        <pt x="299" y="829" on="0"/>
        <pt x="270" y="796" on="1"/>
        <pt x="258" y="806" on="1"/>
        <pt x="288" y="845" on="0"/>
        <pt x="380" y="892" on="0"/>
        <pt x="434" y="892" on="1"/>
        <pt x="486" y="892" on="0"/>
        <pt x="582" y="853" on="0"/>
        <pt x="673" y="807" on="0"/>
        <pt x="763" y="768" on="0"/>
      </contour>
      <contour>
        <pt x="774" y="472" on="1"/>
        <pt x="821" y="472" on="0"/>
        <pt x="907" y="515" on="0"/>
        <pt x="936" y="548" on="1"/>
        <pt x="948" y="538" on="1"/>
        <pt x="918" y="499" on="0"/>
        <pt x="823" y="452" on="0"/>
        <pt x="772" y="452" on="1"/>
        <pt x="721" y="452" on="0"/>
        <pt x="626" y="491" on="0"/>
        <pt x="534" y="537" on="0"/>
        <pt x="442" y="576" on="0"/>
        <pt x="394" y="576" on="1"/>
        <pt x="344" y="576" on="0"/>
        <pt x="261" y="533" on="0"/>
        <pt x="234" y="500" on="1"/>
        <pt x="220" y="510" on="1"/>
        <pt x="252" y="549" on="0"/>
        <pt x="344" y="596" on="0"/>
        <pt x="398" y="596" on="1"/>
        <pt x="450" y="596" on="0"/>
        <pt x="546" y="557" on="0"/>
        <pt x="637" y="511" on="0"/>
        <pt x="727" y="472" on="0"/>
      </contour>
    </TTGlyph>
    <TTGlyph name="aring" xMin="70" yMin="-12" xMax="836" yMax="1434">
      <component glyphName="a" x="0" y="0" flags="0x204"/>
      <component glyphName="ring" x="302" y="0" flags="0x4"/>
    </TTGlyph>
    <TTGlyph name="asciicircum" xMin="304" yMin="812" xMax="968" yMax="1400">
      <contour>
        <pt x="968" y="812" on="1"/>
        <pt x="954" y="812" on="1"/>
        <pt x="941" y="812" on="0"/>
        <pt x="934" y="826" on="1"/>
        <pt x="654" y="1332" on="1"/>
        <pt x="649" y="1342" on="0"/>
        <pt x="639" y="1361" on="0"/>
        <pt x="636" y="1372" on="1"/>
        <pt x="629" y="1352" on="0"/>
        <pt x="618" y="1332" on="1"/>
        <pt x="338" y="826" on="1"/>
        <pt x="335" y="821" on="0"/>
        <pt x="326" y="812" on="0"/>
        <pt x="318" y="812" on="1"/>
        <pt x="304" y="812" on="1"/>
        <pt x="630" y="1400" on="1"/>
        <pt x="642" y="1400" on="1"/>
      </contour>
    </TTGlyph>
    <TTGlyph name="asciitilde" xMin="100" yMin="452" xMax="940" yMax="728">
      <contour>
        <pt x="736" y="528" on="1"/>
        <pt x="778" y="528" on="0"/>
        <pt x="845" y="559" on="0"/>
        <pt x="893" y="613" on="0"/>
        <pt x="919" y="686" on="0"/>
        <pt x="920" y="728" on="1"/>
        <pt x="940" y="728" on="1"/>
        <pt x="940" y="684" on="0"/>
        <pt x="913" y="605" on="0"/>
        <pt x="861" y="544" on="0"/>
        <pt x="785" y="508" on="0"/>
        <pt x="736" y="508" on="1"/>
        <pt x="685" y="508" on="0"/>
        <pt x="573" y="553" on="0"/>
        <pt x="461" y="607" on="0"/>
        <pt x="352" y="652" on="0"/>
        <pt x="304" y="652" on="1"/>
        <pt x="262" y="652" on="0"/>
        <pt x="195" y="621" on="0"/>
        <pt x="147" y="567" on="0"/>
        <pt x="121" y="494" on="0"/>
        <pt x="120" y="452" on="1"/>
        <pt x="100" y="452" on="1"/>
        <pt x="100" y="495" on="0"/>
        <pt x="127" y="575" on="0"/>
        <pt x="179" y="636" on="0"/>
        <pt x="255" y="672" on="0"/>
        <pt x="304" y="672" on="1"/>
        <pt x="355" y="672" on="0"/>
        <pt x="467" y="627" on="0"/>
        <pt x="579" y="573" on="0"/>
        <pt x="688" y="528" on="0"/>
      </contour>
    </TTGlyph>
    <TTGlyph name="asterisk" xMin="186" yMin="926" xMax="682" yMax="1482">
      <contour>
        <pt x="390" y="926" on="1"/>
        <pt x="418" y="1154" on="1"/>
        <pt x="420" y="1165" on="0"/>
        <pt x="423" y="1180" on="0"/>
        <pt x="430" y="1196" on="1"/>
        <pt x="416" y="1184" on="0"/>
        <pt x="404" y="1176" on="0"/>
        <pt x="394" y="1170" on="1"/>
        <pt x="194" y="1052" on="1"/>
        <pt x="186" y="1070" on="1"/>
        <pt x="386" y="1188" on="1"/>
        <pt x="396" y="1193" on="0"/>
        <pt x="411" y="1198" on="0"/>
        <pt x="427" y="1203" on="1"/>
        <pt x="419" y="1206" on="0"/>
        <pt x="408" y="1210" on="0"/>
        <pt x="401" y="1213" on="0"/>
        <pt x="394" y="1217" on="0"/>
        <pt x="390" y="1220" on="1"/>
        <pt x="218" y="1338" on="1"/>
        <pt x="230" y="1356" on="1"/>
        <pt x="402" y="1238" on="1"/>
        <pt x="411" y="1232" on="0"/>
        <pt x="418" y="1221" on="0"/>
        <pt x="432" y="1208" on="1"/>
        <pt x="431" y="1221" on="0"/>
        <pt x="429" y="1235" on="0"/>
        <pt x="429" y="1242" on="1"/>
        <pt x="429" y="1249" on="0"/>
        <pt x="430" y="1254" on="1"/>
        <pt x="458" y="1482" on="1"/>
        <pt x="478" y="1482" on="1"/>
        <pt x="450" y="1254" on="1"/>
        <pt x="448" y="1242" on="0"/>
        <pt x="444" y="1226" on="0"/>
        <pt x="438" y="1208" on="1"/>
        <pt x="452" y="1222" on="0"/>
        <pt x="465" y="1232" on="0"/>
        <pt x="476" y="1238" on="1"/>
        <pt x="676" y="1356" on="1"/>
        <pt x="682" y="1338" on="1"/>
        <pt x="482" y="1220" on="1"/>
        <pt x="472" y="1214" on="0"/>
        <pt x="457" y="1207" on="0"/>
        <pt x="443" y="1203" on="1"/>
        <pt x="457" y="1198" on="0"/>
        <pt x="470" y="1194" on="0"/>
        <pt x="478" y="1188" on="1"/>
        <pt x="652" y="1070" on="1"/>
        <pt x="640" y="1052" on="1"/>
        <pt x="468" y="1170" on="1"/>
        <pt x="458" y="1177" on="0"/>
        <pt x="449" y="1182" on="0"/>
        <pt x="438" y="1195" on="1"/>
        <pt x="438" y="1184" on="0"/>
        <pt x="439" y="1171" on="0"/>
        <pt x="439" y="1166" on="1"/>
        <pt x="439" y="1159" on="0"/>
        <pt x="438" y="1154" on="1"/>
        <pt x="410" y="926" on="1"/>
      </contour>
    </TTGlyph>
    <TTGlyph name="at" xMin="114" yMin="-236" xMax="1426" yMax="1306">
      <contour>
        <pt x="1038" y="190" on="1"/>
        <pt x="966" y="190" on="0"/>
        <pt x="902" y="263" on="0"/>
        <pt x="902" y="326" on="1"/>
        <pt x="902" y="367" on="0"/>
        <pt x="914" y="417" on="1"/>
        <pt x="853" y="302" on="0"/>
        <pt x="701" y="196" on="0"/>
        <pt x="618" y="196" on="1"/>
        <pt x="576" y="196" on="0"/>
        <pt x="515" y="226" on="0"/>
        <pt x="475" y="279" on="0"/>
        <pt x="456" y="349" on="0"/>
        <pt x="456" y="390" on="1"/>
        <pt x="456" y="449" on="0"/>
        <pt x="489" y="571" on="0"/>
        <pt x="551" y="685" on="0"/>
        <pt x="639" y="786" on="0"/>
        <pt x="749" y="861" on="0"/>
        <pt x="878" y="904" on="0"/>
        <pt x="950" y="904" on="1"/>
        <pt x="988" y="904" on="0"/>
        <pt x="1065" y="889" on="0"/>
        <pt x="1092" y="874" on="1"/>
        <pt x="968" y="538" on="1"/>
        <pt x="942" y="469" on="0"/>
        <pt x="920" y="368" on="0"/>
        <pt x="920" y="332" on="1"/>
        <pt x="920" y="294" on="0"/>
        <pt x="941" y="247" on="0"/>
        <pt x="975" y="220" on="0"/>
        <pt x="1019" y="210" on="0"/>
        <pt x="1042" y="210" on="1"/>
        <pt x="1108" y="210" on="0"/>
        <pt x="1238" y="285" on="0"/>
        <pt x="1340" y="427" on="0"/>
        <pt x="1404" y="631" on="0"/>
        <pt x="1404" y="760" on="1"/>
        <pt x="1404" y="893" on="0"/>
        <pt x="1321" y="1090" on="0"/>
        <pt x="1180" y="1221" on="0"/>
        <pt x="992" y="1286" on="0"/>
        <pt x="886" y="1286" on="1"/>
        <pt x="793" y="1286" on="0"/>
        <pt x="609" y="1230" on="0"/>
        <pt x="442" y="1124" on="0"/>
        <pt x="299" y="973" on="0"/>
        <pt x="195" y="781" on="0"/>
        <pt x="136" y="553" on="0"/>
        <pt x="136" y="424" on="1"/>
        <pt x="136" y="270" on="0"/>
        <pt x="228" y="32" on="0"/>
        <pt x="387" y="-130" on="0"/>
        <pt x="603" y="-214" on="0"/>
        <pt x="728" y="-214" on="1"/>
        <pt x="862" y="-214" on="0"/>
        <pt x="1109" y="-141" on="0"/>
        <pt x="1222" y="-66" on="1"/>
        <pt x="1226" y="-63" on="0"/>
        <pt x="1230" y="-63" on="1"/>
        <pt x="1236" y="-63" on="0"/>
        <pt x="1238" y="-70" on="1"/>
        <pt x="1238" y="-72" on="0"/>
        <pt x="1239" y="-76" on="0"/>
        <pt x="1239" y="-78" on="1"/>
        <pt x="1239" y="-81" on="0"/>
        <pt x="1240" y="-82" on="1"/>
        <pt x="1125" y="-159" on="0"/>
        <pt x="871" y="-236" on="0"/>
        <pt x="726" y="-236" on="1"/>
        <pt x="595" y="-236" on="0"/>
        <pt x="371" y="-149" on="0"/>
        <pt x="207" y="18" on="0"/>
        <pt x="114" y="262" on="0"/>
        <pt x="114" y="420" on="1"/>
        <pt x="114" y="550" on="0"/>
        <pt x="173" y="783" on="0"/>
        <pt x="279" y="980" on="0"/>
        <pt x="424" y="1137" on="0"/>
        <pt x="596" y="1247" on="0"/>
        <pt x="788" y="1306" on="0"/>
        <pt x="888" y="1306" on="1"/>
        <pt x="997" y="1306" on="0"/>
        <pt x="1192" y="1238" on="0"/>
        <pt x="1339" y="1101" on="0"/>
        <pt x="1426" y="896" on="0"/>
        <pt x="1426" y="760" on="1"/>
        <pt x="1426" y="630" on="0"/>
        <pt x="1360" y="420" on="0"/>
        <pt x="1251" y="271" on="0"/>
        <pt x="1111" y="190" on="0"/>
      </contour>
      <contour>
        <pt x="626" y="216" on="1"/>
        <pt x="663" y="216" on="0"/>
        <pt x="747" y="244" on="0"/>
        <pt x="831" y="317" on="0"/>
        <pt x="913" y="444" on="0"/>
        <pt x="948" y="542" on="1"/>
        <pt x="1065" y="866" on="1"/>
        <pt x="1038" y="875" on="0"/>
        <pt x="986" y="884" on="0"/>
        <pt x="948" y="884" on="1"/>
        <pt x="879" y="884" on="0"/>
        <pt x="757" y="842" on="0"/>
        <pt x="653" y="770" on="0"/>
        <pt x="570" y="673" on="0"/>
        <pt x="511" y="564" on="0"/>
        <pt x="480" y="449" on="0"/>
        <pt x="480" y="394" on="1"/>
        <pt x="480" y="357" on="0"/>
        <pt x="497" y="292" on="0"/>
        <pt x="533" y="244" on="0"/>
        <pt x="588" y="216" on="0"/>
      </contour>
    </TTGlyph>
    <TTGlyph name="atilde" xMin="70" yMin="-12" xMax="862" yMax="1358">
      <component glyphName="a" x="0" y="0" flags="0x204"/>
      <component glyphName="tilde" x="282" y="0" flags="0x4"/>
    </TTGlyph>
    <TTGlyph name="b" xMin="122" yMin="-12" xMax="918" yMax="1440">
      <contour>
        <pt x="122" y="0" on="1"/>
        <pt x="296" y="1440" on="1"/>
        <pt x="318" y="1440" on="1"/>
        <pt x="209" y="553" on="1"/>
        <pt x="248" y="650" on="0"/>
        <pt x="351" y="813" on="0"/>
        <pt x="468" y="929" on="0"/>
        <pt x="598" y="994" on="0"/>
        <pt x="664" y="994" on="1"/>
        <pt x="729" y="994" on="0"/>
        <pt x="825" y="943" on="0"/>
        <pt x="888" y="853" on="0"/>
        <pt x="918" y="730" on="0"/>
        <pt x="918" y="658" on="1"/>
        <pt x="918" y="587" on="0"/>
        <pt x="889" y="432" on="0"/>
        <pt x="832" y="283" on="0"/>
        <pt x="749" y="149" on="0"/>
        <pt x="643" y="48" on="0"/>
        <pt x="514" y="-12" on="0"/>
        <pt x="440" y="-12" on="1"/>
        <pt x="353" y="-12" on="0"/>
        <pt x="203" y="74" on="0"/>
        <pt x="161" y="163" on="1"/>
        <pt x="138" y="14" on="1"/>
        <pt x="136" y="8" on="0"/>
        <pt x="136" y="0" on="0"/>
        <pt x="128" y="0" on="1"/>
      </contour>
      <contour>
        <pt x="664" y="974" on="1"/>
        <pt x="599" y="974" on="0"/>
        <pt x="470" y="907" on="0"/>
        <pt x="350" y="783" on="0"/>
        <pt x="244" y="605" on="0"/>
        <pt x="202" y="494" on="1"/>
        <pt x="166" y="193" on="1"/>
        <pt x="190" y="142" on="0"/>
        <pt x="251" y="71" on="0"/>
        <pt x="322" y="28" on="0"/>
        <pt x="401" y="8" on="0"/>
        <pt x="442" y="8" on="1"/>
        <pt x="514" y="8" on="0"/>
        <pt x="637" y="66" on="0"/>
        <pt x="738" y="164" on="0"/>
        <pt x="816" y="295" on="0"/>
        <pt x="869" y="439" on="0"/>
        <pt x="896" y="589" on="0"/>
        <pt x="896" y="658" on="1"/>
        <pt x="896" y="731" on="0"/>
        <pt x="866" y="848" on="0"/>
        <pt x="808" y="930" on="0"/>
        <pt x="721" y="974" on="0"/>
      </contour>
    </TTGlyph>
    <TTGlyph name="backslash" xMin="118" yMin="-78" xMax="550" yMax="1440">
      <contour>
        <pt x="118" y="1440" on="1"/>
        <pt x="128" y="1440" on="1"/>
        <pt x="143" y="1440" on="0"/>
        <pt x="146" y="1428" on="1"/>
        <pt x="550" y="-78" on="1"/>
        <pt x="542" y="-78" on="1"/>
        <pt x="536" y="-78" on="0"/>
        <pt x="524" y="-74" on="0"/>
        <pt x="522" y="-66" on="1"/>
      </contour>
    </TTGlyph>
    <TTGlyph name="bar" xMin="230" yMin="-360" xMax="250" yMax="1502">
      <contour>
        <pt x="230" y="1502" on="1"/>
        <pt x="250" y="1502" on="1"/>
        <pt x="250" y="-360" on="1"/>
        <pt x="230" y="-360" on="1"/>
      </contour>
    </TTGlyph>
    <TTGlyph name="braceleft" xMin="90" yMin="-242" xMax="566" yMax="1502">
      <contour>
        <pt x="230" y="480" on="1"/>
        <pt x="230" y="542" on="0"/>
        <pt x="152" y="620" on="0"/>
        <pt x="90" y="620" on="1"/>
        <pt x="92" y="640" on="1"/>
        <pt x="129" y="640" on="0"/>
        <pt x="195" y="668" on="0"/>
        <pt x="245" y="725" on="0"/>
        <pt x="274" y="810" on="0"/>
        <pt x="274" y="868" on="1"/>
        <pt x="274" y="904" on="0"/>
        <pt x="268" y="982" on="0"/>
        <pt x="262" y="1060" on="0"/>
        <pt x="256" y="1138" on="0"/>
        <pt x="256" y="1174" on="1"/>
        <pt x="256" y="1248" on="0"/>
        <pt x="296" y="1369" on="0"/>
        <pt x="366" y="1455" on="0"/>
        <pt x="460" y="1502" on="0"/>
        <pt x="514" y="1502" on="1"/>
        <pt x="566" y="1502" on="1"/>
        <pt x="566" y="1494" on="1"/>
        <pt x="563" y="1484" on="0"/>
        <pt x="552" y="1484" on="1"/>
        <pt x="512" y="1484" on="1"/>
        <pt x="465" y="1484" on="0"/>
        <pt x="380" y="1444" on="0"/>
        <pt x="316" y="1366" on="0"/>
        <pt x="278" y="1250" on="0"/>
        <pt x="278" y="1174" on="1"/>
        <pt x="278" y="1138" on="0"/>
        <pt x="284" y="1059" on="0"/>
        <pt x="290" y="978" on="0"/>
        <pt x="296" y="900" on="0"/>
        <pt x="296" y="866" on="1"/>
        <pt x="296" y="806" on="0"/>
        <pt x="264" y="721" on="0"/>
        <pt x="216" y="664" on="0"/>
        <pt x="159" y="634" on="0"/>
        <pt x="134" y="630" on="1"/>
        <pt x="155" y="626" on="0"/>
        <pt x="196" y="604" on="0"/>
        <pt x="229" y="567" on="0"/>
        <pt x="250" y="515" on="0"/>
        <pt x="250" y="482" on="1"/>
        <pt x="250" y="420" on="0"/>
        <pt x="212" y="298" on="0"/>
        <pt x="167" y="175" on="0"/>
        <pt x="130" y="47" on="0"/>
        <pt x="130" y="-20" on="1"/>
        <pt x="130" y="-66" on="0"/>
        <pt x="155" y="-141" on="0"/>
        <pt x="200" y="-195" on="0"/>
        <pt x="264" y="-224" on="0"/>
        <pt x="302" y="-224" on="1"/>
        <pt x="344" y="-224" on="1"/>
        <pt x="354" y="-224" on="0"/>
        <pt x="354" y="-234" on="1"/>
        <pt x="352" y="-242" on="1"/>
        <pt x="300" y="-242" on="1"/>
        <pt x="256" y="-242" on="0"/>
        <pt x="185" y="-207" on="0"/>
        <pt x="135" y="-146" on="0"/>
        <pt x="108" y="-65" on="0"/>
        <pt x="108" y="-18" on="1"/>
        <pt x="108" y="52" on="0"/>
        <pt x="146" y="176" on="0"/>
        <pt x="192" y="296" on="0"/>
        <pt x="230" y="415" on="0"/>
      </contour>
    </TTGlyph>
    <TTGlyph name="braceright" xMin="20" yMin="-242" xMax="498" yMax="1502">
      <contour>
        <pt x="312" y="392" on="1"/>
        <pt x="312" y="356" on="0"/>
        <pt x="318" y="278" on="0"/>
        <pt x="324" y="200" on="0"/>
        <pt x="330" y="122" on="0"/>
        <pt x="330" y="86" on="1"/>
        <pt x="330" y="12" on="0"/>
        <pt x="290" y="-109" on="0"/>
        <pt x="220" y="-195" on="0"/>
        <pt x="126" y="-242" on="0"/>
        <pt x="72" y="-242" on="1"/>
        <pt x="20" y="-242" on="1"/>
        <pt x="21" y="-235" on="1"/>
        <pt x="23" y="-224" on="0"/>
        <pt x="34" y="-224" on="1"/>
        <pt x="74" y="-224" on="1"/>
        <pt x="121" y="-224" on="0"/>
        <pt x="206" y="-184" on="0"/>
        <pt x="270" y="-106" on="0"/>
        <pt x="308" y="10" on="0"/>
        <pt x="308" y="86" on="1"/>
        <pt x="308" y="122" on="0"/>
        <pt x="303" y="201" on="0"/>
        <pt x="297" y="282" on="0"/>
        <pt x="292" y="359" on="0"/>
        <pt x="292" y="394" on="1"/>
        <pt x="292" y="453" on="0"/>
        <pt x="323" y="538" on="0"/>
        <pt x="370" y="595" on="0"/>
        <pt x="426" y="625" on="0"/>
        <pt x="452" y="630" on="1"/>
        <pt x="431" y="634" on="0"/>
        <pt x="390" y="656" on="0"/>
        <pt x="357" y="693" on="0"/>
        <pt x="336" y="745" on="0"/>
        <pt x="336" y="778" on="1"/>
        <pt x="336" y="840" on="0"/>
        <pt x="373" y="962" on="0"/>
        <pt x="418" y="1085" on="0"/>
        <pt x="456" y="1212" on="0"/>
        <pt x="456" y="1280" on="1"/>
        <pt x="456" y="1326" on="0"/>
        <pt x="431" y="1401" on="0"/>
        <pt x="386" y="1455" on="0"/>
        <pt x="322" y="1484" on="0"/>
        <pt x="284" y="1484" on="1"/>
        <pt x="244" y="1484" on="1"/>
        <pt x="233" y="1484" on="0"/>
        <pt x="233" y="1494" on="1"/>
        <pt x="233" y="1498" on="1"/>
        <pt x="233" y="1500" on="0"/>
        <pt x="234" y="1502" on="1"/>
        <pt x="286" y="1502" on="1"/>
        <pt x="330" y="1502" on="0"/>
        <pt x="401" y="1467" on="0"/>
        <pt x="451" y="1406" on="0"/>
        <pt x="478" y="1324" on="0"/>
        <pt x="478" y="1278" on="1"/>
        <pt x="478" y="1231" on="0"/>
        <pt x="460" y="1145" on="0"/>
        <pt x="434" y="1063" on="0"/>
        <pt x="402" y="984" on="0"/>
        <pt x="376" y="904" on="0"/>
        <pt x="358" y="823" on="0"/>
        <pt x="358" y="780" on="1"/>
        <pt x="358" y="749" on="0"/>
        <pt x="378" y="698" on="0"/>
        <pt x="415" y="661" on="0"/>
        <pt x="466" y="640" on="0"/>
        <pt x="498" y="640" on="1"/>
        <pt x="494" y="620" on="1"/>
        <pt x="458" y="620" on="0"/>
        <pt x="392" y="592" on="0"/>
        <pt x="342" y="535" on="0"/>
        <pt x="312" y="450" on="0"/>
      </contour>
    </TTGlyph>
    <TTGlyph name="bracketleft" xMin="98" yMin="-242" xMax="564" yMax="1502">
      <contour>
        <pt x="98" y="-242" on="1"/>
        <pt x="312" y="1502" on="1"/>
        <pt x="564" y="1502" on="1"/>
        <pt x="564" y="1496" on="1"/>
        <pt x="564" y="1484" on="0"/>
        <pt x="550" y="1484" on="1"/>
        <pt x="332" y="1484" on="1"/>
        <pt x="120" y="-224" on="1"/>
        <pt x="340" y="-224" on="1"/>
        <pt x="352" y="-224" on="0"/>
        <pt x="352" y="-236" on="1"/>
        <pt x="350" y="-242" on="1"/>
      </contour>
    </TTGlyph>
    <TTGlyph name="bracketright" xMin="22" yMin="-242" xMax="490" yMax="1502">
      <contour>
        <pt x="22" y="-236" on="1"/>
        <pt x="22" y="-224" on="0"/>
        <pt x="38" y="-224" on="1"/>
        <pt x="256" y="-224" on="1"/>
        <pt x="466" y="1484" on="1"/>
        <pt x="248" y="1484" on="1"/>
        <pt x="240" y="1484" on="0"/>
        <pt x="236" y="1490" on="0"/>
        <pt x="236" y="1496" on="1"/>
        <pt x="236" y="1502" on="1"/>
        <pt x="490" y="1502" on="1"/>
        <pt x="276" y="-242" on="1"/>
        <pt x="22" y="-242" on="1"/>
      </contour>
    </TTGlyph>
    <TTGlyph name="breve" xMin="177" yMin="1172" xMax="568" yMax="1400">
      <contour>
        <pt x="346" y="1172" on="1"/>
        <pt x="301" y="1172" on="0"/>
        <pt x="237" y="1200" on="0"/>
        <pt x="196" y="1249" on="0"/>
        <pt x="177" y="1315" on="0"/>
        <pt x="177" y="1353" on="1"/>
        <pt x="177" y="1376" on="0"/>
        <pt x="180" y="1400" on="1"/>
        <pt x="200" y="1400" on="1"/>
        <pt x="197" y="1377" on="0"/>
        <pt x="197" y="1356" on="1"/>
        <pt x="197" y="1322" on="0"/>
        <pt x="213" y="1263" on="0"/>
        <pt x="249" y="1218" on="0"/>
        <pt x="307" y="1192" on="0"/>
        <pt x="348" y="1192" on="1"/>
        <pt x="396" y="1192" on="0"/>
        <pt x="467" y="1227" on="0"/>
        <pt x="515" y="1284" on="0"/>
        <pt x="543" y="1359" on="0"/>
        <pt x="548" y="1400" on="1"/>
        <pt x="568" y="1400" on="1"/>
        <pt x="562" y="1353" on="0"/>
        <pt x="530" y="1271" on="0"/>
        <pt x="476" y="1208" on="0"/>
        <pt x="398" y="1172" on="0"/>
      </contour>
    </TTGlyph>
    <TTGlyph name="breve.case" xMin="211" yMin="1528" xMax="602" yMax="1728">
      <contour>
        <pt x="384" y="1528" on="1"/>
        <pt x="293" y="1528" on="0"/>
        <pt x="211" y="1611" on="0"/>
        <pt x="211" y="1685" on="1"/>
        <pt x="211" y="1705" on="0"/>
        <pt x="214" y="1728" on="1"/>
        <pt x="234" y="1728" on="1"/>
        <pt x="231" y="1707" on="0"/>
        <pt x="231" y="1688" on="1"/>
        <pt x="231" y="1623" on="0"/>
        <pt x="302" y="1548" on="0"/>
        <pt x="386" y="1548" on="1"/>
        <pt x="434" y="1548" on="0"/>
        <pt x="504" y="1574" on="0"/>
        <pt x="551" y="1621" on="0"/>
        <pt x="577" y="1687" on="0"/>
        <pt x="582" y="1728" on="1"/>
        <pt x="602" y="1728" on="1"/>
        <pt x="590" y="1635" on="0"/>
        <pt x="487" y="1528" on="0"/>
      </contour>
    </TTGlyph>
    <TTGlyph name="brokenbar" xMin="230" yMin="-360" xMax="250" yMax="1502">
      <contour>
        <pt x="230" y="1502" on="1"/>
        <pt x="250" y="1502" on="1"/>
        <pt x="250" y="740" on="1"/>
        <pt x="230" y="740" on="1"/>
      </contour>
      <contour>
        <pt x="230" y="402" on="1"/>
        <pt x="250" y="402" on="1"/>
        <pt x="250" y="-360" on="1"/>
        <pt x="230" y="-360" on="1"/>
      </contour>
    </TTGlyph>
    <TTGlyph name="bullet" xMin="384" yMin="374" xMax="836" yMax="826">
      <contour>
        <pt x="384" y="598" on="1"/>
        <pt x="384" y="645" on="0"/>
        <pt x="420" y="728" on="0"/>
        <pt x="481" y="790" on="0"/>
        <pt x="562" y="826" on="0"/>
        <pt x="608" y="826" on="1"/>
        <pt x="655" y="826" on="0"/>
        <pt x="738" y="790" on="0"/>
        <pt x="800" y="728" on="0"/>
        <pt x="836" y="645" on="0"/>
        <pt x="836" y="598" on="1"/>
        <pt x="836" y="552" on="0"/>
        <pt x="800" y="471" on="0"/>
        <pt x="738" y="410" on="0"/>
        <pt x="655" y="374" on="0"/>
        <pt x="608" y="374" on="1"/>
        <pt x="562" y="374" on="0"/>
        <pt x="481" y="410" on="0"/>
        <pt x="420" y="471" on="0"/>
        <pt x="384" y="552" on="0"/>
      </contour>
    </TTGlyph>
    <TTGlyph name="c" xMin="82" yMin="-12" xMax="814" yMax="996">
      <contour>
        <pt x="778" y="182" on="1"/>
        <pt x="723" y="121" on="0"/>
        <pt x="628" y="45" on="0"/>
        <pt x="538" y="3" on="0"/>
        <pt x="450" y="-12" on="0"/>
        <pt x="402" y="-12" on="1"/>
        <pt x="318" y="-12" on="0"/>
        <pt x="197" y="47" on="0"/>
        <pt x="119" y="149" on="0"/>
        <pt x="82" y="289" on="0"/>
        <pt x="82" y="370" on="1"/>
        <pt x="82" y="447" on="0"/>
        <pt x="114" y="601" on="0"/>
        <pt x="173" y="740" on="0"/>
        <pt x="257" y="859" on="0"/>
        <pt x="362" y="946" on="0"/>
        <pt x="486" y="996" on="0"/>
        <pt x="556" y="996" on="1"/>
        <pt x="604" y="996" on="0"/>
        <pt x="681" y="977" on="0"/>
        <pt x="743" y="942" on="0"/>
        <pt x="793" y="894" on="0"/>
        <pt x="814" y="866" on="1"/>
        <pt x="810" y="862" on="1"/>
        <pt x="806" y="858" on="0"/>
        <pt x="800" y="858" on="1"/>
        <pt x="793" y="858" on="0"/>
        <pt x="765" y="895" on="0"/>
        <pt x="709" y="939" on="0"/>
        <pt x="621" y="976" on="0"/>
        <pt x="554" y="976" on="1"/>
        <pt x="457" y="976" on="0"/>
        <pt x="293" y="872" on="0"/>
        <pt x="173" y="702" on="0"/>
        <pt x="106" y="484" on="0"/>
        <pt x="106" y="370" on="1"/>
        <pt x="106" y="294" on="0"/>
        <pt x="139" y="162" on="0"/>
        <pt x="211" y="64" on="0"/>
        <pt x="323" y="8" on="0"/>
        <pt x="402" y="8" on="1"/>
        <pt x="462" y="8" on="0"/>
        <pt x="559" y="35" on="0"/>
        <pt x="634" y="75" on="0"/>
        <pt x="690" y="121" on="0"/>
        <pt x="731" y="161" on="0"/>
        <pt x="757" y="188" on="0"/>
        <pt x="766" y="188" on="1"/>
        <pt x="769" y="188" on="0"/>
        <pt x="773" y="187" on="0"/>
      </contour>
    </TTGlyph>
    <TTGlyph name="cacute" xMin="82" yMin="-12" xMax="814" yMax="1418">
      <component glyphName="c" x="0" y="0" flags="0x204"/>
      <component glyphName="acute" x="230" y="2" flags="0x4"/>
    </TTGlyph>
    <TTGlyph name="caron" xMin="166" yMin="1170" xMax="574" yMax="1400">
      <contour>
        <pt x="350" y="1170" on="1"/>
        <pt x="334" y="1170" on="1"/>
        <pt x="166" y="1400" on="1"/>
        <pt x="184" y="1400" on="1"/>
        <pt x="193" y="1400" on="0"/>
        <pt x="198" y="1392" on="1"/>
        <pt x="340" y="1196" on="1"/>
        <pt x="342" y="1194" on="1"/>
        <pt x="343" y="1193" on="0"/>
        <pt x="343" y="1190" on="0"/>
        <pt x="344" y="1189" on="1"/>
        <pt x="540" y="1392" on="1"/>
        <pt x="548" y="1400" on="0"/>
        <pt x="556" y="1400" on="1"/>
        <pt x="574" y="1400" on="1"/>
      </contour>
    </TTGlyph>
    <TTGlyph name="caron.case" xMin="182" yMin="1538" xMax="626" yMax="1728">
      <contour>
        <pt x="182" y="1728" on="1"/>
        <pt x="212" y="1728" on="1"/>
        <pt x="383" y="1556" on="1"/>
        <pt x="596" y="1728" on="1"/>
        <pt x="626" y="1728" on="1"/>
        <pt x="390" y="1538" on="1"/>
        <pt x="372" y="1538" on="1"/>
      </contour>
    </TTGlyph>
    <TTGlyph name="caron.salt" xMin="290" yMin="1162" xMax="390" yMax="1442">
      <contour>
        <pt x="378" y="1442" on="1"/>
        <pt x="390" y="1442" on="0"/>
        <pt x="390" y="1426" on="1"/>
        <pt x="390" y="1415" on="0"/>
        <pt x="380" y="1378" on="0"/>
        <pt x="361" y="1318" on="0"/>
        <pt x="331" y="1233" on="0"/>
        <pt x="312" y="1176" on="1"/>
        <pt x="310" y="1170" on="0"/>
        <pt x="304" y="1162" on="0"/>
        <pt x="296" y="1162" on="1"/>
        <pt x="290" y="1162" on="1"/>
        <pt x="368" y="1442" on="1"/>
      </contour>
    </TTGlyph>
    <TTGlyph name="ccedilla" xMin="82" yMin="-358" xMax="814" yMax="996">
      <contour>
        <pt x="266" y="-296" on="1"/>
        <pt x="270" y="-296" on="0"/>
        <pt x="285" y="-310" on="0"/>
        <pt x="312" y="-326" on="0"/>
        <pt x="354" y="-340" on="0"/>
        <pt x="386" y="-340" on="1"/>
        <pt x="446" y="-340" on="0"/>
        <pt x="516" y="-279" on="0"/>
        <pt x="516" y="-228" on="1"/>
        <pt x="516" y="-201" on="0"/>
        <pt x="491" y="-166" on="0"/>
        <pt x="446" y="-143" on="0"/>
        <pt x="386" y="-131" on="0"/>
        <pt x="352" y="-126" on="1"/>
        <pt x="401" y="-12" on="1"/>
        <pt x="317" y="-12" on="0"/>
        <pt x="196" y="47" on="0"/>
        <pt x="119" y="150" on="0"/>
        <pt x="82" y="289" on="0"/>
        <pt x="82" y="370" on="1"/>
        <pt x="82" y="447" on="0"/>
        <pt x="114" y="601" on="0"/>
        <pt x="173" y="740" on="0"/>
        <pt x="257" y="859" on="0"/>
        <pt x="362" y="946" on="0"/>
        <pt x="486" y="996" on="0"/>
        <pt x="556" y="996" on="1"/>
        <pt x="604" y="996" on="0"/>
        <pt x="681" y="977" on="0"/>
        <pt x="743" y="942" on="0"/>
        <pt x="793" y="894" on="0"/>
        <pt x="814" y="866" on="1"/>
        <pt x="810" y="862" on="1"/>
        <pt x="806" y="858" on="0"/>
        <pt x="800" y="858" on="1"/>
        <pt x="793" y="858" on="0"/>
        <pt x="765" y="895" on="0"/>
        <pt x="709" y="939" on="0"/>
        <pt x="621" y="976" on="0"/>
        <pt x="554" y="976" on="1"/>
        <pt x="457" y="976" on="0"/>
        <pt x="293" y="872" on="0"/>
        <pt x="173" y="702" on="0"/>
        <pt x="106" y="484" on="0"/>
        <pt x="106" y="370" on="1"/>
        <pt x="106" y="294" on="0"/>
        <pt x="139" y="162" on="0"/>
        <pt x="211" y="64" on="0"/>
        <pt x="323" y="8" on="0"/>
        <pt x="402" y="8" on="1"/>
        <pt x="462" y="8" on="0"/>
        <pt x="559" y="35" on="0"/>
        <pt x="634" y="75" on="0"/>
        <pt x="690" y="121" on="0"/>
        <pt x="731" y="161" on="0"/>
        <pt x="757" y="188" on="0"/>
        <pt x="766" y="188" on="1"/>
        <pt x="772" y="188" on="0"/>
        <pt x="776" y="184" on="1"/>
        <pt x="778" y="182" on="1"/>
        <pt x="725" y="123" on="0"/>
        <pt x="634" y="49" on="0"/>
        <pt x="547" y="6" on="0"/>
        <pt x="462" y="-11" on="0"/>
        <pt x="417" y="-12" on="1"/>
        <pt x="377" y="-110" on="1"/>
        <pt x="413" y="-116" on="0"/>
        <pt x="472" y="-133" on="0"/>
        <pt x="515" y="-160" on="0"/>
        <pt x="538" y="-197" on="0"/>
        <pt x="538" y="-224" on="1"/>
        <pt x="538" y="-256" on="0"/>
        <pt x="513" y="-305" on="0"/>
        <pt x="470" y="-340" on="0"/>
        <pt x="412" y="-358" on="0"/>
        <pt x="378" y="-358" on="1"/>
        <pt x="340" y="-358" on="0"/>
        <pt x="270" y="-329" on="0"/>
        <pt x="252" y="-306" on="1"/>
        <pt x="256" y="-302" on="1"/>
        <pt x="262" y="-296" on="0"/>
      </contour>
    </TTGlyph>
    <TTGlyph name="cedilla" xMin="24" yMin="-358" xMax="310" yMax="0">
      <contour>
        <pt x="38" y="-296" on="1"/>
        <pt x="42" y="-296" on="0"/>
        <pt x="57" y="-310" on="0"/>
        <pt x="84" y="-326" on="0"/>
        <pt x="126" y="-340" on="0"/>
        <pt x="158" y="-340" on="1"/>
        <pt x="218" y="-340" on="0"/>
        <pt x="288" y="-279" on="0"/>
        <pt x="288" y="-228" on="1"/>
        <pt x="288" y="-201" on="0"/>
        <pt x="263" y="-166" on="0"/>
        <pt x="218" y="-143" on="0"/>
        <pt x="158" y="-131" on="0"/>
        <pt x="124" y="-126" on="1"/>
        <pt x="178" y="0" on="1"/>
        <pt x="194" y="0" on="1"/>
        <pt x="149" y="-110" on="1"/>
        <pt x="185" y="-116" on="0"/>
        <pt x="244" y="-133" on="0"/>
        <pt x="287" y="-160" on="0"/>
        <pt x="310" y="-197" on="0"/>
        <pt x="310" y="-224" on="1"/>
        <pt x="310" y="-256" on="0"/>
        <pt x="285" y="-305" on="0"/>
        <pt x="242" y="-340" on="0"/>
        <pt x="184" y="-358" on="0"/>
        <pt x="150" y="-358" on="1"/>
        <pt x="112" y="-358" on="0"/>
        <pt x="42" y="-329" on="0"/>
        <pt x="24" y="-306" on="1"/>
        <pt x="28" y="-302" on="1"/>
        <pt x="34" y="-296" on="0"/>
      </contour>
    </TTGlyph>
    <TTGlyph name="cent" xMin="170" yMin="-268" xMax="1000" yMax="1242">
      <contour>
        <pt x="552" y="-11" on="1"/>
        <pt x="462" y="-9" on="0"/>
        <pt x="320" y="51" on="0"/>
        <pt x="222" y="160" on="0"/>
        <pt x="170" y="314" on="0"/>
        <pt x="170" y="410" on="1"/>
        <pt x="170" y="541" on="0"/>
        <pt x="245" y="757" on="0"/>
        <pt x="385" y="911" on="0"/>
        <pt x="584" y="996" on="0"/>
        <pt x="708" y="996" on="1"/>
        <pt x="744" y="1226" on="1"/>
        <pt x="747" y="1242" on="0"/>
        <pt x="758" y="1242" on="1"/>
        <pt x="768" y="1242" on="1"/>
        <pt x="730" y="995" on="1"/>
        <pt x="820" y="992" on="0"/>
        <pt x="954" y="936" on="0"/>
        <pt x="1000" y="894" on="1"/>
        <pt x="994" y="888" on="1"/>
        <pt x="991" y="886" on="0"/>
        <pt x="987" y="884" on="0"/>
        <pt x="984" y="884" on="1"/>
        <pt x="978" y="884" on="0"/>
        <pt x="947" y="911" on="0"/>
        <pt x="888" y="944" on="0"/>
        <pt x="795" y="974" on="0"/>
        <pt x="727" y="976" on="1"/>
        <pt x="576" y="8" on="1"/>
        <pt x="660" y="9" on="0"/>
        <pt x="781" y="46" on="0"/>
        <pt x="862" y="89" on="0"/>
        <pt x="906" y="124" on="0"/>
        <pt x="912" y="124" on="1"/>
        <pt x="915" y="124" on="0"/>
        <pt x="918" y="121" on="0"/>
        <pt x="920" y="119" on="1"/>
        <pt x="922" y="116" on="1"/>
        <pt x="904" y="95" on="0"/>
        <pt x="837" y="50" on="0"/>
        <pt x="746" y="13" on="0"/>
        <pt x="635" y="-11" on="0"/>
        <pt x="573" y="-12" on="1"/>
        <pt x="536" y="-252" on="1"/>
        <pt x="533" y="-268" on="0"/>
        <pt x="522" y="-268" on="1"/>
        <pt x="512" y="-268" on="1"/>
      </contour>
      <contour>
        <pt x="194" y="412" on="1"/>
        <pt x="194" y="319" on="0"/>
        <pt x="244" y="171" on="0"/>
        <pt x="338" y="67" on="0"/>
        <pt x="471" y="10" on="0"/>
        <pt x="555" y="8" on="1"/>
        <pt x="705" y="976" on="1"/>
        <pt x="588" y="976" on="0"/>
        <pt x="399" y="896" on="0"/>
        <pt x="266" y="749" on="0"/>
        <pt x="194" y="541" on="0"/>
      </contour>
    </TTGlyph>
    <TTGlyph name="circumflex" xMin="138" yMin="1170" xMax="544" yMax="1400">
      <contour>
        <pt x="362" y="1400" on="1"/>
        <pt x="378" y="1400" on="1"/>
        <pt x="544" y="1170" on="1"/>
        <pt x="528" y="1170" on="1"/>
        <pt x="525" y="1170" on="0"/>
        <pt x="517" y="1173" on="0"/>
        <pt x="514" y="1178" on="1"/>
        <pt x="372" y="1374" on="1"/>
        <pt x="371" y="1375" on="0"/>
        <pt x="370" y="1378" on="0"/>
        <pt x="369" y="1379" on="1"/>
        <pt x="368" y="1380" on="0"/>
        <pt x="368" y="1381" on="1"/>
        <pt x="367" y="1379" on="0"/>
        <pt x="362" y="1374" on="1"/>
        <pt x="172" y="1178" on="1"/>
        <pt x="169" y="1175" on="0"/>
        <pt x="161" y="1170" on="0"/>
        <pt x="156" y="1170" on="1"/>
        <pt x="138" y="1170" on="1"/>
      </contour>
    </TTGlyph>
    <TTGlyph name="circumflex.case" xMin="154" yMin="1538" xMax="598" yMax="1728">
      <contour>
        <pt x="598" y="1538" on="1"/>
        <pt x="578" y="1538" on="1"/>
        <pt x="575" y="1538" on="0"/>
        <pt x="565" y="1541" on="0"/>
        <pt x="562" y="1546" on="1"/>
        <pt x="402" y="1706" on="1"/>
        <pt x="399" y="1707" on="0"/>
        <pt x="398" y="1710" on="1"/>
        <pt x="397" y="1708" on="0"/>
        <pt x="395" y="1707" on="0"/>
        <pt x="394" y="1706" on="1"/>
        <pt x="194" y="1546" on="1"/>
        <pt x="189" y="1541" on="0"/>
        <pt x="179" y="1538" on="0"/>
        <pt x="174" y="1538" on="1"/>
        <pt x="154" y="1538" on="1"/>
        <pt x="392" y="1728" on="1"/>
        <pt x="408" y="1728" on="1"/>
      </contour>
    </TTGlyph>
    <TTGlyph name="colon" xMin="70" yMin="-16" xMax="304" yMax="952">
      <contour>
        <pt x="70" y="48" on="1"/>
        <pt x="70" y="75" on="0"/>
        <pt x="107" y="114" on="0"/>
        <pt x="134" y="114" on="1"/>
        <pt x="161" y="114" on="0"/>
        <pt x="200" y="75" on="0"/>
        <pt x="200" y="48" on="1"/>
        <pt x="200" y="21" on="0"/>
        <pt x="161" y="-16" on="0"/>
        <pt x="134" y="-16" on="1"/>
        <pt x="107" y="-16" on="0"/>
        <pt x="70" y="21" on="0"/>
      </contour>
      <contour>
        <pt x="174" y="886" on="1"/>
        <pt x="174" y="913" on="0"/>
        <pt x="211" y="952" on="0"/>
        <pt x="238" y="952" on="1"/>
        <pt x="265" y="952" on="0"/>
        <pt x="304" y="913" on="0"/>
        <pt x="304" y="886" on="1"/>
        <pt x="304" y="859" on="0"/>
        <pt x="265" y="822" on="0"/>
        <pt x="238" y="822" on="1"/>
        <pt x="211" y="822" on="0"/>
        <pt x="174" y="859" on="0"/>
      </contour>
    </TTGlyph>
    <TTGlyph name="comma" xMin="72" yMin="-238" xMax="196" yMax="114">
      <contour>
        <pt x="74" y="52" on="1"/>
        <pt x="74" y="76" on="0"/>
        <pt x="107" y="114" on="0"/>
        <pt x="134" y="114" on="1"/>
        <pt x="161" y="114" on="0"/>
        <pt x="196" y="74" on="0"/>
        <pt x="196" y="36" on="1"/>
        <pt x="196" y="-41" on="0"/>
        <pt x="129" y="-184" on="0"/>
        <pt x="78" y="-238" on="1"/>
        <pt x="75" y="-235" on="1"/>
        <pt x="72" y="-232" on="0"/>
        <pt x="72" y="-228" on="1"/>
        <pt x="72" y="-223" on="0"/>
        <pt x="76" y="-218" on="1"/>
        <pt x="83" y="-207" on="0"/>
        <pt x="116" y="-163" on="0"/>
        <pt x="149" y="-104" on="0"/>
        <pt x="175" y="-30" on="0"/>
        <pt x="176" y="11" on="1"/>
        <pt x="159" y="-8" on="0"/>
        <pt x="130" y="-8" on="1"/>
        <pt x="106" y="-8" on="0"/>
        <pt x="74" y="25" on="0"/>
      </contour>
    </TTGlyph>
    <TTGlyph name="copyright" xMin="120" yMin="-14" xMax="1548" yMax="1414">
      <contour>
        <pt x="1156" y="384" on="1"/>
        <pt x="1160" y="387" on="0"/>
        <pt x="1164" y="387" on="1"/>
        <pt x="1168" y="387" on="0"/>
        <pt x="1172" y="381" on="1"/>
        <pt x="1174" y="378" on="0"/>
        <pt x="1176" y="376" on="1"/>
        <pt x="1146" y="350" on="0"/>
        <pt x="1079" y="306" on="0"/>
        <pt x="998" y="274" on="0"/>
        <pt x="902" y="256" on="0"/>
        <pt x="844" y="256" on="1"/>
        <pt x="749" y="256" on="0"/>
        <pt x="590" y="318" on="0"/>
        <pt x="475" y="433" on="0"/>
        <pt x="410" y="597" on="0"/>
        <pt x="410" y="700" on="1"/>
        <pt x="410" y="800" on="0"/>
        <pt x="475" y="964" on="0"/>
        <pt x="593" y="1081" on="0"/>
        <pt x="758" y="1146" on="0"/>
        <pt x="858" y="1146" on="1"/>
        <pt x="909" y="1146" on="0"/>
        <pt x="991" y="1133" on="0"/>
        <pt x="1062" y="1108" on="0"/>
        <pt x="1126" y="1069" on="0"/>
        <pt x="1158" y="1044" on="1"/>
        <pt x="1153" y="1036" on="0"/>
        <pt x="1149" y="1034" on="0"/>
        <pt x="1144" y="1034" on="1"/>
        <pt x="1138" y="1034" on="0"/>
        <pt x="1104" y="1063" on="0"/>
        <pt x="1038" y="1097" on="0"/>
        <pt x="934" y="1126" on="0"/>
        <pt x="858" y="1126" on="1"/>
        <pt x="764" y="1126" on="0"/>
        <pt x="608" y="1067" on="0"/>
        <pt x="496" y="956" on="0"/>
        <pt x="434" y="798" on="0"/>
        <pt x="434" y="700" on="1"/>
        <pt x="434" y="600" on="0"/>
        <pt x="496" y="443" on="0"/>
        <pt x="605" y="334" on="0"/>
        <pt x="755" y="276" on="0"/>
        <pt x="844" y="276" on="1"/>
        <pt x="901" y="276" on="0"/>
        <pt x="990" y="290" on="0"/>
        <pt x="1063" y="317" on="0"/>
        <pt x="1125" y="358" on="0"/>
      </contour>
      <contour>
        <pt x="120" y="700" on="1"/>
        <pt x="120" y="848" on="0"/>
        <pt x="232" y="1108" on="0"/>
        <pt x="426" y="1302" on="0"/>
        <pt x="686" y="1414" on="0"/>
        <pt x="834" y="1414" on="1"/>
        <pt x="982" y="1414" on="0"/>
        <pt x="1242" y="1302" on="0"/>
        <pt x="1436" y="1108" on="0"/>
        <pt x="1548" y="848" on="0"/>
        <pt x="1548" y="700" on="1"/>
        <pt x="1548" y="552" on="0"/>
        <pt x="1436" y="292" on="0"/>
        <pt x="1242" y="98" on="0"/>
        <pt x="982" y="-14" on="0"/>
        <pt x="834" y="-14" on="1"/>
        <pt x="686" y="-14" on="0"/>
        <pt x="426" y="98" on="0"/>
        <pt x="232" y="292" on="0"/>
        <pt x="120" y="552" on="0"/>
      </contour>
      <contour>
        <pt x="144" y="700" on="1"/>
        <pt x="144" y="557" on="0"/>
        <pt x="252" y="305" on="0"/>
        <pt x="439" y="118" on="0"/>
        <pt x="691" y="10" on="0"/>
        <pt x="834" y="10" on="1"/>
        <pt x="929" y="10" on="0"/>
        <pt x="1106" y="59" on="0"/>
        <pt x="1260" y="149" on="0"/>
        <pt x="1386" y="275" on="0"/>
        <pt x="1477" y="428" on="0"/>
        <pt x="1526" y="604" on="0"/>
        <pt x="1526" y="700" on="1"/>
        <pt x="1526" y="795" on="0"/>
        <pt x="1477" y="972" on="0"/>
        <pt x="1386" y="1126" on="0"/>
        <pt x="1260" y="1252" on="0"/>
        <pt x="1106" y="1343" on="0"/>
        <pt x="929" y="1392" on="0"/>
        <pt x="834" y="1392" on="1"/>
        <pt x="738" y="1392" on="0"/>
        <pt x="562" y="1343" on="0"/>
        <pt x="409" y="1252" on="0"/>
        <pt x="283" y="1126" on="0"/>
        <pt x="193" y="972" on="0"/>
        <pt x="144" y="795" on="0"/>
      </contour>
    </TTGlyph>
    <TTGlyph name="currency" xMin="222" yMin="272" xMax="1018" yMax="1068">
      <contour>
        <pt x="290" y="670" on="1"/>
        <pt x="290" y="736" on="0"/>
        <pt x="337" y="852" on="0"/>
        <pt x="379" y="897" on="1"/>
        <pt x="222" y="1054" on="1"/>
        <pt x="236" y="1068" on="1"/>
        <pt x="393" y="911" on="1"/>
        <pt x="438" y="953" on="0"/>
        <pt x="554" y="1002" on="0"/>
        <pt x="620" y="1002" on="1"/>
        <pt x="686" y="1002" on="0"/>
        <pt x="803" y="954" on="0"/>
        <pt x="848" y="912" on="1"/>
        <pt x="1004" y="1068" on="1"/>
        <pt x="1018" y="1054" on="1"/>
        <pt x="862" y="898" on="1"/>
        <pt x="904" y="853" on="0"/>
        <pt x="952" y="736" on="0"/>
        <pt x="952" y="670" on="1"/>
        <pt x="952" y="604" on="0"/>
        <pt x="903" y="488" on="0"/>
        <pt x="861" y="443" on="1"/>
        <pt x="1018" y="286" on="1"/>
        <pt x="1004" y="272" on="1"/>
        <pt x="847" y="429" on="1"/>
        <pt x="802" y="387" on="0"/>
        <pt x="686" y="340" on="0"/>
        <pt x="620" y="340" on="1"/>
        <pt x="554" y="340" on="0"/>
        <pt x="439" y="388" on="0"/>
        <pt x="394" y="430" on="1"/>
        <pt x="236" y="272" on="1"/>
        <pt x="222" y="286" on="1"/>
        <pt x="380" y="444" on="1"/>
        <pt x="338" y="489" on="0"/>
        <pt x="290" y="604" on="0"/>
      </contour>
      <contour>
        <pt x="310" y="670" on="1"/>
        <pt x="310" y="606" on="0"/>
        <pt x="359" y="493" on="0"/>
        <pt x="443" y="409" on="0"/>
        <pt x="556" y="360" on="0"/>
        <pt x="620" y="360" on="1"/>
        <pt x="684" y="360" on="0"/>
        <pt x="798" y="409" on="0"/>
        <pt x="883" y="493" on="0"/>
        <pt x="932" y="606" on="0"/>
        <pt x="932" y="670" on="1"/>
        <pt x="932" y="734" on="0"/>
        <pt x="883" y="848" on="0"/>
        <pt x="798" y="933" on="0"/>
        <pt x="684" y="982" on="0"/>
        <pt x="620" y="982" on="1"/>
        <pt x="556" y="982" on="0"/>
        <pt x="443" y="933" on="0"/>
        <pt x="359" y="848" on="0"/>
        <pt x="310" y="734" on="0"/>
      </contour>
    </TTGlyph>
    <TTGlyph name="d" xMin="74" yMin="-12" xMax="928" yMax="1440">
      <contour>
        <pt x="746" y="0" on="1"/>
        <pt x="738" y="0" on="0"/>
        <pt x="734" y="9" on="0"/>
        <pt x="734" y="14" on="1"/>
        <pt x="783" y="432" on="1"/>
        <pt x="744" y="334" on="0"/>
        <pt x="641" y="171" on="0"/>
        <pt x="524" y="53" on="0"/>
        <pt x="394" y="-12" on="0"/>
        <pt x="328" y="-12" on="1"/>
        <pt x="263" y="-12" on="0"/>
        <pt x="167" y="40" on="0"/>
        <pt x="104" y="130" on="0"/>
        <pt x="74" y="254" on="0"/>
        <pt x="74" y="326" on="1"/>
        <pt x="74" y="397" on="0"/>
        <pt x="103" y="552" on="0"/>
        <pt x="160" y="701" on="0"/>
        <pt x="243" y="834" on="0"/>
        <pt x="349" y="935" on="0"/>
        <pt x="477" y="994" on="0"/>
        <pt x="552" y="994" on="1"/>
        <pt x="638" y="994" on="0"/>
        <pt x="787" y="911" on="0"/>
        <pt x="829" y="823" on="1"/>
        <pt x="906" y="1440" on="1"/>
        <pt x="928" y="1440" on="1"/>
        <pt x="752" y="0" on="1"/>
      </contour>
      <contour>
        <pt x="328" y="8" on="1"/>
        <pt x="392" y="8" on="0"/>
        <pt x="520" y="74" on="0"/>
        <pt x="639" y="198" on="0"/>
        <pt x="745" y="374" on="0"/>
        <pt x="787" y="484" on="1"/>
        <pt x="825" y="791" on="1"/>
        <pt x="801" y="842" on="0"/>
        <pt x="740" y="911" on="0"/>
        <pt x="669" y="955" on="0"/>
        <pt x="591" y="974" on="0"/>
        <pt x="550" y="974" on="1"/>
        <pt x="478" y="974" on="0"/>
        <pt x="355" y="916" on="0"/>
        <pt x="254" y="818" on="0"/>
        <pt x="176" y="689" on="0"/>
        <pt x="123" y="545" on="0"/>
        <pt x="96" y="395" on="0"/>
        <pt x="96" y="326" on="1"/>
        <pt x="96" y="253" on="0"/>
        <pt x="126" y="136" on="0"/>
        <pt x="184" y="53" on="0"/>
        <pt x="271" y="8" on="0"/>
      </contour>
    </TTGlyph>
    <TTGlyph name="dagger" xMin="233" yMin="-366" xMax="934" yMax="1420">
      <contour>
        <pt x="234" y="930" on="1"/>
        <pt x="234" y="935" on="0"/>
        <pt x="244" y="944" on="0"/>
        <pt x="250" y="944" on="1"/>
        <pt x="574" y="938" on="1"/>
        <pt x="630" y="1416" on="1"/>
        <pt x="633" y="1418" on="0"/>
        <pt x="639" y="1420" on="0"/>
        <pt x="644" y="1420" on="1"/>
        <pt x="649" y="1420" on="0"/>
        <pt x="655" y="1418" on="0"/>
        <pt x="658" y="1416" on="1"/>
        <pt x="595" y="938" on="1"/>
        <pt x="922" y="944" on="1"/>
        <pt x="934" y="944" on="0"/>
        <pt x="934" y="927" on="1"/>
        <pt x="934" y="922" on="1"/>
        <pt x="593" y="922" on="1"/>
        <pt x="524" y="358" on="1"/>
        <pt x="440" y="-362" on="1"/>
        <pt x="432" y="-366" on="0"/>
        <pt x="426" y="-366" on="1"/>
        <pt x="421" y="-366" on="0"/>
        <pt x="415" y="-364" on="0"/>
        <pt x="412" y="-362" on="1"/>
        <pt x="504" y="358" on="1"/>
        <pt x="573" y="922" on="1"/>
        <pt x="233" y="922" on="1"/>
      </contour>
    </TTGlyph>
    <TTGlyph name="daggerdbl" xMin="135" yMin="-366" xMax="934" yMax="1420">
      <contour>
        <pt x="136" y="132" on="1"/>
        <pt x="477" y="132" on="1"/>
        <pt x="573" y="922" on="1"/>
        <pt x="233" y="922" on="1"/>
        <pt x="234" y="930" on="1"/>
        <pt x="234" y="935" on="0"/>
        <pt x="244" y="944" on="0"/>
        <pt x="250" y="944" on="1"/>
        <pt x="574" y="938" on="1"/>
        <pt x="630" y="1416" on="1"/>
        <pt x="633" y="1418" on="0"/>
        <pt x="639" y="1420" on="0"/>
        <pt x="644" y="1420" on="1"/>
        <pt x="649" y="1420" on="0"/>
        <pt x="655" y="1418" on="0"/>
        <pt x="658" y="1416" on="1"/>
        <pt x="595" y="938" on="1"/>
        <pt x="922" y="944" on="1"/>
        <pt x="927" y="944" on="0"/>
        <pt x="934" y="937" on="0"/>
        <pt x="934" y="932" on="1"/>
        <pt x="934" y="931" on="0"/>
        <pt x="933" y="929" on="0"/>
        <pt x="933" y="927" on="1"/>
        <pt x="933" y="922" on="1"/>
        <pt x="593" y="922" on="1"/>
        <pt x="548" y="550" on="1"/>
        <pt x="495" y="132" on="1"/>
        <pt x="836" y="132" on="1"/>
        <pt x="836" y="128" on="1"/>
        <pt x="836" y="126" on="0"/>
        <pt x="835" y="122" on="0"/>
        <pt x="835" y="121" on="1"/>
        <pt x="831" y="110" on="0"/>
        <pt x="820" y="110" on="1"/>
        <pt x="493" y="115" on="1"/>
        <pt x="440" y="-362" on="1"/>
        <pt x="432" y="-366" on="0"/>
        <pt x="426" y="-366" on="1"/>
        <pt x="421" y="-366" on="0"/>
        <pt x="415" y="-364" on="0"/>
        <pt x="412" y="-362" on="1"/>
        <pt x="475" y="115" on="1"/>
        <pt x="146" y="110" on="1"/>
        <pt x="140" y="110" on="0"/>
        <pt x="135" y="119" on="0"/>
        <pt x="135" y="124" on="1"/>
      </contour>
    </TTGlyph>
    <TTGlyph name="degree" xMin="178" yMin="862" xMax="736" yMax="1416">
      <contour>
        <pt x="178" y="1140" on="1"/>
        <pt x="178" y="1198" on="0"/>
        <pt x="223" y="1298" on="0"/>
        <pt x="299" y="1373" on="0"/>
        <pt x="400" y="1416" on="0"/>
        <pt x="456" y="1416" on="1"/>
        <pt x="514" y="1416" on="0"/>
        <pt x="617" y="1373" on="0"/>
        <pt x="692" y="1298" on="0"/>
        <pt x="736" y="1198" on="0"/>
        <pt x="736" y="1140" on="1"/>
        <pt x="736" y="1082" on="0"/>
        <pt x="692" y="981" on="0"/>
        <pt x="617" y="906" on="0"/>
        <pt x="514" y="862" on="0"/>
        <pt x="456" y="862" on="1"/>
        <pt x="400" y="862" on="0"/>
        <pt x="299" y="906" on="0"/>
        <pt x="223" y="981" on="0"/>
        <pt x="178" y="1082" on="0"/>
      </contour>
      <contour>
        <pt x="198" y="1140" on="1"/>
        <pt x="198" y="1087" on="0"/>
        <pt x="239" y="993" on="0"/>
        <pt x="309" y="924" on="0"/>
        <pt x="403" y="884" on="0"/>
        <pt x="456" y="884" on="1"/>
        <pt x="509" y="884" on="0"/>
        <pt x="603" y="924" on="0"/>
        <pt x="672" y="993" on="0"/>
        <pt x="712" y="1087" on="0"/>
        <pt x="712" y="1140" on="1"/>
        <pt x="712" y="1193" on="0"/>
        <pt x="672" y="1287" on="0"/>
        <pt x="603" y="1356" on="0"/>
        <pt x="509" y="1396" on="0"/>
        <pt x="456" y="1396" on="1"/>
        <pt x="403" y="1396" on="0"/>
        <pt x="309" y="1356" on="0"/>
        <pt x="239" y="1287" on="0"/>
        <pt x="198" y="1193" on="0"/>
      </contour>
    </TTGlyph>
    <TTGlyph name="dieresis" xMin="140" yMin="1248" xMax="580" yMax="1358">
      <contour>
        <pt x="252" y="1302" on="1"/>
        <pt x="252" y="1281" on="0"/>
        <pt x="217" y="1248" on="0"/>
        <pt x="196" y="1248" on="1"/>
        <pt x="173" y="1248" on="0"/>
        <pt x="140" y="1281" on="0"/>
        <pt x="140" y="1302" on="1"/>
        <pt x="140" y="1325" on="0"/>
        <pt x="173" y="1358" on="0"/>
        <pt x="196" y="1358" on="1"/>
        <pt x="217" y="1358" on="0"/>
        <pt x="252" y="1325" on="0"/>
      </contour>
      <contour>
        <pt x="580" y="1302" on="1"/>
        <pt x="580" y="1281" on="0"/>
        <pt x="545" y="1248" on="0"/>
        <pt x="524" y="1248" on="1"/>
        <pt x="501" y="1248" on="0"/>
        <pt x="468" y="1281" on="0"/>
        <pt x="468" y="1302" on="1"/>
        <pt x="468" y="1325" on="0"/>
        <pt x="501" y="1358" on="0"/>
        <pt x="524" y="1358" on="1"/>
        <pt x="545" y="1358" on="0"/>
        <pt x="580" y="1325" on="0"/>
      </contour>
    </TTGlyph>
    <TTGlyph name="dieresis.case" xMin="172" yMin="1610" xMax="612" yMax="1720">
      <contour>
        <pt x="284" y="1664" on="1"/>
        <pt x="284" y="1643" on="0"/>
        <pt x="249" y="1610" on="0"/>
        <pt x="228" y="1610" on="1"/>
        <pt x="205" y="1610" on="0"/>
        <pt x="172" y="1643" on="0"/>
        <pt x="172" y="1664" on="1"/>
        <pt x="172" y="1687" on="0"/>
        <pt x="205" y="1720" on="0"/>
        <pt x="228" y="1720" on="1"/>
        <pt x="249" y="1720" on="0"/>
        <pt x="284" y="1687" on="0"/>
      </contour>
      <contour>
        <pt x="612" y="1664" on="1"/>
        <pt x="612" y="1643" on="0"/>
        <pt x="577" y="1610" on="0"/>
        <pt x="556" y="1610" on="1"/>
        <pt x="533" y="1610" on="0"/>
        <pt x="500" y="1643" on="0"/>
        <pt x="500" y="1664" on="1"/>
        <pt x="500" y="1687" on="0"/>
        <pt x="533" y="1720" on="0"/>
        <pt x="556" y="1720" on="1"/>
        <pt x="577" y="1720" on="0"/>
        <pt x="612" y="1687" on="0"/>
      </contour>
    </TTGlyph>
    <TTGlyph name="divide" xMin="140" yMin="248" xMax="1064" yMax="1090">
      <contour>
        <pt x="142" y="680" on="1"/>
        <pt x="1064" y="680" on="1"/>
        <pt x="1062" y="660" on="1"/>
        <pt x="140" y="660" on="1"/>
      </contour>
      <contour>
        <pt x="580" y="1016" on="1"/>
        <pt x="580" y="1046" on="0"/>
        <pt x="623" y="1090" on="0"/>
        <pt x="652" y="1090" on="1"/>
        <pt x="678" y="1090" on="0"/>
        <pt x="710" y="1054" on="0"/>
        <pt x="710" y="1030" on="1"/>
        <pt x="710" y="1000" on="0"/>
        <pt x="665" y="960" on="0"/>
        <pt x="636" y="960" on="1"/>
        <pt x="610" y="960" on="0"/>
        <pt x="580" y="993" on="0"/>
      </contour>
      <contour>
        <pt x="492" y="304" on="1"/>
        <pt x="492" y="334" on="0"/>
        <pt x="535" y="378" on="0"/>
        <pt x="564" y="378" on="1"/>
        <pt x="590" y="378" on="0"/>
        <pt x="622" y="342" on="0"/>
        <pt x="622" y="318" on="1"/>
        <pt x="622" y="288" on="0"/>
        <pt x="578" y="248" on="0"/>
        <pt x="548" y="248" on="1"/>
        <pt x="524" y="248" on="0"/>
        <pt x="492" y="281" on="0"/>
      </contour>
    </TTGlyph>
    <TTGlyph name="dollar" xMin="152" yMin="-274" xMax="1062" yMax="1618">
      <contour>
        <pt x="517" y="-16" on="1"/>
        <pt x="447" y="-16" on="0"/>
        <pt x="339" y="9" on="0"/>
        <pt x="252" y="56" on="0"/>
        <pt x="182" y="123" on="0"/>
        <pt x="152" y="166" on="1"/>
        <pt x="156" y="170" on="1"/>
        <pt x="161" y="173" on="0"/>
        <pt x="165" y="176" on="0"/>
        <pt x="170" y="176" on="1"/>
        <pt x="176" y="176" on="0"/>
        <pt x="196" y="151" on="0"/>
        <pt x="230" y="113" on="0"/>
        <pt x="281" y="68" on="0"/>
        <pt x="355" y="30" on="0"/>
        <pt x="454" y="4" on="0"/>
        <pt x="520" y="4" on="1"/>
        <pt x="635" y="732" on="1"/>
        <pt x="576" y="752" on="0"/>
        <pt x="467" y="798" on="0"/>
        <pt x="381" y="867" on="0"/>
        <pt x="330" y="965" on="0"/>
        <pt x="330" y="1036" on="1"/>
        <pt x="330" y="1110" on="0"/>
        <pt x="387" y="1246" on="0"/>
        <pt x="493" y="1350" on="0"/>
        <pt x="646" y="1414" on="0"/>
        <pt x="742" y="1416" on="1"/>
        <pt x="772" y="1602" on="1"/>
        <pt x="775" y="1618" on="0"/>
        <pt x="786" y="1618" on="1"/>
        <pt x="796" y="1618" on="1"/>
        <pt x="764" y="1416" on="1"/>
        <pt x="861" y="1414" on="0"/>
        <pt x="1003" y="1348" on="0"/>
        <pt x="1062" y="1278" on="1"/>
        <pt x="1058" y="1272" on="1"/>
        <pt x="1055" y="1266" on="0"/>
        <pt x="1048" y="1266" on="1"/>
        <pt x="1041" y="1266" on="0"/>
        <pt x="1024" y="1285" on="0"/>
        <pt x="996" y="1313" on="0"/>
        <pt x="954" y="1346" on="0"/>
        <pt x="895" y="1375" on="0"/>
        <pt x="814" y="1395" on="0"/>
        <pt x="761" y="1396" on="1"/>
        <pt x="658" y="749" on="1"/>
        <pt x="719" y="728" on="0"/>
        <pt x="842" y="680" on="0"/>
        <pt x="941" y="610" on="0"/>
        <pt x="1004" y="508" on="0"/>
        <pt x="1004" y="432" on="1"/>
        <pt x="1004" y="343" on="0"/>
        <pt x="939" y="183" on="0"/>
        <pt x="817" y="62" on="0"/>
        <pt x="645" y="-12" on="0"/>
        <pt x="538" y="-15" on="1"/>
        <pt x="500" y="-258" on="1"/>
        <pt x="500" y="-274" on="0"/>
        <pt x="486" y="-274" on="1"/>
        <pt x="476" y="-274" on="1"/>
      </contour>
      <contour>
        <pt x="980" y="428" on="1"/>
        <pt x="980" y="499" on="0"/>
        <pt x="924" y="594" on="0"/>
        <pt x="832" y="660" on="0"/>
        <pt x="716" y="704" on="0"/>
        <pt x="655" y="725" on="1"/>
        <pt x="541" y="4" on="1"/>
        <pt x="642" y="7" on="0"/>
        <pt x="804" y="79" on="0"/>
        <pt x="918" y="194" on="0"/>
        <pt x="980" y="345" on="0"/>
      </contour>
      <contour>
        <pt x="352" y="1040" on="1"/>
        <pt x="352" y="975" on="0"/>
        <pt x="399" y="885" on="0"/>
        <pt x="479" y="821" on="0"/>
        <pt x="582" y="775" on="0"/>
        <pt x="638" y="755" on="1"/>
        <pt x="739" y="1395" on="1"/>
        <pt x="648" y="1393" on="0"/>
        <pt x="504" y="1334" on="0"/>
        <pt x="405" y="1236" on="0"/>
        <pt x="352" y="1109" on="0"/>
      </contour>
    </TTGlyph>
    <TTGlyph name="dotaccent" xMin="334" yMin="1306" xMax="446" yMax="1416">
      <contour>
        <pt x="446" y="1360" on="1"/>
        <pt x="446" y="1339" on="0"/>
        <pt x="411" y="1306" on="0"/>
        <pt x="390" y="1306" on="1"/>
        <pt x="367" y="1306" on="0"/>
        <pt x="334" y="1339" on="0"/>
        <pt x="334" y="1360" on="1"/>
        <pt x="334" y="1383" on="0"/>
        <pt x="367" y="1416" on="0"/>
        <pt x="390" y="1416" on="1"/>
        <pt x="411" y="1416" on="0"/>
        <pt x="446" y="1383" on="0"/>
      </contour>
    </TTGlyph>
    <TTGlyph name="dotaccent.case" xMin="340" yMin="1614" xMax="452" yMax="1724">
      <contour>
        <pt x="452" y="1668" on="1"/>
        <pt x="452" y="1647" on="0"/>
        <pt x="417" y="1614" on="0"/>
        <pt x="396" y="1614" on="1"/>
        <pt x="373" y="1614" on="0"/>
        <pt x="340" y="1647" on="0"/>
        <pt x="340" y="1668" on="1"/>
        <pt x="340" y="1691" on="0"/>
        <pt x="373" y="1724" on="0"/>
        <pt x="396" y="1724" on="1"/>
        <pt x="417" y="1724" on="0"/>
        <pt x="452" y="1691" on="0"/>
      </contour>
    </TTGlyph>
    <TTGlyph name="dotlessi" xMin="142" yMin="0" xMax="284" yMax="980">
      <contour>
        <pt x="284" y="980" on="1"/>
        <pt x="164" y="0" on="1"/>
        <pt x="142" y="0" on="1"/>
        <pt x="262" y="980" on="1"/>
      </contour>
    </TTGlyph>
    <TTGlyph name="e" xMin="80" yMin="-12" xMax="800" yMax="994">
      <contour>
        <pt x="800" y="814" on="1"/>
        <pt x="800" y="775" on="0"/>
        <pt x="779" y="704" on="0"/>
        <pt x="724" y="640" on="0"/>
        <pt x="626" y="584" on="0"/>
        <pt x="473" y="535" on="0"/>
        <pt x="257" y="494" on="0"/>
        <pt x="111" y="478" on="1"/>
        <pt x="102" y="419" on="0"/>
        <pt x="102" y="362" on="1"/>
        <pt x="102" y="280" on="0"/>
        <pt x="140" y="149" on="0"/>
        <pt x="215" y="57" on="0"/>
        <pt x="328" y="8" on="0"/>
        <pt x="404" y="8" on="1"/>
        <pt x="461" y="8" on="0"/>
        <pt x="554" y="35" on="0"/>
        <pt x="628" y="75" on="0"/>
        <pt x="685" y="121" on="0"/>
        <pt x="726" y="161" on="0"/>
        <pt x="754" y="188" on="0"/>
        <pt x="762" y="188" on="1"/>
        <pt x="765" y="188" on="0"/>
        <pt x="769" y="187" on="0"/>
        <pt x="774" y="182" on="1"/>
        <pt x="727" y="131" on="0"/>
        <pt x="638" y="58" on="0"/>
        <pt x="548" y="10" on="0"/>
        <pt x="454" y="-12" on="0"/>
        <pt x="402" y="-12" on="1"/>
        <pt x="322" y="-12" on="0"/>
        <pt x="201" y="40" on="0"/>
        <pt x="120" y="136" on="0"/>
        <pt x="80" y="275" on="0"/>
        <pt x="80" y="362" on="1"/>
        <pt x="80" y="434" on="0"/>
        <pt x="108" y="585" on="0"/>
        <pt x="164" y="725" on="0"/>
        <pt x="246" y="849" on="0"/>
        <pt x="353" y="941" on="0"/>
        <pt x="484" y="994" on="0"/>
        <pt x="562" y="994" on="1"/>
        <pt x="632" y="994" on="0"/>
        <pt x="724" y="956" on="0"/>
        <pt x="778" y="900" on="0"/>
        <pt x="800" y="838" on="0"/>
      </contour>
      <contour>
        <pt x="562" y="974" on="1"/>
        <pt x="467" y="974" on="0"/>
        <pt x="316" y="892" on="0"/>
        <pt x="203" y="758" on="0"/>
        <pt x="130" y="587" on="0"/>
        <pt x="114" y="498" on="1"/>
        <pt x="262" y="514" on="0"/>
        <pt x="476" y="555" on="0"/>
        <pt x="624" y="603" on="0"/>
        <pt x="715" y="658" on="0"/>
        <pt x="765" y="718" on="0"/>
        <pt x="782" y="781" on="0"/>
        <pt x="782" y="814" on="1"/>
        <pt x="782" y="838" on="0"/>
        <pt x="759" y="894" on="0"/>
        <pt x="708" y="942" on="0"/>
        <pt x="623" y="974" on="0"/>
      </contour>
    </TTGlyph>
    <TTGlyph name="eacute" xMin="80" yMin="-12" xMax="800" yMax="1416">
      <component glyphName="e" x="0" y="0" flags="0x204"/>
      <component glyphName="acute" x="226" y="0" flags="0x4"/>
    </TTGlyph>
    <TTGlyph name="ecircumflex" xMin="80" yMin="-12" xMax="800" yMax="1400">
      <component glyphName="e" x="0" y="0" flags="0x204"/>
      <component glyphName="circumflex" x="226" y="0" flags="0x4"/>
    </TTGlyph>
    <TTGlyph name="edieresis" xMin="80" yMin="-12" xMax="806" yMax="1358">
      <component glyphName="e" x="0" y="0" flags="0x204"/>
      <component glyphName="dieresis" x="226" y="0" flags="0x4"/>
    </TTGlyph>
    <TTGlyph name="egrave" xMin="80" yMin="-12" xMax="800" yMax="1416">
      <component glyphName="e" x="0" y="0" flags="0x204"/>
      <component glyphName="grave" x="226" y="0" flags="0x4"/>
    </TTGlyph>
    <TTGlyph name="eight" xMin="120" yMin="-16" xMax="1042" yMax="1416">
      <contour>
        <pt x="518" y="-16" on="1"/>
        <pt x="429" y="-16" on="0"/>
        <pt x="282" y="30" on="0"/>
        <pt x="177" y="116" on="0"/>
        <pt x="120" y="238" on="0"/>
        <pt x="120" y="314" on="1"/>
        <pt x="120" y="414" on="0"/>
        <pt x="186" y="562" on="0"/>
        <pt x="296" y="663" on="0"/>
        <pt x="438" y="720" on="0"/>
        <pt x="514" y="731" on="1"/>
        <pt x="452" y="744" on="0"/>
        <pt x="358" y="799" on="0"/>
        <pt x="293" y="877" on="0"/>
        <pt x="260" y="975" on="0"/>
        <pt x="260" y="1030" on="1"/>
        <pt x="260" y="1109" on="0"/>
        <pt x="321" y="1250" on="0"/>
        <pt x="435" y="1355" on="0"/>
        <pt x="595" y="1416" on="0"/>
        <pt x="694" y="1416" on="1"/>
        <pt x="778" y="1416" on="0"/>
        <pt x="908" y="1367" on="0"/>
        <pt x="996" y="1283" on="0"/>
        <pt x="1042" y="1170" on="0"/>
        <pt x="1042" y="1106" on="1"/>
        <pt x="1042" y="1035" on="0"/>
        <pt x="995" y="911" on="0"/>
        <pt x="907" y="812" on="0"/>
        <pt x="782" y="744" on="0"/>
        <pt x="703" y="730" on="1"/>
        <pt x="764" y="720" on="0"/>
        <pt x="875" y="673" on="0"/>
        <pt x="959" y="594" on="0"/>
        <pt x="1008" y="481" on="0"/>
        <pt x="1008" y="406" on="1"/>
        <pt x="1008" y="307" on="0"/>
        <pt x="933" y="150" on="0"/>
        <pt x="801" y="42" on="0"/>
        <pt x="622" y="-16" on="0"/>
      </contour>
      <contour>
        <pt x="520" y="4" on="1"/>
        <pt x="618" y="4" on="0"/>
        <pt x="788" y="60" on="0"/>
        <pt x="913" y="164" on="0"/>
        <pt x="984" y="313" on="0"/>
        <pt x="984" y="406" on="1"/>
        <pt x="984" y="468" on="0"/>
        <pt x="949" y="564" on="0"/>
        <pt x="891" y="633" on="0"/>
        <pt x="815" y="680" on="0"/>
        <pt x="731" y="708" on="0"/>
        <pt x="646" y="720" on="0"/>
        <pt x="608" y="720" on="1"/>
        <pt x="564" y="720" on="0"/>
        <pt x="462" y="705" on="0"/>
        <pt x="360" y="670" on="0"/>
        <pt x="264" y="611" on="0"/>
        <pt x="190" y="522" on="0"/>
        <pt x="146" y="399" on="0"/>
        <pt x="146" y="318" on="1"/>
        <pt x="146" y="247" on="0"/>
        <pt x="200" y="131" on="0"/>
        <pt x="298" y="49" on="0"/>
        <pt x="436" y="4" on="0"/>
      </contour>
      <contour>
        <pt x="610" y="740" on="1"/>
        <pt x="710" y="740" on="0"/>
        <pt x="862" y="801" on="0"/>
        <pt x="965" y="903" on="0"/>
        <pt x="1018" y="1035" on="0"/>
        <pt x="1018" y="1106" on="1"/>
        <pt x="1018" y="1168" on="0"/>
        <pt x="975" y="1274" on="0"/>
        <pt x="891" y="1352" on="0"/>
        <pt x="770" y="1396" on="0"/>
        <pt x="692" y="1396" on="1"/>
        <pt x="600" y="1396" on="0"/>
        <pt x="449" y="1340" on="0"/>
        <pt x="342" y="1242" on="0"/>
        <pt x="284" y="1109" on="0"/>
        <pt x="284" y="1032" on="1"/>
        <pt x="284" y="975" on="0"/>
        <pt x="323" y="869" on="0"/>
        <pt x="404" y="788" on="0"/>
        <pt x="527" y="740" on="0"/>
      </contour>
    </TTGlyph>
    <TTGlyph name="ellipsis" xMin="70" yMin="-16" xMax="1140" yMax="114">
      <contour>
        <pt x="70" y="48" on="1"/>
        <pt x="70" y="75" on="0"/>
        <pt x="107" y="114" on="0"/>
        <pt x="134" y="114" on="1"/>
        <pt x="161" y="114" on="0"/>
        <pt x="200" y="75" on="0"/>
        <pt x="200" y="48" on="1"/>
        <pt x="200" y="21" on="0"/>
        <pt x="161" y="-16" on="0"/>
        <pt x="134" y="-16" on="1"/>
        <pt x="107" y="-16" on="0"/>
        <pt x="70" y="21" on="0"/>
      </contour>
      <contour>
        <pt x="540" y="48" on="1"/>
        <pt x="540" y="75" on="0"/>
        <pt x="577" y="114" on="0"/>
        <pt x="604" y="114" on="1"/>
        <pt x="631" y="114" on="0"/>
        <pt x="670" y="75" on="0"/>
        <pt x="670" y="48" on="1"/>
        <pt x="670" y="21" on="0"/>
        <pt x="631" y="-16" on="0"/>
        <pt x="604" y="-16" on="1"/>
        <pt x="577" y="-16" on="0"/>
        <pt x="540" y="21" on="0"/>
      </contour>
      <contour>
        <pt x="1010" y="48" on="1"/>
        <pt x="1010" y="75" on="0"/>
        <pt x="1047" y="114" on="0"/>
        <pt x="1074" y="114" on="1"/>
        <pt x="1101" y="114" on="0"/>
        <pt x="1140" y="75" on="0"/>
        <pt x="1140" y="48" on="1"/>
        <pt x="1140" y="21" on="0"/>
        <pt x="1101" y="-16" on="0"/>
        <pt x="1074" y="-16" on="1"/>
        <pt x="1047" y="-16" on="0"/>
        <pt x="1010" y="21" on="0"/>
      </contour>
    </TTGlyph>
    <TTGlyph name="emdash" xMin="138" yMin="558" xMax="1308" yMax="578">
      <contour>
        <pt x="140" y="578" on="1"/>
        <pt x="1308" y="578" on="1"/>
        <pt x="1304" y="558" on="1"/>
        <pt x="138" y="558" on="1"/>
      </contour>
    </TTGlyph>
    <TTGlyph name="endash" xMin="138" yMin="558" xMax="854" yMax="578">
      <contour>
        <pt x="140" y="578" on="1"/>
        <pt x="854" y="578" on="1"/>
        <pt x="852" y="558" on="1"/>
        <pt x="138" y="558" on="1"/>
      </contour>
    </TTGlyph>
    <TTGlyph name="eogonek" xMin="80" yMin="-334" xMax="800" yMax="994">
      <contour>
        <pt x="574" y="-270" on="1"/>
        <pt x="578" y="-270" on="0"/>
        <pt x="582" y="-274" on="1"/>
        <pt x="586" y="-280" on="1"/>
        <pt x="560" y="-306" on="0"/>
        <pt x="485" y="-334" on="0"/>
        <pt x="446" y="-334" on="1"/>
        <pt x="390" y="-334" on="0"/>
        <pt x="320" y="-273" on="0"/>
        <pt x="320" y="-214" on="1"/>
        <pt x="320" y="-181" on="0"/>
        <pt x="344" y="-121" on="0"/>
        <pt x="383" y="-69" on="0"/>
        <pt x="430" y="-26" on="0"/>
        <pt x="454" y="-9" on="1"/>
        <pt x="428" y="-12" on="0"/>
        <pt x="402" y="-12" on="1"/>
        <pt x="322" y="-12" on="0"/>
        <pt x="201" y="40" on="0"/>
        <pt x="120" y="136" on="0"/>
        <pt x="80" y="275" on="0"/>
        <pt x="80" y="362" on="1"/>
        <pt x="80" y="434" on="0"/>
        <pt x="108" y="585" on="0"/>
        <pt x="164" y="725" on="0"/>
        <pt x="246" y="849" on="0"/>
        <pt x="353" y="941" on="0"/>
        <pt x="484" y="994" on="0"/>
        <pt x="562" y="994" on="1"/>
        <pt x="632" y="994" on="0"/>
        <pt x="724" y="956" on="0"/>
        <pt x="778" y="900" on="0"/>
        <pt x="800" y="838" on="0"/>
        <pt x="800" y="814" on="1"/>
        <pt x="800" y="775" on="0"/>
        <pt x="779" y="704" on="0"/>
        <pt x="724" y="640" on="0"/>
        <pt x="626" y="584" on="0"/>
        <pt x="473" y="535" on="0"/>
        <pt x="257" y="494" on="0"/>
        <pt x="111" y="478" on="1"/>
        <pt x="102" y="419" on="0"/>
        <pt x="102" y="362" on="1"/>
        <pt x="102" y="280" on="0"/>
        <pt x="140" y="149" on="0"/>
        <pt x="215" y="57" on="0"/>
        <pt x="328" y="8" on="0"/>
        <pt x="404" y="8" on="1"/>
        <pt x="461" y="8" on="0"/>
        <pt x="554" y="35" on="0"/>
        <pt x="628" y="75" on="0"/>
        <pt x="685" y="121" on="0"/>
        <pt x="726" y="161" on="0"/>
        <pt x="754" y="188" on="0"/>
        <pt x="762" y="188" on="1"/>
        <pt x="768" y="188" on="0"/>
        <pt x="771" y="185" on="1"/>
        <pt x="774" y="182" on="1"/>
        <pt x="701" y="104" on="0"/>
        <pt x="569" y="14" on="0"/>
        <pt x="496" y="-2" on="1"/>
        <pt x="475" y="-14" on="0"/>
        <pt x="421" y="-54" on="0"/>
        <pt x="373" y="-106" on="0"/>
        <pt x="340" y="-172" on="0"/>
        <pt x="340" y="-210" on="1"/>
        <pt x="340" y="-258" on="0"/>
        <pt x="402" y="-314" on="0"/>
        <pt x="450" y="-314" on="1"/>
        <pt x="480" y="-314" on="0"/>
        <pt x="523" y="-300" on="0"/>
        <pt x="552" y="-284" on="0"/>
        <pt x="569" y="-270" on="0"/>
      </contour>
      <contour>
        <pt x="562" y="974" on="1"/>
        <pt x="467" y="974" on="0"/>
        <pt x="316" y="892" on="0"/>
        <pt x="203" y="758" on="0"/>
        <pt x="130" y="587" on="0"/>
        <pt x="114" y="498" on="1"/>
        <pt x="262" y="514" on="0"/>
        <pt x="476" y="555" on="0"/>
        <pt x="624" y="603" on="0"/>
        <pt x="715" y="658" on="0"/>
        <pt x="765" y="718" on="0"/>
        <pt x="782" y="781" on="0"/>
        <pt x="782" y="814" on="1"/>
        <pt x="782" y="838" on="0"/>
        <pt x="759" y="894" on="0"/>
        <pt x="708" y="942" on="0"/>
        <pt x="623" y="974" on="0"/>
      </contour>
    </TTGlyph>
    <TTGlyph name="equal" xMin="176" yMin="520" xMax="1014" yMax="834">
      <contour>
        <pt x="178" y="540" on="1"/>
        <pt x="978" y="540" on="1"/>
        <pt x="976" y="520" on="1"/>
        <pt x="176" y="520" on="1"/>
      </contour>
      <contour>
        <pt x="214" y="834" on="1"/>
        <pt x="1014" y="834" on="1"/>
        <pt x="1012" y="814" on="1"/>
        <pt x="212" y="814" on="1"/>
      </contour>
    </TTGlyph>
    <TTGlyph name="eth" xMin="84" yMin="-10" xMax="896" yMax="1398">
      <contour>
        <pt x="519" y="1075" on="1"/>
        <pt x="517" y="1077" on="0"/>
        <pt x="515" y="1085" on="0"/>
        <pt x="519" y="1089" on="1"/>
        <pt x="663" y="1234" on="1"/>
        <pt x="605" y="1281" on="0"/>
        <pt x="468" y="1339" on="0"/>
        <pt x="393" y="1352" on="1"/>
        <pt x="379" y="1354" on="0"/>
        <pt x="382" y="1365" on="1"/>
        <pt x="384" y="1372" on="1"/>
        <pt x="461" y="1358" on="0"/>
        <pt x="610" y="1298" on="0"/>
        <pt x="675" y="1247" on="1"/>
        <pt x="822" y="1398" on="1"/>
        <pt x="826" y="1393" on="1"/>
        <pt x="828" y="1391" on="0"/>
        <pt x="829" y="1381" on="0"/>
        <pt x="825" y="1377" on="1"/>
        <pt x="689" y="1237" on="1"/>
        <pt x="734" y="1199" on="0"/>
        <pt x="810" y="1098" on="0"/>
        <pt x="865" y="971" on="0"/>
        <pt x="896" y="814" on="0"/>
        <pt x="896" y="720" on="1"/>
        <pt x="896" y="567" on="0"/>
        <pt x="837" y="301" on="0"/>
        <pt x="717" y="103" on="0"/>
        <pt x="536" y="-10" on="0"/>
        <pt x="414" y="-10" on="1"/>
        <pt x="343" y="-10" on="0"/>
        <pt x="223" y="45" on="0"/>
        <pt x="134" y="147" on="0"/>
        <pt x="84" y="291" on="0"/>
        <pt x="84" y="380" on="1"/>
        <pt x="84" y="489" on="0"/>
        <pt x="146" y="684" on="0"/>
        <pt x="263" y="831" on="0"/>
        <pt x="430" y="916" on="0"/>
        <pt x="536" y="916" on="1"/>
        <pt x="585" y="916" on="0"/>
        <pt x="691" y="884" on="0"/>
        <pt x="784" y="814" on="0"/>
        <pt x="855" y="702" on="0"/>
        <pt x="870" y="622" on="1"/>
        <pt x="879" y="730" on="0"/>
        <pt x="858" y="912" on="0"/>
        <pt x="806" y="1061" on="0"/>
        <pt x="727" y="1179" on="0"/>
        <pt x="676" y="1223" on="1"/>
        <pt x="524" y="1070" on="1"/>
      </contour>
      <contour>
        <pt x="416" y="10" on="1"/>
        <pt x="606" y="10" on="0"/>
        <pt x="829" y="297" on="0"/>
        <pt x="863" y="566" on="1"/>
        <pt x="856" y="623" on="0"/>
        <pt x="811" y="740" on="0"/>
        <pt x="731" y="836" on="0"/>
        <pt x="613" y="896" on="0"/>
        <pt x="534" y="896" on="1"/>
        <pt x="431" y="896" on="0"/>
        <pt x="272" y="814" on="0"/>
        <pt x="164" y="674" on="0"/>
        <pt x="108" y="487" on="0"/>
        <pt x="108" y="382" on="1"/>
        <pt x="108" y="296" on="0"/>
        <pt x="156" y="158" on="0"/>
        <pt x="239" y="62" on="0"/>
        <pt x="351" y="10" on="0"/>
      </contour>
    </TTGlyph>
    <TTGlyph name="exclam" xMin="168" yMin="-16" xMax="410" yMax="1400">
      <contour>
        <pt x="410" y="1400" on="1"/>
        <pt x="340" y="828" on="1"/>
        <pt x="332" y="763" on="0"/>
        <pt x="308" y="595" on="0"/>
        <pt x="290" y="476" on="1"/>
        <pt x="274" y="476" on="1"/>
        <pt x="280" y="535" on="0"/>
        <pt x="289" y="627" on="0"/>
        <pt x="298" y="707" on="0"/>
        <pt x="307" y="784" on="0"/>
        <pt x="312" y="828" on="1"/>
        <pt x="382" y="1400" on="1"/>
      </contour>
      <contour>
        <pt x="168" y="48" on="1"/>
        <pt x="168" y="75" on="0"/>
        <pt x="205" y="114" on="0"/>
        <pt x="232" y="114" on="1"/>
        <pt x="259" y="114" on="0"/>
        <pt x="298" y="75" on="0"/>
        <pt x="298" y="48" on="1"/>
        <pt x="298" y="21" on="0"/>
        <pt x="259" y="-16" on="0"/>
        <pt x="232" y="-16" on="1"/>
        <pt x="205" y="-16" on="0"/>
        <pt x="168" y="21" on="0"/>
      </contour>
    </TTGlyph>
    <TTGlyph name="exclamdown" xMin="168" yMin="-360" xMax="398" yMax="996">
      <contour>
        <pt x="168" y="-360" on="1"/>
        <pt x="236" y="198" on="1"/>
        <pt x="241" y="242" on="0"/>
        <pt x="251" y="319" on="0"/>
        <pt x="263" y="399" on="0"/>
        <pt x="276" y="491" on="0"/>
        <pt x="284" y="550" on="1"/>
        <pt x="298" y="550" on="1"/>
        <pt x="292" y="491" on="0"/>
        <pt x="283" y="399" on="0"/>
        <pt x="274" y="319" on="0"/>
        <pt x="265" y="242" on="0"/>
        <pt x="260" y="198" on="1"/>
        <pt x="192" y="-360" on="1"/>
      </contour>
      <contour>
        <pt x="268" y="930" on="1"/>
        <pt x="268" y="957" on="0"/>
        <pt x="305" y="996" on="0"/>
        <pt x="332" y="996" on="1"/>
        <pt x="359" y="996" on="0"/>
        <pt x="398" y="957" on="0"/>
        <pt x="398" y="930" on="1"/>
        <pt x="398" y="903" on="0"/>
        <pt x="359" y="866" on="0"/>
        <pt x="332" y="866" on="1"/>
        <pt x="305" y="866" on="0"/>
        <pt x="268" y="903" on="0"/>
      </contour>
    </TTGlyph>
    <TTGlyph name="f" xMin="68" yMin="-252" xMax="634" yMax="1414">
      <contour>
        <pt x="247" y="920" on="1"/>
        <pt x="136" y="10" on="1"/>
        <pt x="98" y="-240" on="1"/>
        <pt x="96" y="-248" on="0"/>
        <pt x="89" y="-252" on="0"/>
        <pt x="86" y="-252" on="1"/>
        <pt x="82" y="-252" on="1"/>
        <pt x="225" y="920" on="1"/>
        <pt x="78" y="924" on="1"/>
        <pt x="68" y="924" on="0"/>
        <pt x="68" y="932" on="1"/>
        <pt x="68" y="938" on="1"/>
        <pt x="227" y="938" on="1"/>
        <pt x="246" y="1088" on="1"/>
        <pt x="256" y="1172" on="0"/>
        <pt x="309" y="1295" on="0"/>
        <pt x="384" y="1375" on="0"/>
        <pt x="480" y="1414" on="0"/>
        <pt x="534" y="1414" on="1"/>
        <pt x="560" y="1414" on="0"/>
        <pt x="614" y="1403" on="0"/>
        <pt x="634" y="1392" on="1"/>
        <pt x="633" y="1388" on="1"/>
        <pt x="632" y="1385" on="0"/>
        <pt x="627" y="1378" on="0"/>
        <pt x="622" y="1378" on="1"/>
        <pt x="612" y="1378" on="0"/>
        <pt x="568" y="1394" on="0"/>
        <pt x="532" y="1394" on="1"/>
        <pt x="483" y="1394" on="0"/>
        <pt x="397" y="1361" on="0"/>
        <pt x="328" y="1288" on="0"/>
        <pt x="279" y="1171" on="0"/>
        <pt x="268" y="1088" on="1"/>
        <pt x="248" y="938" on="1"/>
        <pt x="554" y="938" on="1"/>
        <pt x="550" y="920" on="1"/>
      </contour>
    </TTGlyph>
    <TTGlyph name="fi" xMin="66" yMin="-252" xMax="766" yMax="1420">
      <contour>
        <pt x="766" y="938" on="1"/>
        <pt x="650" y="0" on="1"/>
        <pt x="626" y="0" on="1"/>
        <pt x="739" y="918" on="1"/>
        <pt x="249" y="918" on="1"/>
        <pt x="136" y="10" on="1"/>
        <pt x="98" y="-240" on="1"/>
        <pt x="96" y="-248" on="0"/>
        <pt x="89" y="-252" on="0"/>
        <pt x="86" y="-252" on="1"/>
        <pt x="82" y="-252" on="1"/>
        <pt x="226" y="918" on="1"/>
        <pt x="76" y="922" on="1"/>
        <pt x="71" y="922" on="0"/>
        <pt x="66" y="925" on="0"/>
        <pt x="66" y="931" on="1"/>
        <pt x="66" y="938" on="1"/>
        <pt x="228" y="938" on="1"/>
        <pt x="242" y="1048" on="1"/>
        <pt x="253" y="1139" on="0"/>
        <pt x="318" y="1279" on="0"/>
        <pt x="414" y="1372" on="0"/>
        <pt x="539" y="1420" on="0"/>
        <pt x="610" y="1420" on="1"/>
        <pt x="623" y="1420" on="0"/>
        <pt x="658" y="1417" on="0"/>
        <pt x="691" y="1411" on="0"/>
        <pt x="721" y="1403" on="0"/>
        <pt x="730" y="1398" on="1"/>
        <pt x="728" y="1390" on="1"/>
        <pt x="726" y="1384" on="0"/>
        <pt x="719" y="1384" on="1"/>
        <pt x="708" y="1384" on="0"/>
        <pt x="656" y="1400" on="0"/>
        <pt x="608" y="1400" on="1"/>
        <pt x="543" y="1400" on="0"/>
        <pt x="430" y="1360" on="0"/>
        <pt x="341" y="1274" on="0"/>
        <pt x="279" y="1141" on="0"/>
        <pt x="266" y="1048" on="1"/>
        <pt x="250" y="938" on="1"/>
      </contour>
    </TTGlyph>
    <TTGlyph name="five" xMin="134" yMin="-16" xMax="1068" yMax="1400">
      <contour>
        <pt x="1067" y="1392" on="1"/>
        <pt x="1065" y="1378" on="0"/>
        <pt x="1052" y="1378" on="1"/>
        <pt x="486" y="1378" on="1"/>
        <pt x="315" y="822" on="1"/>
        <pt x="391" y="842" on="0"/>
        <pt x="524" y="859" on="0"/>
        <pt x="583" y="859" on="1"/>
        <pt x="685" y="859" on="0"/>
        <pt x="837" y="807" on="0"/>
        <pt x="938" y="714" on="0"/>
        <pt x="988" y="583" on="0"/>
        <pt x="988" y="504" on="1"/>
        <pt x="988" y="380" on="0"/>
        <pt x="899" y="187" on="0"/>
        <pt x="752" y="54" on="0"/>
        <pt x="561" y="-16" on="0"/>
        <pt x="460" y="-16" on="1"/>
        <pt x="406" y="-16" on="0"/>
        <pt x="309" y="1" on="0"/>
        <pt x="226" y="30" on="0"/>
        <pt x="159" y="68" on="0"/>
        <pt x="134" y="88" on="1"/>
        <pt x="140" y="97" on="1"/>
        <pt x="145" y="102" on="0"/>
        <pt x="152" y="102" on="1"/>
        <pt x="159" y="102" on="0"/>
        <pt x="204" y="73" on="0"/>
        <pt x="280" y="37" on="0"/>
        <pt x="389" y="8" on="0"/>
        <pt x="462" y="8" on="1"/>
        <pt x="559" y="8" on="0"/>
        <pt x="740" y="72" on="0"/>
        <pt x="879" y="198" on="0"/>
        <pt x="962" y="383" on="0"/>
        <pt x="962" y="504" on="1"/>
        <pt x="962" y="578" on="0"/>
        <pt x="917" y="701" on="0"/>
        <pt x="823" y="790" on="0"/>
        <pt x="678" y="840" on="0"/>
        <pt x="578" y="840" on="1"/>
        <pt x="519" y="840" on="0"/>
        <pt x="384" y="822" on="0"/>
        <pt x="306" y="802" on="1"/>
        <pt x="290" y="810" on="1"/>
        <pt x="468" y="1400" on="1"/>
        <pt x="1068" y="1400" on="1"/>
      </contour>
    </TTGlyph>
    <TTGlyph name="fl" xMin="66" yMin="-252" xMax="878" yMax="1422">
      <contour>
        <pt x="249" y="920" on="1"/>
        <pt x="136" y="10" on="1"/>
        <pt x="98" y="-240" on="1"/>
        <pt x="96" y="-248" on="0"/>
        <pt x="89" y="-252" on="0"/>
        <pt x="86" y="-252" on="1"/>
        <pt x="82" y="-252" on="1"/>
        <pt x="226" y="920" on="1"/>
        <pt x="66" y="926" on="1"/>
        <pt x="66" y="938" on="1"/>
        <pt x="228" y="938" on="1"/>
        <pt x="238" y="1014" on="1"/>
        <pt x="249" y="1105" on="0"/>
        <pt x="315" y="1256" on="0"/>
        <pt x="419" y="1363" on="0"/>
        <pt x="557" y="1422" on="0"/>
        <pt x="640" y="1422" on="1"/>
        <pt x="697" y="1422" on="0"/>
        <pt x="807" y="1409" on="0"/>
        <pt x="854" y="1408" on="1"/>
        <pt x="878" y="1408" on="1"/>
        <pt x="706" y="0" on="1"/>
        <pt x="682" y="0" on="1"/>
        <pt x="852" y="1392" on="1"/>
        <pt x="805" y="1393" on="0"/>
        <pt x="690" y="1402" on="0"/>
        <pt x="638" y="1402" on="1"/>
        <pt x="560" y="1402" on="0"/>
        <pt x="431" y="1347" on="0"/>
        <pt x="334" y="1246" on="0"/>
        <pt x="271" y="1102" on="0"/>
        <pt x="260" y="1014" on="1"/>
        <pt x="250" y="938" on="1"/>
        <pt x="536" y="938" on="1"/>
        <pt x="534" y="920" on="1"/>
      </contour>
    </TTGlyph>
    <TTGlyph name="florin" xMin="22" yMin="-368" xMax="1092" yMax="1414">
      <contour>
        <pt x="642" y="822" on="1"/>
        <pt x="440" y="-8" on="1"/>
        <pt x="417" y="-102" on="0"/>
        <pt x="335" y="-238" on="0"/>
        <pt x="225" y="-326" on="0"/>
        <pt x="94" y="-368" on="0"/>
        <pt x="22" y="-368" on="1"/>
        <pt x="23" y="-362" on="1"/>
        <pt x="25" y="-348" on="0"/>
        <pt x="42" y="-348" on="1"/>
        <pt x="98" y="-347" on="0"/>
        <pt x="212" y="-311" on="0"/>
        <pt x="312" y="-231" on="0"/>
        <pt x="393" y="-103" on="0"/>
        <pt x="416" y="-8" on="1"/>
        <pt x="619" y="822" on="1"/>
        <pt x="394" y="826" on="1"/>
        <pt x="382" y="826" on="0"/>
        <pt x="382" y="834" on="1"/>
        <pt x="384" y="842" on="1"/>
        <pt x="624" y="842" on="1"/>
        <pt x="676" y="1054" on="1"/>
        <pt x="698" y="1148" on="0"/>
        <pt x="777" y="1284" on="0"/>
        <pt x="884" y="1372" on="0"/>
        <pt x="1016" y="1414" on="0"/>
        <pt x="1092" y="1414" on="1"/>
        <pt x="1091" y="1408" on="1"/>
        <pt x="1088" y="1394" on="0"/>
        <pt x="1074" y="1394" on="1"/>
        <pt x="1015" y="1394" on="0"/>
        <pt x="903" y="1359" on="0"/>
        <pt x="804" y="1280" on="0"/>
        <pt x="725" y="1150" on="0"/>
        <pt x="700" y="1054" on="1"/>
        <pt x="645" y="842" on="1"/>
        <pt x="1032" y="842" on="1"/>
        <pt x="1028" y="822" on="1"/>
      </contour>
    </TTGlyph>
    <TTGlyph name="four" xMin="78" yMin="0" xMax="1112" yMax="1402">
      <contour>
        <pt x="815" y="452" on="1"/>
        <pt x="1112" y="452" on="1"/>
        <pt x="1110" y="444" on="1"/>
        <pt x="1110" y="432" on="0"/>
        <pt x="1094" y="432" on="1"/>
        <pt x="813" y="432" on="1"/>
        <pt x="760" y="0" on="1"/>
        <pt x="738" y="0" on="1"/>
        <pt x="791" y="432" on="1"/>
        <pt x="96" y="432" on="1"/>
        <pt x="85" y="432" on="0"/>
        <pt x="80" y="437" on="0"/>
        <pt x="78" y="442" on="1"/>
        <pt x="78" y="450" on="1"/>
        <pt x="918" y="1402" on="1"/>
        <pt x="932" y="1402" on="1"/>
      </contour>
      <contour>
        <pt x="900" y="1322" on="1"/>
        <pt x="902" y="1342" on="0"/>
        <pt x="907" y="1359" on="1"/>
        <pt x="105" y="452" on="1"/>
        <pt x="793" y="452" on="1"/>
      </contour>
    </TTGlyph>
    <TTGlyph name="fraction" xMin="-256" yMin="0" xMax="669" yMax="1400">
      <contour>
        <pt x="-223" y="12" on="1"/>
        <pt x="-228" y="4" on="0"/>
        <pt x="-240" y="0" on="0"/>
        <pt x="-246" y="0" on="1"/>
        <pt x="-256" y="0" on="1"/>
        <pt x="636" y="1388" on="1"/>
        <pt x="642" y="1400" on="0"/>
        <pt x="657" y="1400" on="1"/>
        <pt x="669" y="1400" on="1"/>
      </contour>
    </TTGlyph>
    <TTGlyph name="g" xMin="-54" yMin="-376" xMax="872" yMax="994">
      <contour>
        <pt x="716" y="740" on="1"/>
        <pt x="715" y="679" on="0"/>
        <pt x="684" y="581" on="0"/>
        <pt x="638" y="500" on="0"/>
        <pt x="586" y="430" on="0"/>
        <pt x="542" y="365" on="0"/>
        <pt x="512" y="300" on="0"/>
        <pt x="512" y="264" on="1"/>
        <pt x="512" y="237" on="0"/>
        <pt x="539" y="189" on="0"/>
        <pt x="580" y="142" on="0"/>
        <pt x="628" y="94" on="0"/>
        <pt x="669" y="36" on="0"/>
        <pt x="696" y="-33" on="0"/>
        <pt x="696" y="-76" on="1"/>
        <pt x="696" y="-132" on="0"/>
        <pt x="635" y="-240" on="0"/>
        <pt x="524" y="-324" on="0"/>
        <pt x="370" y="-376" on="0"/>
        <pt x="278" y="-376" on="1"/>
        <pt x="206" y="-376" on="0"/>
        <pt x="84" y="-347" on="0"/>
        <pt x="-4" y="-290" on="0"/>
        <pt x="-54" y="-206" on="0"/>
        <pt x="-54" y="-150" on="1"/>
        <pt x="-54" y="-86" on="0"/>
        <pt x="12" y="23" on="0"/>
        <pt x="134" y="102" on="0"/>
        <pt x="306" y="147" on="0"/>
        <pt x="413" y="147" on="1"/>
        <pt x="447" y="147" on="0"/>
        <pt x="518" y="142" on="0"/>
        <pt x="556" y="137" on="1"/>
        <pt x="530" y="163" on="0"/>
        <pt x="492" y="222" on="0"/>
        <pt x="492" y="263" on="1"/>
        <pt x="492" y="284" on="0"/>
        <pt x="499" y="322" on="0"/>
        <pt x="517" y="364" on="0"/>
        <pt x="549" y="414" on="0"/>
        <pt x="575" y="446" on="1"/>
        <pt x="531" y="414" on="0"/>
        <pt x="432" y="378" on="0"/>
        <pt x="384" y="378" on="1"/>
        <pt x="327" y="378" on="0"/>
        <pt x="233" y="413" on="0"/>
        <pt x="167" y="480" on="0"/>
        <pt x="130" y="578" on="0"/>
        <pt x="130" y="640" on="1"/>
        <pt x="130" y="707" on="0"/>
        <pt x="175" y="834" on="0"/>
        <pt x="261" y="933" on="0"/>
        <pt x="384" y="994" on="0"/>
        <pt x="462" y="994" on="1"/>
        <pt x="559" y="994" on="0"/>
        <pt x="624" y="946" on="1"/>
        <pt x="872" y="946" on="1"/>
        <pt x="872" y="938" on="1"/>
        <pt x="872" y="935" on="0"/>
        <pt x="865" y="928" on="0"/>
        <pt x="854" y="926" on="1"/>
        <pt x="648" y="926" on="1"/>
        <pt x="680" y="894" on="0"/>
        <pt x="716" y="800" on="0"/>
      </contour>
      <contour>
        <pt x="674" y="-76" on="1"/>
        <pt x="674" y="-40" on="0"/>
        <pt x="657" y="15" on="0"/>
        <pt x="629" y="61" on="0"/>
        <pt x="593" y="99" on="0"/>
        <pt x="575" y="117" on="1"/>
        <pt x="533" y="122" on="0"/>
        <pt x="455" y="128" on="0"/>
        <pt x="419" y="128" on="1"/>
        <pt x="307" y="128" on="0"/>
        <pt x="138" y="83" on="0"/>
        <pt x="25" y="6" on="0"/>
        <pt x="-32" y="-95" on="0"/>
        <pt x="-32" y="-150" on="1"/>
        <pt x="-32" y="-200" on="0"/>
        <pt x="14" y="-276" on="0"/>
        <pt x="97" y="-329" on="0"/>
        <pt x="212" y="-356" on="0"/>
        <pt x="280" y="-356" on="1"/>
        <pt x="369" y="-356" on="0"/>
        <pt x="514" y="-307" on="0"/>
        <pt x="617" y="-228" on="0"/>
        <pt x="673" y="-128" on="0"/>
      </contour>
      <contour>
        <pt x="384" y="398" on="1"/>
        <pt x="457" y="398" on="0"/>
        <pt x="573" y="458" on="0"/>
        <pt x="654" y="554" on="0"/>
        <pt x="696" y="677" on="0"/>
        <pt x="696" y="740" on="1"/>
        <pt x="696" y="799" on="0"/>
        <pt x="662" y="887" on="0"/>
        <pt x="601" y="945" on="0"/>
        <pt x="514" y="974" on="0"/>
        <pt x="462" y="974" on="1"/>
        <pt x="388" y="974" on="0"/>
        <pt x="273" y="917" on="0"/>
        <pt x="194" y="824" on="0"/>
        <pt x="152" y="704" on="0"/>
        <pt x="152" y="640" on="1"/>
        <pt x="152" y="520" on="0"/>
        <pt x="279" y="398" on="0"/>
      </contour>
    </TTGlyph>
    <TTGlyph name="germandbls" xMin="65" yMin="-252" xMax="922" yMax="1414">
      <contour>
        <pt x="662" y="1414" on="1"/>
        <pt x="722" y="1414" on="0"/>
        <pt x="818" y="1376" on="0"/>
        <pt x="886" y="1312" on="0"/>
        <pt x="922" y="1229" on="0"/>
        <pt x="922" y="1184" on="1"/>
        <pt x="922" y="1112" on="0"/>
        <pt x="866" y="1008" on="0"/>
        <pt x="783" y="927" on="0"/>
        <pt x="685" y="863" on="0"/>
        <pt x="602" y="798" on="0"/>
        <pt x="546" y="726" on="0"/>
        <pt x="546" y="678" on="1"/>
        <pt x="546" y="631" on="0"/>
        <pt x="595" y="578" on="0"/>
        <pt x="668" y="540" on="0"/>
        <pt x="754" y="508" on="0"/>
        <pt x="827" y="457" on="0"/>
        <pt x="876" y="376" on="0"/>
        <pt x="876" y="310" on="1"/>
        <pt x="876" y="243" on="0"/>
        <pt x="829" y="125" on="0"/>
        <pt x="742" y="36" on="0"/>
        <pt x="620" y="-16" on="0"/>
        <pt x="544" y="-16" on="1"/>
        <pt x="495" y="-16" on="0"/>
        <pt x="420" y="1" on="0"/>
        <pt x="359" y="31" on="0"/>
        <pt x="308" y="75" on="0"/>
        <pt x="284" y="102" on="1"/>
        <pt x="290" y="108" on="1"/>
        <pt x="293" y="111" on="0"/>
        <pt x="297" y="114" on="0"/>
        <pt x="302" y="114" on="1"/>
        <pt x="309" y="114" on="0"/>
        <pt x="338" y="80" on="0"/>
        <pt x="393" y="38" on="0"/>
        <pt x="480" y="4" on="0"/>
        <pt x="546" y="4" on="1"/>
        <pt x="618" y="4" on="0"/>
        <pt x="732" y="52" on="0"/>
        <pt x="812" y="134" on="0"/>
        <pt x="854" y="244" on="0"/>
        <pt x="854" y="306" on="1"/>
        <pt x="854" y="370" on="0"/>
        <pt x="805" y="446" on="0"/>
        <pt x="732" y="494" on="0"/>
        <pt x="646" y="527" on="0"/>
        <pt x="573" y="566" on="0"/>
        <pt x="524" y="625" on="0"/>
        <pt x="524" y="676" on="1"/>
        <pt x="524" y="727" on="0"/>
        <pt x="580" y="804" on="0"/>
        <pt x="664" y="870" on="0"/>
        <pt x="762" y="933" on="0"/>
        <pt x="846" y="1010" on="0"/>
        <pt x="902" y="1109" on="0"/>
        <pt x="902" y="1178" on="1"/>
        <pt x="902" y="1208" on="0"/>
        <pt x="878" y="1283" on="0"/>
        <pt x="821" y="1349" on="0"/>
        <pt x="728" y="1394" on="0"/>
        <pt x="658" y="1394" on="1"/>
        <pt x="590" y="1394" on="0"/>
        <pt x="456" y="1329" on="0"/>
        <pt x="344" y="1209" on="0"/>
        <pt x="265" y="1041" on="0"/>
        <pt x="252" y="938" on="1"/>
        <pt x="136" y="10" on="1"/>
        <pt x="98" y="-240" on="1"/>
        <pt x="96" y="-248" on="0"/>
        <pt x="89" y="-252" on="0"/>
        <pt x="86" y="-252" on="1"/>
        <pt x="82" y="-252" on="1"/>
        <pt x="225" y="918" on="1"/>
        <pt x="76" y="922" on="1"/>
        <pt x="65" y="922" on="0"/>
        <pt x="65" y="929" on="1"/>
        <pt x="65" y="934" on="1"/>
        <pt x="65" y="936" on="0"/>
        <pt x="66" y="938" on="1"/>
        <pt x="228" y="938" on="1"/>
        <pt x="241" y="1037" on="0"/>
        <pt x="320" y="1210" on="0"/>
        <pt x="437" y="1339" on="0"/>
        <pt x="583" y="1414" on="0"/>
      </contour>
    </TTGlyph>
    <TTGlyph name="grave" xMin="170" yMin="1158" xMax="354" yMax="1416">
      <contour>
        <pt x="196" y="1416" on="1"/>
        <pt x="211" y="1416" on="0"/>
        <pt x="226" y="1408" on="0"/>
        <pt x="232" y="1394" on="1"/>
        <pt x="354" y="1158" on="1"/>
        <pt x="340" y="1158" on="1"/>
        <pt x="331" y="1158" on="0"/>
        <pt x="326" y="1166" on="1"/>
        <pt x="170" y="1416" on="1"/>
      </contour>
    </TTGlyph>
    <TTGlyph name="grave.case" xMin="156" yMin="1538" xMax="424" yMax="1760">
      <contour>
        <pt x="190" y="1760" on="1"/>
        <pt x="207" y="1760" on="0"/>
        <pt x="220" y="1754" on="0"/>
        <pt x="228" y="1746" on="1"/>
        <pt x="424" y="1538" on="1"/>
        <pt x="412" y="1538" on="1"/>
        <pt x="405" y="1538" on="0"/>
        <pt x="396" y="1544" on="1"/>
        <pt x="156" y="1760" on="1"/>
      </contour>
    </TTGlyph>
    <TTGlyph name="greater" xMin="154" yMin="292" xMax="931" yMax="1048">
      <contour>
        <pt x="929" y="664" on="1"/>
        <pt x="154" y="292" on="1"/>
        <pt x="155" y="303" on="1"/>
        <pt x="156" y="314" on="0"/>
        <pt x="177" y="324" on="1"/>
        <pt x="860" y="650" on="1"/>
        <pt x="872" y="656" on="0"/>
        <pt x="896" y="667" on="0"/>
        <pt x="909" y="670" on="1"/>
        <pt x="887" y="677" on="0"/>
        <pt x="865" y="690" on="1"/>
        <pt x="262" y="1016" on="1"/>
        <pt x="245" y="1025" on="0"/>
        <pt x="245" y="1034" on="1"/>
        <pt x="245" y="1036" on="0"/>
        <pt x="245" y="1041" on="0"/>
        <pt x="246" y="1043" on="1"/>
        <pt x="246" y="1046" on="0"/>
        <pt x="247" y="1048" on="1"/>
        <pt x="931" y="676" on="1"/>
      </contour>
    </TTGlyph>
    <TTGlyph name="greaterequal" xMin="127" yMin="80" xMax="930" yMax="1048">
      <contour>
        <pt x="857" y="80" on="1"/>
        <pt x="127" y="80" on="1"/>
        <pt x="130" y="100" on="1"/>
        <pt x="860" y="100" on="1"/>
      </contour>
      <contour>
        <pt x="928" y="664" on="1"/>
        <pt x="153" y="292" on="1"/>
        <pt x="154" y="303" on="1"/>
        <pt x="155" y="314" on="0"/>
        <pt x="176" y="324" on="1"/>
        <pt x="859" y="650" on="1"/>
        <pt x="871" y="656" on="0"/>
        <pt x="895" y="667" on="0"/>
        <pt x="908" y="670" on="1"/>
        <pt x="897" y="674" on="0"/>
        <pt x="875" y="685" on="0"/>
        <pt x="864" y="690" on="1"/>
        <pt x="261" y="1016" on="1"/>
        <pt x="253" y="1021" on="0"/>
        <pt x="246" y="1029" on="0"/>
        <pt x="246" y="1039" on="1"/>
        <pt x="246" y="1048" on="1"/>
        <pt x="930" y="676" on="1"/>
      </contour>
    </TTGlyph>
    <TTGlyph name="guillemotleft" xMin="158" yMin="138" xMax="634" yMax="882">
      <contour>
        <pt x="158" y="508" on="1"/>
        <pt x="158" y="512" on="1"/>
        <pt x="420" y="882" on="1"/>
        <pt x="426" y="878" on="1"/>
        <pt x="430" y="874" on="0"/>
        <pt x="430" y="868" on="1"/>
        <pt x="430" y="861" on="0"/>
        <pt x="424" y="854" on="1"/>
        <pt x="198" y="532" on="1"/>
        <pt x="183" y="512" on="0"/>
        <pt x="178" y="510" on="1"/>
        <pt x="184" y="506" on="0"/>
        <pt x="192" y="488" on="1"/>
        <pt x="340" y="166" on="1"/>
        <pt x="343" y="160" on="0"/>
        <pt x="343" y="155" on="1"/>
        <pt x="343" y="147" on="0"/>
        <pt x="336" y="142" on="1"/>
        <pt x="328" y="138" on="1"/>
      </contour>
      <contour>
        <pt x="362" y="508" on="1"/>
        <pt x="362" y="512" on="1"/>
        <pt x="624" y="882" on="1"/>
        <pt x="630" y="878" on="1"/>
        <pt x="634" y="874" on="0"/>
        <pt x="634" y="868" on="1"/>
        <pt x="634" y="861" on="0"/>
        <pt x="628" y="854" on="1"/>
        <pt x="402" y="532" on="1"/>
        <pt x="387" y="512" on="0"/>
        <pt x="382" y="510" on="1"/>
        <pt x="388" y="506" on="0"/>
        <pt x="396" y="488" on="1"/>
        <pt x="544" y="166" on="1"/>
        <pt x="547" y="160" on="0"/>
        <pt x="547" y="155" on="1"/>
        <pt x="547" y="147" on="0"/>
        <pt x="540" y="142" on="1"/>
        <pt x="532" y="138" on="1"/>
      </contour>
    </TTGlyph>
    <TTGlyph name="guillemotright" xMin="135" yMin="138" xMax="610" yMax="882">
      <contour>
        <pt x="146" y="138" on="1"/>
        <pt x="140" y="142" on="1"/>
        <pt x="135" y="145" on="0"/>
        <pt x="135" y="152" on="1"/>
        <pt x="135" y="158" on="0"/>
        <pt x="140" y="166" on="1"/>
        <pt x="368" y="488" on="1"/>
        <pt x="374" y="498" on="0"/>
        <pt x="383" y="508" on="0"/>
        <pt x="386" y="510" on="1"/>
        <pt x="380" y="513" on="0"/>
        <pt x="372" y="532" on="1"/>
        <pt x="224" y="854" on="1"/>
        <pt x="222" y="858" on="0"/>
        <pt x="222" y="864" on="1"/>
        <pt x="222" y="872" on="0"/>
        <pt x="230" y="878" on="1"/>
        <pt x="236" y="882" on="1"/>
        <pt x="406" y="512" on="1"/>
        <pt x="406" y="508" on="1"/>
      </contour>
      <contour>
        <pt x="350" y="138" on="1"/>
        <pt x="344" y="142" on="1"/>
        <pt x="339" y="145" on="0"/>
        <pt x="339" y="152" on="1"/>
        <pt x="339" y="158" on="0"/>
        <pt x="344" y="166" on="1"/>
        <pt x="572" y="488" on="1"/>
        <pt x="578" y="498" on="0"/>
        <pt x="587" y="508" on="0"/>
        <pt x="590" y="510" on="1"/>
        <pt x="584" y="513" on="0"/>
        <pt x="576" y="532" on="1"/>
        <pt x="428" y="854" on="1"/>
        <pt x="426" y="858" on="0"/>
        <pt x="426" y="864" on="1"/>
        <pt x="426" y="872" on="0"/>
        <pt x="434" y="878" on="1"/>
        <pt x="440" y="882" on="1"/>
        <pt x="610" y="512" on="1"/>
        <pt x="610" y="508" on="1"/>
      </contour>
    </TTGlyph>
    <TTGlyph name="guilsinglleft" xMin="158" yMin="138" xMax="430" yMax="882">
      <contour>
        <pt x="158" y="508" on="1"/>
        <pt x="158" y="512" on="1"/>
        <pt x="420" y="882" on="1"/>
        <pt x="426" y="878" on="1"/>
        <pt x="430" y="874" on="0"/>
        <pt x="430" y="868" on="1"/>
        <pt x="430" y="861" on="0"/>
        <pt x="424" y="854" on="1"/>
        <pt x="198" y="532" on="1"/>
        <pt x="183" y="512" on="0"/>
        <pt x="178" y="510" on="1"/>
        <pt x="184" y="506" on="0"/>
        <pt x="192" y="488" on="1"/>
        <pt x="340" y="166" on="1"/>
        <pt x="343" y="160" on="0"/>
        <pt x="343" y="155" on="1"/>
        <pt x="343" y="147" on="0"/>
        <pt x="336" y="142" on="1"/>
        <pt x="328" y="138" on="1"/>
      </contour>
    </TTGlyph>
    <TTGlyph name="guilsinglright" xMin="135" yMin="138" xMax="406" yMax="882">
      <contour>
        <pt x="146" y="138" on="1"/>
        <pt x="140" y="142" on="1"/>
        <pt x="135" y="145" on="0"/>
        <pt x="135" y="152" on="1"/>
        <pt x="135" y="158" on="0"/>
        <pt x="140" y="166" on="1"/>
        <pt x="368" y="488" on="1"/>
        <pt x="374" y="498" on="0"/>
        <pt x="383" y="508" on="0"/>
        <pt x="386" y="510" on="1"/>
        <pt x="380" y="513" on="0"/>
        <pt x="372" y="532" on="1"/>
        <pt x="224" y="854" on="1"/>
        <pt x="222" y="858" on="0"/>
        <pt x="222" y="864" on="1"/>
        <pt x="222" y="872" on="0"/>
        <pt x="230" y="878" on="1"/>
        <pt x="236" y="882" on="1"/>
        <pt x="406" y="512" on="1"/>
        <pt x="406" y="508" on="1"/>
      </contour>
    </TTGlyph>
    <TTGlyph name="h" xMin="122" yMin="0" xMax="875" yMax="1440">
      <contour>
        <pt x="122" y="0" on="1"/>
        <pt x="296" y="1440" on="1"/>
        <pt x="318" y="1440" on="1"/>
        <pt x="216" y="599" on="1"/>
        <pt x="256" y="689" on="0"/>
        <pt x="359" y="835" on="0"/>
        <pt x="476" y="938" on="0"/>
        <pt x="603" y="994" on="0"/>
        <pt x="666" y="994" on="1"/>
        <pt x="775" y="994" on="0"/>
        <pt x="875" y="858" on="0"/>
        <pt x="875" y="731" on="1"/>
        <pt x="875" y="707" on="0"/>
        <pt x="871" y="656" on="0"/>
        <pt x="868" y="628" on="1"/>
        <pt x="794" y="0" on="1"/>
        <pt x="772" y="0" on="1"/>
        <pt x="846" y="628" on="1"/>
        <pt x="852" y="680" on="0"/>
        <pt x="852" y="727" on="1"/>
        <pt x="852" y="845" on="0"/>
        <pt x="763" y="974" on="0"/>
        <pt x="664" y="974" on="1"/>
        <pt x="603" y="974" on="0"/>
        <pt x="478" y="915" on="0"/>
        <pt x="360" y="804" on="0"/>
        <pt x="253" y="646" on="0"/>
        <pt x="210" y="548" on="1"/>
        <pt x="144" y="0" on="1"/>
      </contour>
    </TTGlyph>
    <TTGlyph name="hungarumlaut" xMin="220" yMin="1158" xMax="680" yMax="1416">
      <contour>
        <pt x="462" y="1416" on="1"/>
        <pt x="250" y="1166" on="1"/>
        <pt x="242" y="1158" on="0"/>
        <pt x="234" y="1158" on="1"/>
        <pt x="220" y="1158" on="1"/>
        <pt x="400" y="1394" on="1"/>
        <pt x="409" y="1408" on="0"/>
        <pt x="425" y="1416" on="0"/>
        <pt x="440" y="1416" on="1"/>
      </contour>
      <contour>
        <pt x="680" y="1416" on="1"/>
        <pt x="446" y="1166" on="1"/>
        <pt x="438" y="1158" on="0"/>
        <pt x="428" y="1158" on="1"/>
        <pt x="416" y="1158" on="1"/>
        <pt x="614" y="1394" on="1"/>
        <pt x="625" y="1406" on="0"/>
        <pt x="639" y="1416" on="0"/>
        <pt x="656" y="1416" on="1"/>
      </contour>
    </TTGlyph>
    <TTGlyph name="hungarumlaut.case" xMin="248" yMin="1538" xMax="740" yMax="1760">
      <contour>
        <pt x="484" y="1760" on="1"/>
        <pt x="278" y="1546" on="1"/>
        <pt x="273" y="1538" on="0"/>
        <pt x="262" y="1538" on="1"/>
        <pt x="248" y="1538" on="1"/>
        <pt x="422" y="1738" on="1"/>
        <pt x="433" y="1750" on="0"/>
        <pt x="449" y="1760" on="0"/>
        <pt x="464" y="1760" on="1"/>
      </contour>
      <contour>
        <pt x="740" y="1760" on="1"/>
        <pt x="510" y="1546" on="1"/>
        <pt x="505" y="1538" on="0"/>
        <pt x="494" y="1538" on="1"/>
        <pt x="480" y="1538" on="1"/>
        <pt x="672" y="1738" on="1"/>
        <pt x="685" y="1751" on="0"/>
        <pt x="701" y="1760" on="0"/>
        <pt x="716" y="1760" on="1"/>
      </contour>
    </TTGlyph>
    <TTGlyph name="hyphen" xMin="102" yMin="578" xMax="510" yMax="598">
      <contour>
        <pt x="106" y="598" on="1"/>
        <pt x="510" y="598" on="1"/>
        <pt x="508" y="578" on="1"/>
        <pt x="102" y="578" on="1"/>
      </contour>
    </TTGlyph>
    <TTGlyph name="i" xMin="142" yMin="0" xMax="362" yMax="1400">
      <contour>
        <pt x="284" y="980" on="1"/>
        <pt x="164" y="0" on="1"/>
        <pt x="142" y="0" on="1"/>
        <pt x="262" y="980" on="1"/>
      </contour>
      <contour>
        <pt x="362" y="1344" on="1"/>
        <pt x="362" y="1323" on="0"/>
        <pt x="330" y="1290" on="0"/>
        <pt x="310" y="1290" on="1"/>
        <pt x="289" y="1290" on="0"/>
        <pt x="258" y="1323" on="0"/>
        <pt x="258" y="1344" on="1"/>
        <pt x="258" y="1367" on="0"/>
        <pt x="289" y="1400" on="0"/>
        <pt x="310" y="1400" on="1"/>
        <pt x="330" y="1400" on="0"/>
        <pt x="362" y="1367" on="0"/>
      </contour>
    </TTGlyph>
    <TTGlyph name="iacute" xMin="142" yMin="0" xMax="485" yMax="1416">
      <component glyphName="dotlessi" x="0" y="0" flags="0x204"/>
      <component glyphName="acute" x="-43" y="0" flags="0x4"/>
    </TTGlyph>
    <TTGlyph name="icircumflex" xMin="95" yMin="0" xMax="501" yMax="1400">
      <component glyphName="dotlessi" x="0" y="0" flags="0x204"/>
      <component glyphName="circumflex" x="-43" y="0" flags="0x4"/>
    </TTGlyph>
    <TTGlyph name="idieresis" xMin="97" yMin="0" xMax="537" yMax="1358">
      <component glyphName="dotlessi" x="0" y="0" flags="0x204"/>
      <component glyphName="dieresis" x="-43" y="0" flags="0x4"/>
    </TTGlyph>
    <TTGlyph name="igrave" xMin="127" yMin="0" xMax="311" yMax="1416">
      <component glyphName="dotlessi" x="0" y="0" flags="0x204"/>
      <component glyphName="grave" x="-43" y="0" flags="0x4"/>
    </TTGlyph>
    <TTGlyph name="infinity" xMin="89" yMin="306" xMax="1188" yMax="874">
      <contour>
        <pt x="903" y="306" on="1"/>
        <pt x="853" y="306" on="0"/>
        <pt x="775" y="351" on="0"/>
        <pt x="712" y="425" on="0"/>
        <pt x="660" y="521" on="0"/>
        <pt x="635" y="571" on="1"/>
        <pt x="598" y="521" on="0"/>
        <pt x="522" y="425" on="0"/>
        <pt x="441" y="351" on="0"/>
        <pt x="352" y="306" on="0"/>
        <pt x="302" y="306" on="1"/>
        <pt x="258" y="306" on="0"/>
        <pt x="181" y="338" on="0"/>
        <pt x="123" y="399" on="0"/>
        <pt x="89" y="487" on="0"/>
        <pt x="89" y="543" on="1"/>
        <pt x="89" y="566" on="0"/>
        <pt x="92" y="590" on="1"/>
        <pt x="100" y="657" on="0"/>
        <pt x="154" y="762" on="0"/>
        <pt x="230" y="835" on="0"/>
        <pt x="324" y="874" on="0"/>
        <pt x="372" y="874" on="1"/>
        <pt x="422" y="874" on="0"/>
        <pt x="500" y="829" on="0"/>
        <pt x="563" y="755" on="0"/>
        <pt x="615" y="659" on="0"/>
        <pt x="640" y="609" on="1"/>
        <pt x="677" y="659" on="0"/>
        <pt x="753" y="755" on="0"/>
        <pt x="834" y="829" on="0"/>
        <pt x="923" y="874" on="0"/>
        <pt x="973" y="874" on="1"/>
        <pt x="1018" y="874" on="0"/>
        <pt x="1096" y="842" on="0"/>
        <pt x="1154" y="781" on="0"/>
        <pt x="1188" y="693" on="0"/>
        <pt x="1188" y="637" on="1"/>
        <pt x="1188" y="614" on="0"/>
        <pt x="1185" y="590" on="1"/>
        <pt x="1177" y="523" on="0"/>
        <pt x="1123" y="418" on="0"/>
        <pt x="1046" y="345" on="0"/>
        <pt x="952" y="306" on="0"/>
      </contour>
      <contour>
        <pt x="305" y="326" on="1"/>
        <pt x="352" y="326" on="0"/>
        <pt x="437" y="371" on="0"/>
        <pt x="515" y="444" on="0"/>
        <pt x="589" y="539" on="0"/>
        <pt x="626" y="589" on="1"/>
        <pt x="601" y="639" on="0"/>
        <pt x="550" y="735" on="0"/>
        <pt x="490" y="809" on="0"/>
        <pt x="416" y="854" on="0"/>
        <pt x="369" y="854" on="1"/>
        <pt x="323" y="854" on="0"/>
        <pt x="237" y="818" on="0"/>
        <pt x="168" y="749" on="0"/>
        <pt x="120" y="651" on="0"/>
        <pt x="113" y="590" on="1"/>
        <pt x="110" y="566" on="0"/>
        <pt x="110" y="544" on="1"/>
        <pt x="110" y="493" on="0"/>
        <pt x="140" y="412" on="0"/>
        <pt x="192" y="356" on="0"/>
        <pt x="263" y="326" on="0"/>
      </contour>
      <contour>
        <pt x="906" y="326" on="1"/>
        <pt x="953" y="326" on="0"/>
        <pt x="1039" y="362" on="0"/>
        <pt x="1108" y="431" on="0"/>
        <pt x="1155" y="528" on="0"/>
        <pt x="1163" y="590" on="1"/>
        <pt x="1166" y="614" on="0"/>
        <pt x="1166" y="636" on="1"/>
        <pt x="1166" y="687" on="0"/>
        <pt x="1137" y="768" on="0"/>
        <pt x="1084" y="824" on="0"/>
        <pt x="1012" y="854" on="0"/>
        <pt x="970" y="854" on="1"/>
        <pt x="923" y="854" on="0"/>
        <pt x="839" y="809" on="0"/>
        <pt x="760" y="735" on="0"/>
        <pt x="686" y="640" on="0"/>
        <pt x="649" y="590" on="1"/>
        <pt x="674" y="540" on="0"/>
        <pt x="725" y="445" on="0"/>
        <pt x="785" y="371" on="0"/>
        <pt x="859" y="326" on="0"/>
      </contour>
    </TTGlyph>
    <TTGlyph name="integral" xMin="-174" yMin="-368" xMax="933" yMax="1416">
      <contour>
        <pt x="507" y="1082" on="1"/>
        <pt x="528" y="1169" on="0"/>
        <pt x="597" y="1295" on="0"/>
        <pt x="685" y="1377" on="0"/>
        <pt x="785" y="1416" on="0"/>
        <pt x="837" y="1416" on="1"/>
        <pt x="873" y="1416" on="0"/>
        <pt x="915" y="1407" on="0"/>
        <pt x="933" y="1396" on="1"/>
        <pt x="930" y="1390" on="1"/>
        <pt x="926" y="1382" on="0"/>
        <pt x="920" y="1382" on="1"/>
        <pt x="911" y="1382" on="0"/>
        <pt x="875" y="1396" on="0"/>
        <pt x="838" y="1396" on="1"/>
        <pt x="788" y="1396" on="0"/>
        <pt x="694" y="1360" on="0"/>
        <pt x="614" y="1283" on="0"/>
        <pt x="550" y="1164" on="0"/>
        <pt x="531" y="1082" on="1"/>
        <pt x="274" y="-8" on="1"/>
        <pt x="252" y="-105" on="0"/>
        <pt x="180" y="-241" on="0"/>
        <pt x="88" y="-328" on="0"/>
        <pt x="-20" y="-368" on="0"/>
        <pt x="-79" y="-368" on="1"/>
        <pt x="-108" y="-368" on="0"/>
        <pt x="-159" y="-361" on="0"/>
        <pt x="-174" y="-350" on="1"/>
        <pt x="-169" y="-342" on="1"/>
        <pt x="-165" y="-335" on="0"/>
        <pt x="-159" y="-335" on="1"/>
        <pt x="-150" y="-335" on="0"/>
        <pt x="-114" y="-350" on="0"/>
        <pt x="-77" y="-350" on="1"/>
        <pt x="-22" y="-350" on="0"/>
        <pt x="77" y="-313" on="0"/>
        <pt x="161" y="-232" on="0"/>
        <pt x="228" y="-102" on="0"/>
        <pt x="251" y="-8" on="1"/>
      </contour>
    </TTGlyph>
    <TTGlyph name="j" xMin="-142" yMin="-374" xMax="362" yMax="1400">
      <contour>
        <pt x="278" y="980" on="1"/>
        <pt x="136" y="-172" on="1"/>
        <pt x="131" y="-216" on="0"/>
        <pt x="97" y="-290" on="0"/>
        <pt x="43" y="-344" on="0"/>
        <pt x="-27" y="-374" on="0"/>
        <pt x="-68" y="-374" on="1"/>
        <pt x="-92" y="-374" on="0"/>
        <pt x="-127" y="-363" on="0"/>
        <pt x="-142" y="-352" on="1"/>
        <pt x="-138" y="-344" on="1"/>
        <pt x="-134" y="-336" on="0"/>
        <pt x="-128" y="-336" on="1"/>
        <pt x="-120" y="-336" on="0"/>
        <pt x="-93" y="-354" on="0"/>
        <pt x="-66" y="-354" on="1"/>
        <pt x="11" y="-354" on="0"/>
        <pt x="104" y="-253" on="0"/>
        <pt x="114" y="-172" on="1"/>
        <pt x="256" y="980" on="1"/>
      </contour>
      <contour>
        <pt x="362" y="1344" on="1"/>
        <pt x="362" y="1323" on="0"/>
        <pt x="330" y="1290" on="0"/>
        <pt x="310" y="1290" on="1"/>
        <pt x="289" y="1290" on="0"/>
        <pt x="258" y="1323" on="0"/>
        <pt x="258" y="1344" on="1"/>
        <pt x="258" y="1367" on="0"/>
        <pt x="289" y="1400" on="0"/>
        <pt x="310" y="1400" on="1"/>
        <pt x="330" y="1400" on="0"/>
        <pt x="362" y="1367" on="0"/>
      </contour>
    </TTGlyph>
    <TTGlyph name="k" xMin="116" yMin="0" xMax="824" yMax="1440">
      <contour>
        <pt x="314" y="1440" on="1"/>
        <pt x="203" y="536" on="1"/>
        <pt x="246" y="536" on="1"/>
        <pt x="261" y="536" on="0"/>
        <pt x="280" y="542" on="0"/>
        <pt x="294" y="554" on="1"/>
        <pt x="772" y="964" on="1"/>
        <pt x="780" y="971" on="0"/>
        <pt x="796" y="980" on="0"/>
        <pt x="808" y="980" on="1"/>
        <pt x="824" y="980" on="1"/>
        <pt x="314" y="546" on="1"/>
        <pt x="299" y="534" on="0"/>
        <pt x="288" y="529" on="1"/>
        <pt x="300" y="525" on="0"/>
        <pt x="317" y="512" on="0"/>
        <pt x="324" y="504" on="1"/>
        <pt x="740" y="0" on="1"/>
        <pt x="724" y="0" on="1"/>
        <pt x="716" y="0" on="0"/>
        <pt x="704" y="4" on="0"/>
        <pt x="698" y="12" on="1"/>
        <pt x="306" y="490" on="1"/>
        <pt x="292" y="507" on="0"/>
        <pt x="265" y="518" on="0"/>
        <pt x="238" y="518" on="1"/>
        <pt x="201" y="518" on="1"/>
        <pt x="138" y="0" on="1"/>
        <pt x="116" y="0" on="1"/>
        <pt x="292" y="1440" on="1"/>
      </contour>
    </TTGlyph>
    <TTGlyph name="l" xMin="142" yMin="0" xMax="338" yMax="1440">
      <contour>
        <pt x="142" y="0" on="1"/>
        <pt x="316" y="1440" on="1"/>
        <pt x="338" y="1440" on="1"/>
        <pt x="162" y="0" on="1"/>
      </contour>
    </TTGlyph>
    <TTGlyph name="less" xMin="185" yMin="292" xMax="962" yMax="1048">
      <contour>
        <pt x="187" y="676" on="1"/>
        <pt x="962" y="1048" on="1"/>
        <pt x="961" y="1037" on="1"/>
        <pt x="960" y="1026" on="0"/>
        <pt x="939" y="1016" on="1"/>
        <pt x="256" y="690" on="1"/>
        <pt x="244" y="684" on="0"/>
        <pt x="220" y="673" on="0"/>
        <pt x="207" y="670" on="1"/>
        <pt x="229" y="663" on="0"/>
        <pt x="251" y="650" on="1"/>
        <pt x="854" y="324" on="1"/>
        <pt x="871" y="315" on="0"/>
        <pt x="871" y="306" on="1"/>
        <pt x="871" y="304" on="0"/>
        <pt x="870" y="299" on="0"/>
        <pt x="870" y="297" on="1"/>
        <pt x="869" y="294" on="0"/>
        <pt x="869" y="292" on="1"/>
        <pt x="185" y="664" on="1"/>
      </contour>
    </TTGlyph>
    <TTGlyph name="lessequal" xMin="115" yMin="80" xMax="964" yMax="1048">
      <contour>
        <pt x="189" y="676" on="1"/>
        <pt x="964" y="1048" on="1"/>
        <pt x="963" y="1037" on="1"/>
        <pt x="962" y="1026" on="0"/>
        <pt x="941" y="1016" on="1"/>
        <pt x="258" y="690" on="1"/>
        <pt x="246" y="684" on="0"/>
        <pt x="222" y="673" on="0"/>
        <pt x="209" y="670" on="1"/>
        <pt x="220" y="666" on="0"/>
        <pt x="242" y="655" on="0"/>
        <pt x="253" y="650" on="1"/>
        <pt x="856" y="324" on="1"/>
        <pt x="864" y="319" on="0"/>
        <pt x="871" y="311" on="0"/>
        <pt x="871" y="301" on="1"/>
        <pt x="871" y="292" on="1"/>
        <pt x="187" y="664" on="1"/>
      </contour>
      <contour>
        <pt x="118" y="100" on="1"/>
        <pt x="848" y="100" on="1"/>
        <pt x="845" y="80" on="1"/>
        <pt x="115" y="80" on="1"/>
      </contour>
    </TTGlyph>
    <TTGlyph name="logicalnot" xMin="200" yMin="360" xMax="1004" yMax="680">
      <contour>
        <pt x="202" y="680" on="1"/>
        <pt x="1004" y="680" on="1"/>
        <pt x="964" y="360" on="1"/>
        <pt x="942" y="360" on="1"/>
        <pt x="979" y="660" on="1"/>
        <pt x="200" y="660" on="1"/>
      </contour>
    </TTGlyph>
    <TTGlyph name="lozenge" xMin="170" yMin="-184" xMax="1010" yMax="1500">
      <contour>
        <pt x="170" y="658" on="1"/>
        <pt x="582" y="1500" on="1"/>
        <pt x="598" y="1500" on="1"/>
        <pt x="1010" y="658" on="1"/>
        <pt x="598" y="-184" on="1"/>
        <pt x="582" y="-184" on="1"/>
      </contour>
      <contour>
        <pt x="196" y="658" on="1"/>
        <pt x="576" y="-116" on="1"/>
        <pt x="586" y="-137" on="0"/>
        <pt x="590" y="-157" on="1"/>
        <pt x="594" y="-137" on="0"/>
        <pt x="604" y="-116" on="1"/>
        <pt x="984" y="658" on="1"/>
        <pt x="604" y="1432" on="1"/>
        <pt x="594" y="1453" on="0"/>
        <pt x="590" y="1473" on="1"/>
        <pt x="586" y="1453" on="0"/>
        <pt x="576" y="1432" on="1"/>
      </contour>
    </TTGlyph>
    <TTGlyph name="lslash" xMin="88" yMin="0" xMax="532" yMax="1440">
      <contour>
        <pt x="88" y="700" on="1"/>
        <pt x="88" y="708" on="0"/>
        <pt x="92" y="715" on="0"/>
        <pt x="100" y="720" on="1"/>
        <pt x="301" y="820" on="1"/>
        <pt x="376" y="1440" on="1"/>
        <pt x="398" y="1440" on="1"/>
        <pt x="323" y="829" on="1"/>
        <pt x="532" y="930" on="1"/>
        <pt x="532" y="924" on="1"/>
        <pt x="532" y="918" on="0"/>
        <pt x="529" y="909" on="0"/>
        <pt x="520" y="904" on="1"/>
        <pt x="320" y="806" on="1"/>
        <pt x="222" y="0" on="1"/>
        <pt x="202" y="0" on="1"/>
        <pt x="298" y="797" on="1"/>
        <pt x="88" y="694" on="1"/>
      </contour>
    </TTGlyph>
    <TTGlyph name="m" xMin="114" yMin="0" xMax="1409" yMax="994">
      <contour>
        <pt x="114" y="0" on="1"/>
        <pt x="232" y="984" on="1"/>
        <pt x="236" y="984" on="1"/>
        <pt x="244" y="984" on="0"/>
        <pt x="248" y="975" on="0"/>
        <pt x="248" y="970" on="1"/>
        <pt x="205" y="588" on="1"/>
        <pt x="244" y="681" on="0"/>
        <pt x="342" y="831" on="0"/>
        <pt x="454" y="937" on="0"/>
        <pt x="576" y="994" on="0"/>
        <pt x="640" y="994" on="1"/>
        <pt x="689" y="994" on="0"/>
        <pt x="755" y="965" on="0"/>
        <pt x="796" y="910" on="0"/>
        <pt x="813" y="828" on="0"/>
        <pt x="813" y="776" on="1"/>
        <pt x="813" y="743" on="0"/>
        <pt x="807" y="670" on="0"/>
        <pt x="802" y="628" on="1"/>
        <pt x="840" y="720" on="0"/>
        <pt x="941" y="858" on="0"/>
        <pt x="1053" y="949" on="0"/>
        <pt x="1171" y="994" on="0"/>
        <pt x="1226" y="994" on="1"/>
        <pt x="1277" y="994" on="0"/>
        <pt x="1347" y="963" on="0"/>
        <pt x="1390" y="904" on="0"/>
        <pt x="1409" y="817" on="0"/>
        <pt x="1409" y="761" on="1"/>
        <pt x="1409" y="701" on="0"/>
        <pt x="1400" y="628" on="1"/>
        <pt x="1326" y="0" on="1"/>
        <pt x="1304" y="0" on="1"/>
        <pt x="1378" y="628" on="1"/>
        <pt x="1387" y="700" on="0"/>
        <pt x="1387" y="759" on="1"/>
        <pt x="1387" y="811" on="0"/>
        <pt x="1370" y="891" on="0"/>
        <pt x="1332" y="946" on="0"/>
        <pt x="1270" y="974" on="0"/>
        <pt x="1224" y="974" on="1"/>
        <pt x="1170" y="974" on="0"/>
        <pt x="1055" y="928" on="0"/>
        <pt x="944" y="833" on="0"/>
        <pt x="841" y="685" on="0"/>
        <pt x="799" y="583" on="1"/>
        <pt x="730" y="0" on="1"/>
        <pt x="708" y="0" on="1"/>
        <pt x="782" y="628" on="1"/>
        <pt x="787" y="670" on="0"/>
        <pt x="793" y="743" on="0"/>
        <pt x="793" y="775" on="1"/>
        <pt x="793" y="823" on="0"/>
        <pt x="778" y="897" on="0"/>
        <pt x="742" y="948" on="0"/>
        <pt x="682" y="974" on="0"/>
        <pt x="638" y="974" on="1"/>
        <pt x="508" y="974" on="0"/>
        <pt x="289" y="750" on="0"/>
        <pt x="200" y="539" on="1"/>
        <pt x="136" y="0" on="1"/>
      </contour>
    </TTGlyph>
    <TTGlyph name="macron" xMin="116" yMin="1270" xMax="598" yMax="1290">
      <contour>
        <pt x="118" y="1290" on="1"/>
        <pt x="598" y="1290" on="1"/>
        <pt x="596" y="1270" on="1"/>
        <pt x="116" y="1270" on="1"/>
      </contour>
    </TTGlyph>
    <TTGlyph name="macron.case" xMin="146" yMin="1602" xMax="642" yMax="1622">
      <contour>
        <pt x="148" y="1622" on="1"/>
        <pt x="642" y="1622" on="1"/>
        <pt x="638" y="1602" on="1"/>
        <pt x="146" y="1602" on="1"/>
      </contour>
    </TTGlyph>
    <TTGlyph name="minus" xMin="200" yMin="660" xMax="1004" yMax="680">
      <contour>
        <pt x="202" y="680" on="1"/>
        <pt x="1004" y="680" on="1"/>
        <pt x="1002" y="660" on="1"/>
        <pt x="200" y="660" on="1"/>
      </contour>
    </TTGlyph>
    <TTGlyph name="mu" xMin="34" yMin="-360" xMax="870" yMax="980">
      <contour>
        <pt x="222" y="980" on="1"/>
        <pt x="140" y="309" on="1"/>
        <pt x="139" y="300" on="0"/>
        <pt x="139" y="282" on="0"/>
        <pt x="139" y="273" on="1"/>
        <pt x="139" y="145" on="0"/>
        <pt x="255" y="4" on="0"/>
        <pt x="378" y="4" on="1"/>
        <pt x="482" y="4" on="0"/>
        <pt x="674" y="126" on="0"/>
        <pt x="754" y="233" on="1"/>
        <pt x="848" y="980" on="1"/>
        <pt x="870" y="980" on="1"/>
        <pt x="750" y="0" on="1"/>
        <pt x="744" y="0" on="1"/>
        <pt x="736" y="0" on="0"/>
        <pt x="732" y="7" on="0"/>
        <pt x="732" y="16" on="1"/>
        <pt x="751" y="202" on="1"/>
        <pt x="713" y="152" on="0"/>
        <pt x="626" y="72" on="0"/>
        <pt x="530" y="15" on="0"/>
        <pt x="427" y="-16" on="0"/>
        <pt x="374" y="-16" on="1"/>
        <pt x="255" y="-16" on="0"/>
        <pt x="133" y="106" on="0"/>
        <pt x="125" y="219" on="1"/>
        <pt x="123" y="202" on="0"/>
        <pt x="119" y="163" on="0"/>
        <pt x="113" y="106" on="0"/>
        <pt x="104" y="25" on="0"/>
        <pt x="90" y="-92" on="0"/>
        <pt x="71" y="-253" on="0"/>
        <pt x="58" y="-360" on="1"/>
        <pt x="46" y="-360" on="1"/>
        <pt x="38" y="-360" on="0"/>
        <pt x="34" y="-353" on="0"/>
        <pt x="34" y="-348" on="1"/>
        <pt x="198" y="980" on="1"/>
      </contour>
    </TTGlyph>
    <TTGlyph name="multiply" xMin="150" yMin="266" xMax="1052" yMax="1074">
      <contour>
        <pt x="1052" y="1056" on="1"/>
        <pt x="617" y="670" on="1"/>
        <pt x="956" y="282" on="1"/>
        <pt x="942" y="268" on="1"/>
        <pt x="600" y="655" on="1"/>
        <pt x="162" y="266" on="1"/>
        <pt x="150" y="280" on="1"/>
        <pt x="587" y="670" on="1"/>
        <pt x="246" y="1058" on="1"/>
        <pt x="264" y="1074" on="1"/>
        <pt x="604" y="685" on="1"/>
        <pt x="1038" y="1072" on="1"/>
      </contour>
    </TTGlyph>
</ttFont>
